{"glyphs":{"0":{"ha":1010,"x_min":231,"x_max":781,"o":"m 231 294 l 231 704 q 243 781 231 746 q 286 840 256 815 q 370 878 317 864 q 504 892 424 892 q 723 839 665 892 q 781 704 781 786 l 781 294 q 723 159 781 211 q 504 107 665 107 q 370 121 424 107 q 286 159 317 135 q 243 218 256 183 q 231 294 231 253 m 504 878 q 300 831 356 878 q 244 704 244 783 l 244 294 q 300 168 244 215 q 504 121 356 121 q 710 168 653 121 q 767 294 767 215 l 767 704 q 710 830 767 782 q 504 878 653 878 z "},"1":{"ha":835,"x_min":192,"x_max":656,"o":"m 192 118 l 192 132 l 428 132 l 428 861 l 219 861 l 219 875 l 442 875 l 442 132 l 656 132 l 656 118 l 192 118 z "},"2":{"ha":888,"x_min":207,"x_max":692,"o":"m 283 456 l 607 563 q 636 585 625 569 q 647 628 647 601 l 647 754 q 611 840 647 818 q 513 861 575 861 l 233 861 l 233 875 l 513 875 q 622 849 583 875 q 661 754 661 824 l 661 628 q 648 578 661 596 q 613 550 635 560 l 289 443 q 235 409 250 429 q 219 342 219 389 l 219 139 l 692 139 l 692 125 l 207 125 l 207 342 q 224 417 207 393 q 283 456 240 442 z "},"3":{"ha":885,"x_min":193,"x_max":681,"o":"m 306 499 l 306 513 l 421 513 q 504 523 474 513 q 551 551 535 533 q 571 591 567 568 q 575 639 575 614 l 575 733 q 542 824 575 788 q 407 861 508 861 l 193 861 l 193 875 l 407 875 q 500 863 464 875 q 556 831 536 851 q 582 785 575 811 q 589 728 589 758 l 589 639 q 574 562 589 600 q 497 510 560 524 l 519 510 q 643 471 606 510 q 681 360 681 432 l 681 264 q 674 208 681 233 q 648 164 667 182 q 593 135 629 146 q 499 125 557 125 l 193 125 l 193 139 l 499 139 q 635 173 603 139 q 667 264 667 207 l 667 360 q 631 464 667 429 q 517 499 596 499 l 306 499 z "},"4":{"ha":985,"x_min":239,"x_max":739,"o":"m 725 125 l 725 371 l 393 371 q 276 408 314 371 q 239 517 239 444 l 239 875 l 253 875 l 253 517 q 288 417 253 450 q 393 385 322 385 l 725 385 l 725 875 l 739 875 l 739 125 l 725 125 z "},"5":{"ha":899,"x_min":201,"x_max":688,"o":"m 201 125 l 201 139 l 529 139 q 640 168 607 139 q 674 261 674 197 l 674 383 q 640 477 674 449 q 542 506 606 506 l 242 506 l 242 875 l 664 875 l 664 861 l 256 861 l 256 519 l 542 519 q 651 487 614 519 q 688 383 688 454 l 688 261 q 651 158 688 190 q 529 125 615 125 l 201 125 z "},"6":{"ha":963,"x_min":236,"x_max":747,"o":"m 501 99 q 397 103 446 99 q 313 125 349 108 q 256 174 276 142 q 236 260 236 207 l 236 715 q 285 841 236 807 q 422 875 335 875 l 667 875 l 667 861 l 422 861 q 297 831 343 861 q 250 715 250 801 l 250 454 q 344 521 275 510 q 506 532 414 532 q 601 528 557 532 q 677 510 644 525 q 728 465 710 496 q 747 382 747 435 l 747 260 q 728 175 747 207 q 676 126 710 143 q 598 104 643 110 q 501 99 553 99 m 501 113 q 591 117 549 113 q 665 136 633 121 q 715 181 697 151 q 733 260 733 211 l 733 382 q 715 460 733 432 q 665 501 696 488 q 593 516 635 514 q 506 518 551 518 q 414 517 460 518 q 332 503 368 515 q 273 463 296 490 q 250 386 250 436 l 250 260 q 270 180 250 210 q 324 135 290 150 q 404 117 358 121 q 501 113 450 113 z "},"7":{"ha":871,"x_min":178,"x_max":649,"o":"m 310 125 l 310 333 q 323 383 310 365 q 358 411 336 401 l 594 506 q 625 528 615 514 q 635 569 635 543 l 635 861 l 178 861 l 178 875 l 649 875 l 649 569 q 637 519 649 538 q 600 492 625 501 l 364 397 q 335 375 346 390 q 324 333 324 360 l 324 125 l 310 125 z "},"8":{"ha":988,"x_min":213,"x_max":775,"o":"m 494 93 q 356 104 411 93 q 269 135 301 115 q 225 181 238 154 q 213 240 213 208 l 213 368 q 251 460 213 421 q 389 513 289 499 q 292 553 322 524 q 263 632 263 583 l 263 775 q 318 872 263 839 q 494 906 374 906 q 670 871 615 906 q 725 764 725 836 l 725 632 q 696 553 725 583 q 600 513 667 524 q 738 460 700 499 q 775 369 775 422 l 775 240 q 763 181 775 208 q 719 135 750 154 q 633 104 688 115 q 494 93 578 93 m 276 775 l 276 632 q 331 546 276 572 q 494 519 385 519 q 658 546 604 519 q 711 632 711 572 l 711 764 q 657 862 711 832 q 494 892 603 892 q 331 863 386 892 q 276 775 276 835 m 226 368 l 226 240 q 285 144 226 181 q 494 107 344 107 q 703 144 644 107 q 761 240 761 181 l 761 369 q 702 467 761 429 q 494 506 643 506 q 286 467 346 506 q 226 368 226 428 z "},"9":{"ha":963,"x_min":215,"x_max":726,"o":"m 296 125 l 296 139 l 540 139 q 666 169 619 139 q 713 285 713 199 l 713 546 q 618 479 688 490 q 457 468 549 468 q 362 472 406 468 q 285 490 318 475 q 234 535 253 504 q 215 618 215 565 l 215 740 q 234 825 215 793 q 286 874 253 857 q 365 896 319 890 q 461 901 410 901 q 565 897 517 901 q 650 875 614 892 q 706 826 686 858 q 726 740 726 793 l 726 285 q 677 159 726 193 q 540 125 628 125 l 296 125 m 457 482 q 549 483 503 482 q 631 497 594 485 q 690 537 667 510 q 713 614 713 564 l 713 740 q 692 820 713 790 q 638 865 672 850 q 558 883 604 879 q 461 888 513 888 q 372 883 414 888 q 297 864 329 879 q 247 819 265 849 q 229 740 229 789 l 229 618 q 248 540 229 568 q 297 499 267 513 q 369 484 328 486 q 457 482 411 482 z "}," ":{"ha":313,"x_min":0,"x_max":0,"o":""},"A":{"ha":1014,"x_min":222,"x_max":792,"o":"m 236 421 l 236 378 l 778 378 l 778 421 q 772 490 778 458 q 756 550 765 522 l 660 776 q 628 837 644 813 q 572 861 611 861 l 436 861 q 378 837 394 861 q 347 778 361 813 l 258 550 q 242 490 249 522 q 236 421 236 458 m 778 125 l 778 364 l 236 364 l 236 125 l 222 125 l 222 421 q 228 492 222 460 q 246 556 235 525 l 335 783 q 369 849 350 822 q 436 875 389 875 l 572 875 q 637 849 618 875 q 672 782 656 822 l 768 556 q 785 492 779 525 q 792 421 792 460 l 792 125 l 778 125 z "},"À":{"ha":1014,"x_min":222,"x_max":792,"o":"m 236 421 l 236 378 l 778 378 l 778 421 q 772 490 778 458 q 756 550 765 522 l 660 776 q 628 837 644 813 q 572 861 611 861 l 436 861 q 378 837 394 861 q 347 778 361 813 l 258 550 q 242 490 249 522 q 236 421 236 458 m 778 125 l 778 364 l 236 364 l 236 125 l 222 125 l 222 421 q 228 492 222 460 q 246 556 235 525 l 335 783 q 369 849 350 822 q 436 875 389 875 l 572 875 q 637 849 618 875 q 672 782 656 822 l 768 556 q 785 492 779 525 q 792 421 792 460 l 792 125 l 778 125 m 340 1204 l 340 1218 l 672 1176 l 672 1163 l 340 1204 z "},"Á":{"ha":1014,"x_min":222,"x_max":792,"o":"m 236 421 l 236 378 l 778 378 l 778 421 q 772 490 778 458 q 756 550 765 522 l 660 776 q 628 837 644 813 q 572 861 611 861 l 436 861 q 378 837 394 861 q 347 778 361 813 l 258 550 q 242 490 249 522 q 236 421 236 458 m 778 125 l 778 364 l 236 364 l 236 125 l 222 125 l 222 421 q 228 492 222 460 q 246 556 235 525 l 335 783 q 369 849 350 822 q 436 875 389 875 l 572 875 q 637 849 618 875 q 672 782 656 822 l 768 556 q 785 492 779 525 q 792 421 792 460 l 792 125 l 778 125 m 340 1176 l 672 1218 l 672 1204 l 340 1163 l 340 1176 z "},"Â":{"ha":1014,"x_min":222,"x_max":792,"o":"m 236 421 l 236 378 l 778 378 l 778 421 q 772 490 778 458 q 756 550 765 522 l 660 776 q 628 837 644 813 q 572 861 611 861 l 436 861 q 378 837 394 861 q 347 778 361 813 l 258 550 q 242 490 249 522 q 236 421 236 458 m 778 125 l 778 364 l 236 364 l 236 125 l 222 125 l 222 421 q 228 492 222 460 q 246 556 235 525 l 335 783 q 369 849 350 822 q 436 875 389 875 l 572 875 q 637 849 618 875 q 672 782 656 822 l 768 556 q 785 492 779 525 q 792 421 792 460 l 792 125 l 778 125 m 671 1181 l 550 1219 q 530 1225 540 1222 q 506 1228 519 1228 q 481 1225 492 1228 q 461 1219 471 1222 l 340 1181 l 340 1196 l 456 1233 q 479 1239 468 1236 q 506 1242 490 1242 q 532 1239 521 1242 q 556 1233 543 1236 l 671 1196 l 671 1181 z "},"Ã":{"ha":1014,"x_min":222,"x_max":792,"o":"m 236 421 l 236 378 l 778 378 l 778 421 q 772 490 778 458 q 756 550 765 522 l 660 776 q 628 837 644 813 q 572 861 611 861 l 436 861 q 378 837 394 861 q 347 778 361 813 l 258 550 q 242 490 249 522 q 236 421 236 458 m 778 125 l 778 364 l 236 364 l 236 125 l 222 125 l 222 421 q 228 492 222 460 q 246 556 235 525 l 335 783 q 369 849 350 822 q 436 875 389 875 l 572 875 q 637 849 618 875 q 672 782 656 822 l 768 556 q 785 492 779 525 q 792 421 792 460 l 792 125 l 778 125 m 671 1168 l 671 1154 q 611 1154 643 1151 q 526 1165 579 1157 l 504 1168 l 465 1174 q 391 1182 419 1181 q 340 1179 363 1183 l 340 1194 q 392 1195 364 1197 q 468 1188 421 1193 l 507 1182 l 529 1179 q 613 1168 582 1171 q 671 1168 643 1165 z "},"Ä":{"ha":1014,"x_min":222,"x_max":792,"o":"m 236 421 l 236 378 l 778 378 l 778 421 q 772 490 778 458 q 756 550 765 522 l 660 776 q 628 837 644 813 q 572 861 611 861 l 436 861 q 378 837 394 861 q 347 778 361 813 l 258 550 q 242 490 249 522 q 236 421 236 458 m 778 125 l 778 364 l 236 364 l 236 125 l 222 125 l 222 421 q 228 492 222 460 q 246 556 235 525 l 335 783 q 369 849 350 822 q 436 875 389 875 l 572 875 q 637 849 618 875 q 672 782 656 822 l 768 556 q 785 492 779 525 q 792 421 792 460 l 792 125 l 778 125 m 332 1153 l 318 1153 l 318 1218 l 332 1218 l 332 1153 m 690 1153 l 676 1153 l 676 1218 l 690 1218 l 690 1153 z "},"Å":{"ha":1014,"x_min":222,"x_max":792,"o":"m 313 1056 l 313 1118 q 320 1175 313 1149 q 349 1219 328 1201 q 408 1248 369 1238 q 508 1258 447 1258 q 669 1219 632 1258 q 707 1118 707 1179 l 707 1056 q 669 955 707 993 q 508 917 632 917 q 408 926 447 917 q 349 955 369 936 q 320 999 328 974 q 313 1056 313 1025 m 508 1244 q 362 1210 397 1244 q 326 1118 326 1176 l 326 1056 q 362 964 326 997 q 508 931 397 931 q 656 964 619 931 q 693 1056 693 997 l 693 1118 q 656 1210 693 1175 q 508 1244 619 1244 m 236 421 l 236 378 l 778 378 l 778 421 q 772 490 778 458 q 756 550 765 522 l 660 776 q 628 837 644 813 q 572 861 611 861 l 436 861 q 378 837 394 861 q 347 778 361 813 l 258 550 q 242 490 249 522 q 236 421 236 458 m 778 125 l 778 364 l 236 364 l 236 125 l 222 125 l 222 421 q 228 492 222 460 q 246 556 235 525 l 335 783 q 369 849 350 822 q 436 875 389 875 l 572 875 q 637 849 618 875 q 672 782 656 822 l 768 556 q 785 492 779 525 q 792 421 792 460 l 792 125 l 778 125 z "},"Ā":{"ha":1014,"x_min":222,"x_max":792,"o":"m 236 421 l 236 378 l 778 378 l 778 421 q 772 490 778 458 q 756 550 765 522 l 660 776 q 628 837 644 813 q 572 861 611 861 l 436 861 q 378 837 394 861 q 347 778 361 813 l 258 550 q 242 490 249 522 q 236 421 236 458 m 778 125 l 778 364 l 236 364 l 236 125 l 222 125 l 222 421 q 228 492 222 460 q 246 556 235 525 l 335 783 q 369 849 350 822 q 436 875 389 875 l 572 875 q 637 849 618 875 q 672 782 656 822 l 768 556 q 785 492 779 525 q 792 421 792 460 l 792 125 l 778 125 m 340 1176 l 672 1176 l 672 1163 l 340 1163 l 340 1176 z "},"Ă":{"ha":1014,"x_min":222,"x_max":792,"o":"m 236 421 l 236 378 l 778 378 l 778 421 q 772 490 778 458 q 756 550 765 522 l 660 776 q 628 837 644 813 q 572 861 611 861 l 436 861 q 378 837 394 861 q 347 778 361 813 l 258 550 q 242 490 249 522 q 236 421 236 458 m 778 125 l 778 364 l 236 364 l 236 125 l 222 125 l 222 421 q 228 492 222 460 q 246 556 235 525 l 335 783 q 369 849 350 822 q 436 875 389 875 l 572 875 q 637 849 618 875 q 672 782 656 822 l 768 556 q 785 492 779 525 q 792 421 792 460 l 792 125 l 778 125 m 693 1260 l 707 1260 l 707 1247 q 699 1208 707 1228 q 671 1172 692 1188 q 610 1146 650 1156 q 506 1136 569 1136 q 403 1146 442 1136 q 344 1172 364 1156 q 317 1208 324 1188 q 311 1247 311 1228 l 311 1260 l 325 1260 l 325 1247 q 359 1180 325 1210 q 506 1150 393 1150 q 656 1180 618 1150 q 693 1247 693 1210 l 693 1260 z "},"Ą":{"ha":1014,"x_min":222,"x_max":814,"o":"m 814 -147 l 814 -161 l 781 -161 q 715 -135 729 -161 q 710 -57 701 -108 l 726 58 q 740 106 732 92 q 778 136 749 119 l 778 364 l 236 364 l 236 125 l 222 125 l 222 421 q 228 492 222 460 q 246 556 235 525 l 335 783 q 369 849 350 822 q 436 875 389 875 l 572 875 q 637 849 618 875 q 672 782 656 822 l 768 556 q 785 492 779 525 q 792 421 792 460 l 792 125 l 786 125 q 752 100 760 111 q 740 58 744 89 l 724 -60 q 728 -124 718 -101 q 781 -147 738 -147 l 814 -147 m 236 421 l 236 378 l 778 378 l 778 421 q 772 490 778 458 q 756 550 765 522 l 660 776 q 628 837 644 813 q 572 861 611 861 l 436 861 q 378 837 394 861 q 347 778 361 813 l 258 550 q 242 490 249 522 q 236 421 236 458 z "},"B":{"ha":1007,"x_min":250,"x_max":806,"o":"m 624 125 l 250 125 l 250 875 l 532 875 q 625 863 589 875 q 681 831 661 851 q 707 785 700 811 q 714 728 714 758 l 714 639 q 699 563 714 597 q 625 513 685 528 q 718 501 682 513 q 774 467 754 489 q 799 417 793 446 q 806 353 806 388 l 806 264 q 799 208 806 233 q 773 164 792 182 q 718 135 754 146 q 624 125 682 125 m 532 861 l 264 861 l 264 513 l 532 513 q 622 523 589 513 q 673 551 656 533 q 695 591 690 568 q 700 639 700 614 l 700 728 q 668 822 700 783 q 532 861 636 861 m 625 499 l 264 499 l 264 139 l 624 139 q 760 173 728 139 q 792 264 792 207 l 792 353 q 760 457 792 415 q 625 499 729 499 z "},"C":{"ha":872,"x_min":231,"x_max":685,"o":"m 685 139 l 685 125 l 453 125 q 274 167 318 125 q 231 304 231 208 l 231 693 q 275 833 231 792 q 453 875 319 875 l 685 875 l 685 861 l 453 861 q 288 823 331 861 q 244 693 244 785 l 244 304 q 286 176 244 214 q 453 139 328 139 l 685 139 z "},"Ç":{"ha":872,"x_min":231,"x_max":685,"o":"m 685 125 l 563 125 l 499 -50 l 485 -50 l 547 125 l 453 125 q 274 167 318 125 q 231 304 231 208 l 231 693 q 275 833 231 792 q 453 875 319 875 l 685 875 l 685 861 l 453 861 q 288 823 331 861 q 244 693 244 785 l 244 304 q 286 176 244 214 q 453 139 328 139 l 685 139 l 685 125 z "},"Ć":{"ha":872,"x_min":231,"x_max":686,"o":"m 685 139 l 685 125 l 453 125 q 274 167 318 125 q 231 304 231 208 l 231 693 q 275 833 231 792 q 453 875 319 875 l 685 875 l 685 861 l 453 861 q 288 823 331 861 q 244 693 244 785 l 244 304 q 286 176 244 214 q 453 139 328 139 l 685 139 m 354 1176 l 686 1218 l 686 1204 l 354 1163 l 354 1176 z "},"Ĉ":{"ha":872,"x_min":231,"x_max":685,"o":"m 685 139 l 685 125 l 453 125 q 274 167 318 125 q 231 304 231 208 l 231 693 q 275 833 231 792 q 453 875 319 875 l 685 875 l 685 861 l 453 861 q 288 823 331 861 q 244 693 244 785 l 244 304 q 286 176 244 214 q 453 139 328 139 l 685 139 m 643 1181 l 522 1219 q 502 1225 513 1222 q 478 1228 492 1228 q 453 1225 464 1228 q 433 1219 443 1222 l 313 1181 l 313 1196 l 428 1233 q 451 1239 440 1236 q 478 1242 463 1242 q 504 1239 493 1242 q 528 1233 515 1236 l 643 1196 l 643 1181 z "},"Ċ":{"ha":872,"x_min":231,"x_max":685,"o":"m 685 139 l 685 125 l 453 125 q 274 167 318 125 q 231 304 231 208 l 231 693 q 275 833 231 792 q 453 875 319 875 l 685 875 l 685 861 l 453 861 q 288 823 331 861 q 244 693 244 785 l 244 304 q 286 176 244 214 q 453 139 328 139 l 685 139 m 501 1153 l 488 1153 l 488 1235 l 501 1235 l 501 1153 z "},"Č":{"ha":872,"x_min":231,"x_max":685,"o":"m 685 139 l 685 125 l 453 125 q 274 167 318 125 q 231 304 231 208 l 231 693 q 275 833 231 792 q 453 875 319 875 l 685 875 l 685 861 l 453 861 q 288 823 331 861 q 244 693 244 785 l 244 304 q 286 176 244 214 q 453 139 328 139 l 685 139 m 313 1221 l 433 1182 q 453 1176 443 1179 q 478 1174 464 1174 q 502 1176 492 1174 q 522 1182 513 1179 l 643 1221 l 643 1206 l 528 1168 q 504 1163 515 1165 q 478 1160 493 1160 q 451 1163 463 1160 q 428 1168 440 1165 l 313 1206 l 313 1221 z "},"D":{"ha":1036,"x_min":247,"x_max":806,"o":"m 247 125 l 247 875 l 583 875 q 698 860 654 875 q 765 819 742 844 q 797 758 789 793 q 806 682 806 722 l 806 314 q 798 239 806 274 q 767 179 790 204 q 699 140 743 154 q 583 125 654 125 l 247 125 m 583 861 l 261 861 l 261 139 l 583 139 q 691 152 650 139 q 754 188 732 165 q 784 244 776 211 q 792 314 792 276 l 792 682 q 783 753 792 719 q 753 810 775 786 q 690 847 731 833 q 583 861 649 861 z "},"Ď":{"ha":1036,"x_min":247,"x_max":806,"o":"m 247 125 l 247 875 l 583 875 q 698 860 654 875 q 765 819 742 844 q 797 758 789 793 q 806 682 806 722 l 806 314 q 798 239 806 274 q 767 179 790 204 q 699 140 743 154 q 583 125 654 125 l 247 125 m 583 861 l 261 861 l 261 139 l 583 139 q 691 152 650 139 q 754 188 732 165 q 784 244 776 211 q 792 314 792 276 l 792 682 q 783 753 792 719 q 753 810 775 786 q 690 847 731 833 q 583 861 649 861 m 351 1221 l 472 1182 q 492 1176 482 1179 q 517 1174 503 1174 q 541 1176 531 1174 q 561 1182 551 1179 l 682 1221 l 682 1206 l 567 1168 q 543 1163 554 1165 q 517 1160 532 1160 q 490 1163 501 1160 q 467 1168 479 1165 l 351 1206 l 351 1221 z "},"E":{"ha":908,"x_min":247,"x_max":715,"o":"m 715 139 l 715 125 l 247 125 l 247 875 l 715 875 l 715 861 l 261 861 l 261 513 l 603 513 l 603 499 l 261 499 l 261 139 l 715 139 z "},"È":{"ha":908,"x_min":247,"x_max":715,"o":"m 715 139 l 715 125 l 247 125 l 247 875 l 715 875 l 715 861 l 261 861 l 261 513 l 603 513 l 603 499 l 261 499 l 261 139 l 715 139 m 288 1204 l 288 1218 l 619 1176 l 619 1163 l 288 1204 z "},"É":{"ha":908,"x_min":247,"x_max":715,"o":"m 715 139 l 715 125 l 247 125 l 247 875 l 715 875 l 715 861 l 261 861 l 261 513 l 603 513 l 603 499 l 261 499 l 261 139 l 715 139 m 329 1176 l 661 1218 l 661 1204 l 329 1163 l 329 1176 z "},"Ê":{"ha":908,"x_min":247,"x_max":715,"o":"m 715 139 l 715 125 l 247 125 l 247 875 l 715 875 l 715 861 l 261 861 l 261 513 l 603 513 l 603 499 l 261 499 l 261 139 l 715 139 m 632 1181 l 511 1219 q 491 1225 501 1222 q 467 1228 481 1228 q 442 1225 453 1228 q 422 1219 432 1222 l 301 1181 l 301 1196 l 417 1233 q 440 1239 429 1236 q 467 1242 451 1242 q 493 1239 482 1242 q 517 1233 504 1236 l 632 1196 l 632 1181 z "},"Ë":{"ha":908,"x_min":247,"x_max":715,"o":"m 715 139 l 715 125 l 247 125 l 247 875 l 715 875 l 715 861 l 261 861 l 261 513 l 603 513 l 603 499 l 261 499 l 261 139 l 715 139 m 307 1153 l 293 1153 l 293 1218 l 307 1218 l 307 1153 m 665 1153 l 651 1153 l 651 1218 l 665 1218 l 665 1153 z "},"Ē":{"ha":908,"x_min":247,"x_max":715,"o":"m 715 139 l 715 125 l 247 125 l 247 875 l 715 875 l 715 861 l 261 861 l 261 513 l 603 513 l 603 499 l 261 499 l 261 139 l 715 139 m 301 1176 l 633 1176 l 633 1163 l 301 1163 l 301 1176 z "},"Ĕ":{"ha":908,"x_min":247,"x_max":715,"o":"m 715 139 l 715 125 l 247 125 l 247 875 l 715 875 l 715 861 l 261 861 l 261 513 l 603 513 l 603 499 l 261 499 l 261 139 l 715 139 m 668 1260 l 682 1260 l 682 1247 q 674 1208 682 1228 q 646 1172 667 1188 q 585 1146 625 1156 q 481 1136 544 1136 q 378 1146 417 1136 q 319 1172 339 1156 q 292 1208 299 1188 q 286 1247 286 1228 l 286 1260 l 300 1260 l 300 1247 q 334 1180 300 1210 q 481 1150 368 1150 q 631 1180 593 1150 q 668 1247 668 1210 l 668 1260 z "},"Ė":{"ha":908,"x_min":247,"x_max":715,"o":"m 715 139 l 715 125 l 247 125 l 247 875 l 715 875 l 715 861 l 261 861 l 261 513 l 603 513 l 603 499 l 261 499 l 261 139 l 715 139 m 460 1153 l 446 1153 l 446 1235 l 460 1235 l 460 1153 z "},"Ę":{"ha":908,"x_min":247,"x_max":715,"o":"m 715 -147 l 715 -161 l 682 -161 q 617 -135 631 -161 q 611 -57 603 -108 l 628 58 q 638 99 632 85 q 661 125 644 113 l 247 125 l 247 875 l 715 875 l 715 861 l 261 861 l 261 513 l 603 513 l 603 499 l 261 499 l 261 139 l 715 139 l 715 125 l 688 125 q 653 100 661 111 q 642 58 646 89 l 625 -60 q 629 -124 619 -101 q 682 -147 639 -147 l 715 -147 z "},"Ě":{"ha":908,"x_min":247,"x_max":715,"o":"m 715 139 l 715 125 l 247 125 l 247 875 l 715 875 l 715 861 l 261 861 l 261 513 l 603 513 l 603 499 l 261 499 l 261 139 l 715 139 m 311 1221 l 432 1182 q 452 1176 442 1179 q 476 1174 463 1174 q 501 1176 490 1174 q 521 1182 511 1179 l 642 1221 l 642 1206 l 526 1168 q 503 1163 514 1165 q 476 1160 492 1160 q 450 1163 461 1160 q 426 1168 439 1165 l 311 1206 l 311 1221 z "},"F":{"ha":858,"x_min":247,"x_max":690,"o":"m 247 125 l 247 875 l 690 875 l 690 861 l 261 861 l 261 464 l 578 464 l 578 450 l 261 450 l 261 125 l 247 125 z "},"G":{"ha":983,"x_min":232,"x_max":758,"o":"m 482 125 q 357 135 406 125 q 281 166 308 144 q 242 222 253 188 q 232 304 232 256 l 232 693 q 276 833 232 792 q 454 875 321 875 l 694 875 l 694 861 l 454 861 q 289 823 332 861 q 246 693 246 785 l 246 304 q 294 176 246 214 q 482 139 342 139 l 744 139 l 744 404 l 758 404 l 758 125 l 482 125 z "},"Ĝ":{"ha":983,"x_min":232,"x_max":758,"o":"m 482 125 q 357 135 406 125 q 281 166 308 144 q 242 222 253 188 q 232 304 232 256 l 232 693 q 276 833 232 792 q 454 875 321 875 l 694 875 l 694 861 l 454 861 q 289 823 332 861 q 246 693 246 785 l 246 304 q 294 176 246 214 q 482 139 342 139 l 744 139 l 744 404 l 758 404 l 758 125 l 482 125 m 693 1181 l 572 1219 q 552 1225 563 1222 q 528 1228 542 1228 q 503 1225 514 1228 q 483 1219 493 1222 l 363 1181 l 363 1196 l 478 1233 q 501 1239 490 1236 q 528 1242 513 1242 q 554 1239 543 1242 q 578 1233 565 1236 l 693 1196 l 693 1181 z "},"Ğ":{"ha":983,"x_min":232,"x_max":758,"o":"m 482 125 q 357 135 406 125 q 281 166 308 144 q 242 222 253 188 q 232 304 232 256 l 232 693 q 276 833 232 792 q 454 875 321 875 l 694 875 l 694 861 l 454 861 q 289 823 332 861 q 246 693 246 785 l 246 304 q 294 176 246 214 q 482 139 342 139 l 744 139 l 744 404 l 758 404 l 758 125 l 482 125 m 706 1260 l 719 1260 l 719 1247 q 712 1208 719 1228 q 683 1172 704 1188 q 622 1146 663 1156 q 518 1136 582 1136 q 415 1146 454 1136 q 356 1172 376 1156 q 330 1208 336 1188 q 324 1247 324 1228 l 324 1260 l 338 1260 l 338 1247 q 372 1180 338 1210 q 518 1150 406 1150 q 668 1180 631 1150 q 706 1247 706 1210 l 706 1260 z "},"Ġ":{"ha":983,"x_min":232,"x_max":758,"o":"m 482 125 q 357 135 406 125 q 281 166 308 144 q 242 222 253 188 q 232 304 232 256 l 232 693 q 276 833 232 792 q 454 875 321 875 l 694 875 l 694 861 l 454 861 q 289 823 332 861 q 246 693 246 785 l 246 304 q 294 176 246 214 q 482 139 342 139 l 744 139 l 744 404 l 758 404 l 758 125 l 482 125 m 528 1153 l 514 1153 l 514 1235 l 528 1235 l 528 1153 z "},"Ģ":{"ha":983,"x_min":232,"x_max":758,"o":"m 482 125 q 357 135 406 125 q 281 166 308 144 q 242 222 253 188 q 232 304 232 256 l 232 693 q 276 833 232 792 q 454 875 321 875 l 694 875 l 694 861 l 454 861 q 289 823 332 861 q 246 693 246 785 l 246 304 q 294 176 246 214 q 482 139 342 139 l 744 139 l 744 404 l 758 404 l 758 125 l 482 125 m 601 -183 l 601 -318 q 572 -410 601 -382 q 486 -437 542 -437 l 438 -437 l 438 -424 l 486 -424 q 562 -399 536 -424 q 588 -318 588 -374 l 588 -197 l 438 -197 l 438 -183 l 601 -183 z "},"H":{"ha":1054,"x_min":246,"x_max":807,"o":"m 246 125 l 246 875 l 260 875 l 260 507 l 793 507 l 793 875 l 807 875 l 807 125 l 793 125 l 793 493 l 260 493 l 260 125 l 246 125 z "},"Ĥ":{"ha":1054,"x_min":246,"x_max":807,"o":"m 246 125 l 246 875 l 260 875 l 260 507 l 793 507 l 793 875 l 807 875 l 807 125 l 793 125 l 793 493 l 260 493 l 260 125 l 246 125 m 690 1181 l 569 1219 q 549 1225 560 1222 q 525 1228 539 1228 q 501 1225 511 1228 q 481 1219 490 1222 l 360 1181 l 360 1196 l 475 1233 q 499 1239 488 1236 q 525 1242 510 1242 q 551 1239 540 1242 q 575 1233 563 1236 l 690 1196 l 690 1181 z "},"I":{"ha":840,"x_min":199,"x_max":640,"o":"m 640 125 l 199 125 l 199 139 l 414 139 l 414 861 l 199 861 l 199 875 l 640 875 l 640 861 l 428 861 l 428 139 l 640 139 l 640 125 z "},"Ì":{"ha":840,"x_min":199,"x_max":640,"o":"m 640 125 l 199 125 l 199 139 l 414 139 l 414 861 l 199 861 l 199 875 l 640 875 l 640 861 l 428 861 l 428 139 l 640 139 l 640 125 m 253 1204 l 253 1218 l 585 1176 l 585 1163 l 253 1204 z "},"Í":{"ha":840,"x_min":199,"x_max":640,"o":"m 640 125 l 199 125 l 199 139 l 414 139 l 414 861 l 199 861 l 199 875 l 640 875 l 640 861 l 428 861 l 428 139 l 640 139 l 640 125 m 253 1176 l 585 1218 l 585 1204 l 253 1163 l 253 1176 z "},"Î":{"ha":840,"x_min":199,"x_max":640,"o":"m 640 125 l 199 125 l 199 139 l 414 139 l 414 861 l 199 861 l 199 875 l 640 875 l 640 861 l 428 861 l 428 139 l 640 139 l 640 125 m 583 1181 l 463 1219 q 442 1225 453 1222 q 418 1228 432 1228 q 394 1225 404 1228 q 374 1219 383 1222 l 253 1181 l 253 1196 l 368 1233 q 392 1239 381 1236 q 418 1242 403 1242 q 444 1239 433 1242 q 468 1233 456 1236 l 583 1196 l 583 1181 z "},"Ï":{"ha":840,"x_min":199,"x_max":640,"o":"m 640 125 l 199 125 l 199 139 l 414 139 l 414 861 l 199 861 l 199 875 l 640 875 l 640 861 l 428 861 l 428 139 l 640 139 l 640 125 m 244 1153 l 231 1153 l 231 1218 l 244 1218 l 244 1153 m 603 1153 l 589 1153 l 589 1218 l 603 1218 l 603 1153 z "},"Ĩ":{"ha":840,"x_min":199,"x_max":640,"o":"m 640 125 l 199 125 l 199 139 l 414 139 l 414 861 l 199 861 l 199 875 l 640 875 l 640 861 l 428 861 l 428 139 l 640 139 l 640 125 m 583 1168 l 583 1154 q 524 1154 556 1151 q 439 1165 492 1157 l 417 1168 l 378 1174 q 303 1182 332 1181 q 253 1179 275 1183 l 253 1194 q 305 1195 276 1197 q 381 1188 333 1193 l 419 1182 l 442 1179 q 525 1168 494 1171 q 583 1168 556 1165 z "},"Ī":{"ha":840,"x_min":199,"x_max":640,"o":"m 640 125 l 199 125 l 199 139 l 414 139 l 414 861 l 199 861 l 199 875 l 640 875 l 640 861 l 428 861 l 428 139 l 640 139 l 640 125 m 253 1176 l 585 1176 l 585 1163 l 253 1163 l 253 1176 z "},"Ĭ":{"ha":840,"x_min":199,"x_max":640,"o":"m 640 125 l 199 125 l 199 139 l 414 139 l 414 861 l 199 861 l 199 875 l 640 875 l 640 861 l 428 861 l 428 139 l 640 139 l 640 125 m 606 1260 l 619 1260 l 619 1247 q 612 1208 619 1228 q 583 1172 604 1188 q 522 1146 563 1156 q 418 1136 482 1136 q 315 1146 354 1136 q 256 1172 276 1156 q 230 1208 236 1188 q 224 1247 224 1228 l 224 1260 l 238 1260 l 238 1247 q 272 1180 238 1210 q 418 1150 306 1150 q 568 1180 531 1150 q 606 1247 606 1210 l 606 1260 z "},"Į":{"ha":840,"x_min":199,"x_max":640,"o":"m 640 -147 l 640 -161 l 607 -161 q 542 -135 556 -161 q 536 -57 528 -108 l 553 58 q 563 99 557 85 q 586 125 569 113 l 199 125 l 199 139 l 414 139 l 414 861 l 199 861 l 199 875 l 640 875 l 640 861 l 428 861 l 428 139 l 640 139 l 640 125 l 613 125 q 578 100 586 111 q 567 58 571 89 l 550 -60 q 554 -124 544 -101 q 607 -147 564 -147 l 640 -147 z "},"İ":{"ha":840,"x_min":199,"x_max":640,"o":"m 640 125 l 199 125 l 199 139 l 414 139 l 414 861 l 199 861 l 199 875 l 640 875 l 640 861 l 428 861 l 428 139 l 640 139 l 640 125 m 428 1153 l 414 1153 l 414 1235 l 428 1235 l 428 1153 z "},"J":{"ha":956,"x_min":201,"x_max":714,"o":"m 700 875 l 714 875 l 714 296 q 662 161 714 214 q 463 108 610 108 q 334 122 385 108 q 254 160 283 136 q 213 219 225 185 q 201 296 201 254 l 201 406 l 215 406 l 215 296 q 267 169 215 217 q 463 122 319 122 q 650 170 600 122 q 700 296 700 218 l 700 875 z "},"Ĵ":{"ha":956,"x_min":201,"x_max":861,"o":"m 700 875 l 714 875 l 714 296 q 662 161 714 214 q 463 108 610 108 q 334 122 385 108 q 254 160 283 136 q 213 219 225 185 q 201 296 201 254 l 201 406 l 215 406 l 215 296 q 267 169 215 217 q 463 122 319 122 q 650 170 600 122 q 700 296 700 218 l 700 875 m 861 1181 l 740 1219 q 720 1225 731 1222 q 696 1228 710 1228 q 672 1225 682 1228 q 651 1219 661 1222 l 531 1181 l 531 1196 l 646 1233 q 669 1239 658 1236 q 696 1242 681 1242 q 722 1239 711 1242 q 746 1233 733 1236 l 861 1196 l 861 1181 z "},"K":{"ha":1036,"x_min":247,"x_max":803,"o":"m 261 125 l 247 125 l 247 875 l 261 875 l 261 506 l 563 506 l 722 875 l 738 875 l 578 506 l 635 506 q 761 474 719 506 q 803 369 803 442 l 803 125 l 789 125 l 789 369 q 750 464 789 436 q 635 492 711 492 l 261 492 l 261 125 z "},"Ķ":{"ha":1036,"x_min":247,"x_max":803,"o":"m 261 125 l 247 125 l 247 875 l 261 875 l 261 506 l 563 506 l 722 875 l 738 875 l 578 506 l 635 506 q 761 474 719 506 q 803 369 803 442 l 803 125 l 789 125 l 789 369 q 750 464 789 436 q 635 492 711 492 l 261 492 l 261 125 m 600 -183 l 600 -318 q 570 -410 600 -382 q 485 -437 540 -437 l 436 -437 l 436 -424 l 485 -424 q 560 -399 535 -424 q 586 -318 586 -374 l 586 -197 l 436 -197 l 436 -183 l 600 -183 z "},"L":{"ha":965,"x_min":247,"x_max":758,"o":"m 247 125 l 247 875 l 261 875 l 261 139 l 744 139 l 744 413 l 758 413 l 758 125 l 247 125 z "},"Ĺ":{"ha":965,"x_min":221,"x_max":758,"o":"m 247 125 l 247 875 l 261 875 l 261 139 l 744 139 l 744 413 l 758 413 l 758 125 l 247 125 m 221 1176 l 553 1218 l 553 1204 l 221 1163 l 221 1176 z "},"Ļ":{"ha":965,"x_min":247,"x_max":758,"o":"m 247 125 l 247 875 l 261 875 l 261 139 l 744 139 l 744 413 l 758 413 l 758 125 l 247 125 m 588 -183 l 588 -318 q 558 -410 588 -382 q 472 -437 528 -437 l 424 -437 l 424 -424 l 472 -424 q 548 -399 522 -424 q 574 -318 574 -374 l 574 -197 l 424 -197 l 424 -183 l 588 -183 z "},"Ľ":{"ha":965,"x_min":247,"x_max":758,"o":"m 247 125 l 247 875 l 261 875 l 261 139 l 744 139 l 744 413 l 758 413 l 758 125 l 247 125 m 714 746 l 699 746 l 724 875 l 739 875 l 714 746 z "},"M":{"ha":1179,"x_min":243,"x_max":926,"o":"m 585 535 q 621 546 610 535 q 656 593 632 557 l 825 851 q 844 870 833 865 q 865 875 854 875 l 889 875 q 917 865 908 875 q 926 832 926 854 l 926 125 l 913 125 l 913 832 q 908 852 913 843 q 889 861 903 861 l 868 861 q 851 858 858 861 q 836 842 844 856 l 667 586 q 628 535 642 549 q 585 521 615 521 q 541 535 554 521 q 503 586 528 549 l 333 842 q 317 858 325 856 q 300 861 310 861 l 279 861 q 261 852 265 861 q 257 832 257 843 l 257 125 l 243 125 l 243 832 q 252 865 243 854 q 279 875 261 875 l 303 875 q 325 870 314 875 q 344 851 336 865 l 514 593 q 549 546 538 557 q 585 535 560 535 z "},"N":{"ha":1046,"x_min":242,"x_max":804,"o":"m 279 864 l 790 289 l 790 875 l 804 875 l 804 125 l 790 125 l 790 268 l 265 857 q 262 860 264 858 q 258 861 260 861 q 256 860 257 861 q 256 857 256 858 l 256 125 l 242 125 l 242 860 q 247 872 242 868 q 258 876 253 876 q 268 874 264 876 q 279 864 272 871 z "},"Ñ":{"ha":1046,"x_min":242,"x_max":804,"o":"m 279 864 l 790 289 l 790 875 l 804 875 l 804 125 l 790 125 l 790 268 l 265 857 q 262 860 264 858 q 258 861 260 861 q 256 860 257 861 q 256 857 256 858 l 256 125 l 242 125 l 242 860 q 247 872 242 868 q 258 876 253 876 q 268 874 264 876 q 279 864 272 871 m 686 1168 l 686 1154 q 626 1154 658 1151 q 542 1165 594 1157 l 519 1168 l 481 1174 q 406 1182 435 1181 q 356 1179 378 1183 l 356 1194 q 408 1195 379 1197 q 483 1188 436 1193 l 522 1182 l 544 1179 q 628 1168 597 1171 q 686 1168 658 1165 z "},"Ń":{"ha":1046,"x_min":242,"x_max":804,"o":"m 279 864 l 790 289 l 790 875 l 804 875 l 804 125 l 790 125 l 790 268 l 265 857 q 262 860 264 858 q 258 861 260 861 q 256 860 257 861 q 256 857 256 858 l 256 125 l 242 125 l 242 860 q 247 872 242 868 q 258 876 253 876 q 268 874 264 876 q 279 864 272 871 m 369 1176 l 701 1218 l 701 1204 l 369 1163 l 369 1176 z "},"Ņ":{"ha":1046,"x_min":242,"x_max":804,"o":"m 279 864 l 790 289 l 790 875 l 804 875 l 804 125 l 790 125 l 790 268 l 265 857 q 262 860 264 858 q 258 861 260 861 q 256 860 257 861 q 256 857 256 858 l 256 125 l 242 125 l 242 860 q 247 872 242 868 q 258 876 253 876 q 268 874 264 876 q 279 864 272 871 m 604 -183 l 604 -318 q 574 -410 604 -382 q 489 -437 544 -437 l 440 -437 l 440 -424 l 489 -424 q 565 -399 539 -424 q 590 -318 590 -374 l 590 -197 l 440 -197 l 440 -183 l 604 -183 z "},"Ň":{"ha":1046,"x_min":242,"x_max":804,"o":"m 279 864 l 790 289 l 790 875 l 804 875 l 804 125 l 790 125 l 790 268 l 265 857 q 262 860 264 858 q 258 861 260 861 q 256 860 257 861 q 256 857 256 858 l 256 125 l 242 125 l 242 860 q 247 872 242 868 q 258 876 253 876 q 268 874 264 876 q 279 864 272 871 m 342 1221 l 463 1182 q 483 1176 472 1179 q 507 1174 493 1174 q 531 1176 521 1174 q 551 1182 542 1179 l 672 1221 l 672 1206 l 557 1168 q 533 1163 544 1165 q 507 1160 522 1160 q 481 1163 492 1160 q 457 1168 469 1165 l 342 1206 l 342 1221 z "},"O":{"ha":1024,"x_min":231,"x_max":792,"o":"m 792 294 q 732 159 792 211 q 510 107 672 107 q 289 159 347 107 q 231 294 231 211 l 231 704 q 289 840 231 788 q 510 892 347 892 q 732 840 672 892 q 792 704 792 788 l 792 294 m 244 294 q 300 169 244 217 q 510 121 356 121 q 721 169 664 121 q 778 294 778 217 l 778 704 q 721 830 778 782 q 510 878 664 878 q 300 830 356 878 q 244 704 244 782 l 244 294 z "},"Ò":{"ha":1024,"x_min":231,"x_max":792,"o":"m 792 294 q 732 159 792 211 q 510 107 672 107 q 289 159 347 107 q 231 294 231 211 l 231 704 q 289 840 231 788 q 510 892 347 892 q 732 840 672 892 q 792 704 792 788 l 792 294 m 244 294 q 300 169 244 217 q 510 121 356 121 q 721 169 664 121 q 778 294 778 217 l 778 704 q 721 830 778 782 q 510 878 664 878 q 300 830 356 878 q 244 704 244 782 l 244 294 m 344 1204 l 344 1218 l 676 1176 l 676 1163 l 344 1204 z "},"Ó":{"ha":1024,"x_min":231,"x_max":792,"o":"m 792 294 q 732 159 792 211 q 510 107 672 107 q 289 159 347 107 q 231 294 231 211 l 231 704 q 289 840 231 788 q 510 892 347 892 q 732 840 672 892 q 792 704 792 788 l 792 294 m 244 294 q 300 169 244 217 q 510 121 356 121 q 721 169 664 121 q 778 294 778 217 l 778 704 q 721 830 778 782 q 510 878 664 878 q 300 830 356 878 q 244 704 244 782 l 244 294 m 344 1176 l 676 1218 l 676 1204 l 344 1163 l 344 1176 z "},"Ô":{"ha":1024,"x_min":231,"x_max":792,"o":"m 792 294 q 732 159 792 211 q 510 107 672 107 q 289 159 347 107 q 231 294 231 211 l 231 704 q 289 840 231 788 q 510 892 347 892 q 732 840 672 892 q 792 704 792 788 l 792 294 m 244 294 q 300 169 244 217 q 510 121 356 121 q 721 169 664 121 q 778 294 778 217 l 778 704 q 721 830 778 782 q 510 878 664 878 q 300 830 356 878 q 244 704 244 782 l 244 294 m 675 1181 l 554 1219 q 534 1225 544 1222 q 510 1228 524 1228 q 485 1225 496 1228 q 465 1219 475 1222 l 344 1181 l 344 1196 l 460 1233 q 483 1239 472 1236 q 510 1242 494 1242 q 536 1239 525 1242 q 560 1233 547 1236 l 675 1196 l 675 1181 z "},"Õ":{"ha":1024,"x_min":231,"x_max":792,"o":"m 792 294 q 732 159 792 211 q 510 107 672 107 q 289 159 347 107 q 231 294 231 211 l 231 704 q 289 840 231 788 q 510 892 347 892 q 732 840 672 892 q 792 704 792 788 l 792 294 m 244 294 q 300 169 244 217 q 510 121 356 121 q 721 169 664 121 q 778 294 778 217 l 778 704 q 721 830 778 782 q 510 878 664 878 q 300 830 356 878 q 244 704 244 782 l 244 294 m 675 1168 l 675 1154 q 615 1154 647 1151 q 531 1165 583 1157 l 508 1168 l 469 1174 q 395 1182 424 1181 q 344 1179 367 1183 l 344 1194 q 397 1195 368 1197 q 472 1188 425 1193 l 511 1182 l 533 1179 q 617 1168 586 1171 q 675 1168 647 1165 z "},"Ö":{"ha":1024,"x_min":231,"x_max":792,"o":"m 792 294 q 732 159 792 211 q 510 107 672 107 q 289 159 347 107 q 231 294 231 211 l 231 704 q 289 840 231 788 q 510 892 347 892 q 732 840 672 892 q 792 704 792 788 l 792 294 m 244 294 q 300 169 244 217 q 510 121 356 121 q 721 169 664 121 q 778 294 778 217 l 778 704 q 721 830 778 782 q 510 878 664 878 q 300 830 356 878 q 244 704 244 782 l 244 294 m 336 1153 l 322 1153 l 322 1218 l 336 1218 l 336 1153 m 694 1153 l 681 1153 l 681 1218 l 694 1218 l 694 1153 z "},"Ō":{"ha":1024,"x_min":231,"x_max":792,"o":"m 792 294 q 732 159 792 211 q 510 107 672 107 q 289 159 347 107 q 231 294 231 211 l 231 704 q 289 840 231 788 q 510 892 347 892 q 732 840 672 892 q 792 704 792 788 l 792 294 m 244 294 q 300 169 244 217 q 510 121 356 121 q 721 169 664 121 q 778 294 778 217 l 778 704 q 721 830 778 782 q 510 878 664 878 q 300 830 356 878 q 244 704 244 782 l 244 294 m 344 1176 l 676 1176 l 676 1163 l 344 1163 l 344 1176 z "},"Ŏ":{"ha":1024,"x_min":231,"x_max":792,"o":"m 792 294 q 732 159 792 211 q 510 107 672 107 q 289 159 347 107 q 231 294 231 211 l 231 704 q 289 840 231 788 q 510 892 347 892 q 732 840 672 892 q 792 704 792 788 l 792 294 m 244 294 q 300 169 244 217 q 510 121 356 121 q 721 169 664 121 q 778 294 778 217 l 778 704 q 721 830 778 782 q 510 878 664 878 q 300 830 356 878 q 244 704 244 782 l 244 294 m 697 1260 l 711 1260 l 711 1247 q 703 1208 711 1228 q 675 1172 696 1188 q 614 1146 654 1156 q 510 1136 574 1136 q 407 1146 446 1136 q 348 1172 368 1156 q 322 1208 328 1188 q 315 1247 315 1228 l 315 1260 l 329 1260 l 329 1247 q 363 1180 329 1210 q 510 1150 397 1150 q 660 1180 622 1150 q 697 1247 697 1210 l 697 1260 z "},"Ő":{"ha":1024,"x_min":231,"x_max":792,"o":"m 792 294 q 732 159 792 211 q 510 107 672 107 q 289 159 347 107 q 231 294 231 211 l 231 704 q 289 840 231 788 q 510 892 347 892 q 732 840 672 892 q 792 704 792 788 l 792 294 m 244 294 q 300 169 244 217 q 510 121 356 121 q 721 169 664 121 q 778 294 778 217 l 778 704 q 721 830 778 782 q 510 878 664 878 q 300 830 356 878 q 244 704 244 782 l 244 294 m 715 1181 l 700 1181 l 735 1315 l 750 1315 l 715 1181 m 354 1181 l 339 1181 l 374 1315 l 389 1315 l 354 1181 z "},"P":{"ha":947,"x_min":251,"x_max":760,"o":"m 551 399 l 265 399 l 265 125 l 251 125 l 251 875 l 551 875 q 658 860 617 875 q 721 821 699 846 q 751 761 743 796 q 760 686 760 726 l 760 583 q 751 509 760 543 q 721 451 743 475 q 658 413 699 426 q 551 399 617 399 m 265 413 l 551 413 q 651 425 613 413 q 710 460 689 438 q 738 515 731 483 q 746 583 746 546 l 746 686 q 738 756 746 724 q 710 811 731 788 q 651 848 689 835 q 551 861 613 861 l 265 861 l 265 413 z "},"Q":{"ha":1024,"x_min":231,"x_max":792,"o":"m 503 0 l 503 107 q 288 160 344 108 q 231 294 231 211 l 231 704 q 289 840 231 788 q 510 892 347 892 q 732 840 672 892 q 792 704 792 788 l 792 294 q 733 160 792 211 q 517 107 675 108 l 517 0 l 503 0 m 244 294 q 300 169 244 217 q 510 121 356 121 q 721 169 664 121 q 778 294 778 217 l 778 704 q 721 830 778 782 q 510 878 664 878 q 300 830 356 878 q 244 704 244 782 l 244 294 z "},"R":{"ha":1032,"x_min":246,"x_max":821,"o":"m 563 861 l 260 861 l 260 460 l 563 460 q 678 501 649 460 q 707 619 707 543 l 707 717 q 672 821 707 781 q 563 861 636 861 m 260 125 l 246 125 l 246 875 l 563 875 q 682 830 643 875 q 721 717 721 785 l 721 621 q 704 516 721 557 q 638 460 688 475 l 653 460 q 779 422 738 460 q 821 311 821 383 l 821 125 l 807 125 l 807 311 q 769 413 807 379 q 653 447 732 447 l 260 447 l 260 125 z "},"Ŕ":{"ha":1032,"x_min":246,"x_max":821,"o":"m 563 861 l 260 861 l 260 460 l 563 460 q 678 501 649 460 q 707 619 707 543 l 707 717 q 672 821 707 781 q 563 861 636 861 m 260 125 l 246 125 l 246 875 l 563 875 q 682 830 643 875 q 721 717 721 785 l 721 621 q 704 516 721 557 q 638 460 688 475 l 653 460 q 779 422 738 460 q 821 311 821 383 l 821 125 l 807 125 l 807 311 q 769 413 807 379 q 653 447 732 447 l 260 447 l 260 125 m 335 1176 l 667 1218 l 667 1204 l 335 1163 l 335 1176 z "},"Ŗ":{"ha":1032,"x_min":246,"x_max":821,"o":"m 563 861 l 260 861 l 260 460 l 563 460 q 678 501 649 460 q 707 619 707 543 l 707 717 q 672 821 707 781 q 563 861 636 861 m 260 125 l 246 125 l 246 875 l 563 875 q 682 830 643 875 q 721 717 721 785 l 721 621 q 704 516 721 557 q 638 460 688 475 l 653 460 q 779 422 738 460 q 821 311 821 383 l 821 125 l 807 125 l 807 311 q 769 413 807 379 q 653 447 732 447 l 260 447 l 260 125 m 611 -183 l 611 -318 q 581 -410 611 -382 q 496 -437 551 -437 l 447 -437 l 447 -424 l 496 -424 q 572 -399 546 -424 q 597 -318 597 -374 l 597 -197 l 447 -197 l 447 -183 l 611 -183 z "},"Ř":{"ha":1032,"x_min":246,"x_max":821,"o":"m 563 861 l 260 861 l 260 460 l 563 460 q 678 501 649 460 q 707 619 707 543 l 707 717 q 672 821 707 781 q 563 861 636 861 m 260 125 l 246 125 l 246 875 l 563 875 q 682 830 643 875 q 721 717 721 785 l 721 621 q 704 516 721 557 q 638 460 688 475 l 653 460 q 779 422 738 460 q 821 311 821 383 l 821 125 l 807 125 l 807 311 q 769 413 807 379 q 653 447 732 447 l 260 447 l 260 125 m 349 1221 l 469 1182 q 490 1176 479 1179 q 514 1174 500 1174 q 538 1176 528 1174 q 558 1182 549 1179 l 679 1221 l 679 1206 l 564 1168 q 540 1163 551 1165 q 514 1160 529 1160 q 488 1163 499 1160 q 464 1168 476 1165 l 349 1206 l 349 1221 z "},"S":{"ha":903,"x_min":196,"x_max":696,"o":"m 672 875 l 672 861 l 364 861 q 271 829 306 861 q 236 749 236 797 l 236 635 q 256 567 236 586 q 307 542 275 547 l 600 482 q 669 446 642 474 q 696 346 696 418 l 696 265 q 654 165 696 204 q 542 125 613 125 l 196 125 l 196 139 l 542 139 q 644 174 606 139 q 682 265 682 210 l 682 346 q 659 435 682 411 q 597 468 636 460 l 304 528 q 245 556 268 535 q 222 635 222 578 l 222 749 q 261 840 222 804 q 364 875 300 875 l 672 875 z "},"Ś":{"ha":903,"x_min":196,"x_max":696,"o":"m 672 875 l 672 861 l 364 861 q 271 829 306 861 q 236 749 236 797 l 236 635 q 256 567 236 586 q 307 542 275 547 l 600 482 q 669 446 642 474 q 696 346 696 418 l 696 265 q 654 165 696 204 q 542 125 613 125 l 196 125 l 196 139 l 542 139 q 644 174 606 139 q 682 265 682 210 l 682 346 q 659 435 682 411 q 597 468 636 460 l 304 528 q 245 556 268 535 q 222 635 222 578 l 222 749 q 261 840 222 804 q 364 875 300 875 l 672 875 m 299 1176 l 631 1218 l 631 1204 l 299 1163 l 299 1176 z "},"Ŝ":{"ha":903,"x_min":196,"x_max":696,"o":"m 672 875 l 672 861 l 364 861 q 271 829 306 861 q 236 749 236 797 l 236 635 q 256 567 236 586 q 307 542 275 547 l 600 482 q 669 446 642 474 q 696 346 696 418 l 696 265 q 654 165 696 204 q 542 125 613 125 l 196 125 l 196 139 l 542 139 q 644 174 606 139 q 682 265 682 210 l 682 346 q 659 435 682 411 q 597 468 636 460 l 304 528 q 245 556 268 535 q 222 635 222 578 l 222 749 q 261 840 222 804 q 364 875 300 875 l 672 875 m 615 1181 l 494 1219 q 474 1225 485 1222 q 450 1228 464 1228 q 426 1225 436 1228 q 406 1219 415 1222 l 285 1181 l 285 1196 l 400 1233 q 424 1239 413 1236 q 450 1242 435 1242 q 476 1239 465 1242 q 500 1233 488 1236 l 615 1196 l 615 1181 z "},"Ş":{"ha":903,"x_min":196,"x_max":696,"o":"m 542 125 l 493 125 l 429 -50 l 415 -50 l 478 125 l 196 125 l 196 139 l 542 139 q 644 174 606 139 q 682 265 682 210 l 682 346 q 659 435 682 411 q 597 468 636 460 l 304 528 q 245 556 268 535 q 222 635 222 578 l 222 749 q 261 840 222 804 q 364 875 300 875 l 672 875 l 672 861 l 364 861 q 271 829 306 861 q 236 749 236 797 l 236 635 q 256 567 236 586 q 307 542 275 547 l 600 482 q 669 446 642 474 q 696 346 696 418 l 696 265 q 654 165 696 204 q 542 125 613 125 z "},"Š":{"ha":903,"x_min":196,"x_max":696,"o":"m 672 875 l 672 861 l 364 861 q 271 829 306 861 q 236 749 236 797 l 236 635 q 256 567 236 586 q 307 542 275 547 l 600 482 q 669 446 642 474 q 696 346 696 418 l 696 265 q 654 165 696 204 q 542 125 613 125 l 196 125 l 196 139 l 542 139 q 644 174 606 139 q 682 265 682 210 l 682 346 q 659 435 682 411 q 597 468 636 460 l 304 528 q 245 556 268 535 q 222 635 222 578 l 222 749 q 261 840 222 804 q 364 875 300 875 l 672 875 m 299 1221 l 419 1182 q 440 1176 429 1179 q 464 1174 450 1174 q 488 1176 478 1174 q 508 1182 499 1179 l 629 1221 l 629 1206 l 514 1168 q 490 1163 501 1165 q 464 1160 479 1160 q 438 1163 449 1160 q 414 1168 426 1165 l 299 1206 l 299 1221 z "},"Ș":{"ha":903,"x_min":196,"x_max":696,"o":"m 672 875 l 672 861 l 364 861 q 271 829 306 861 q 236 749 236 797 l 236 635 q 256 567 236 586 q 307 542 275 547 l 600 482 q 669 446 642 474 q 696 346 696 418 l 696 265 q 654 165 696 204 q 542 125 613 125 l 196 125 l 196 139 l 542 139 q 644 174 606 139 q 682 265 682 210 l 682 346 q 659 435 682 411 q 597 468 636 460 l 304 528 q 245 556 268 535 q 222 635 222 578 l 222 749 q 261 840 222 804 q 364 875 300 875 l 672 875 m 547 -183 l 547 -318 q 517 -410 547 -382 q 432 -437 488 -437 l 383 -437 l 383 -424 l 432 -424 q 508 -399 482 -424 q 533 -318 533 -374 l 533 -197 l 383 -197 l 383 -183 l 547 -183 z "},"T":{"ha":911,"x_min":164,"x_max":747,"o":"m 449 125 l 449 861 l 164 861 l 164 875 l 747 875 l 747 861 l 463 861 l 463 125 l 449 125 z "},"Ţ":{"ha":911,"x_min":164,"x_max":747,"o":"m 449 125 l 449 861 l 164 861 l 164 875 l 747 875 l 747 861 l 463 861 l 463 125 l 449 125 m 538 -183 l 538 -318 q 508 -410 538 -382 q 422 -437 478 -437 l 374 -437 l 374 -424 l 422 -424 q 498 -399 472 -424 q 524 -318 524 -374 l 524 -197 l 374 -197 l 374 -183 l 538 -183 z "},"Ť":{"ha":911,"x_min":164,"x_max":747,"o":"m 449 125 l 449 861 l 164 861 l 164 875 l 747 875 l 747 861 l 463 861 l 463 125 l 449 125 m 289 1221 l 410 1182 q 430 1176 419 1179 q 454 1174 440 1174 q 478 1176 468 1174 q 499 1182 489 1179 l 619 1221 l 619 1206 l 504 1168 q 481 1163 492 1165 q 454 1160 469 1160 q 428 1163 439 1160 q 404 1168 417 1165 l 289 1206 l 289 1221 z "},"U":{"ha":1036,"x_min":242,"x_max":799,"o":"m 242 875 l 256 875 l 256 296 q 310 170 256 218 q 519 122 365 122 q 729 170 674 122 q 785 296 785 218 l 785 875 l 799 875 l 799 296 q 740 160 799 213 q 519 108 682 108 q 299 160 357 108 q 242 296 242 213 l 242 875 z "},"Ù":{"ha":1036,"x_min":242,"x_max":799,"o":"m 242 875 l 256 875 l 256 296 q 310 170 256 218 q 519 122 365 122 q 729 170 674 122 q 785 296 785 218 l 785 875 l 799 875 l 799 296 q 740 160 799 213 q 519 108 682 108 q 299 160 357 108 q 242 296 242 213 l 242 875 m 338 1204 l 338 1218 l 669 1176 l 669 1163 l 338 1204 z "},"Ú":{"ha":1036,"x_min":242,"x_max":799,"o":"m 242 875 l 256 875 l 256 296 q 310 170 256 218 q 519 122 365 122 q 729 170 674 122 q 785 296 785 218 l 785 875 l 799 875 l 799 296 q 740 160 799 213 q 519 108 682 108 q 299 160 357 108 q 242 296 242 213 l 242 875 m 365 1176 l 697 1218 l 697 1204 l 365 1163 l 365 1176 z "},"Û":{"ha":1036,"x_min":242,"x_max":799,"o":"m 242 875 l 256 875 l 256 296 q 310 170 256 218 q 519 122 365 122 q 729 170 674 122 q 785 296 785 218 l 785 875 l 799 875 l 799 296 q 740 160 799 213 q 519 108 682 108 q 299 160 357 108 q 242 296 242 213 l 242 875 m 682 1181 l 561 1219 q 541 1225 551 1222 q 517 1228 531 1228 q 492 1225 503 1228 q 472 1219 482 1222 l 351 1181 l 351 1196 l 467 1233 q 490 1239 479 1236 q 517 1242 501 1242 q 543 1239 532 1242 q 567 1233 554 1236 l 682 1196 l 682 1181 z "},"Ü":{"ha":1036,"x_min":242,"x_max":799,"o":"m 242 875 l 256 875 l 256 296 q 310 170 256 218 q 519 122 365 122 q 729 170 674 122 q 785 296 785 218 l 785 875 l 799 875 l 799 296 q 740 160 799 213 q 519 108 682 108 q 299 160 357 108 q 242 296 242 213 l 242 875 m 343 1153 l 329 1153 l 329 1218 l 343 1218 l 343 1153 m 701 1153 l 688 1153 l 688 1218 l 701 1218 l 701 1153 z "},"Ũ":{"ha":1036,"x_min":242,"x_max":799,"o":"m 242 875 l 256 875 l 256 296 q 310 170 256 218 q 519 122 365 122 q 729 170 674 122 q 785 296 785 218 l 785 875 l 799 875 l 799 296 q 740 160 799 213 q 519 108 682 108 q 299 160 357 108 q 242 296 242 213 l 242 875 m 682 1168 l 682 1154 q 622 1154 654 1151 q 538 1165 590 1157 l 515 1168 l 476 1174 q 402 1182 431 1181 q 351 1179 374 1183 l 351 1194 q 403 1195 375 1197 q 479 1188 432 1193 l 518 1182 l 540 1179 q 624 1168 593 1171 q 682 1168 654 1165 z "},"Ū":{"ha":1036,"x_min":242,"x_max":799,"o":"m 242 875 l 256 875 l 256 296 q 310 170 256 218 q 519 122 365 122 q 729 170 674 122 q 785 296 785 218 l 785 875 l 799 875 l 799 296 q 740 160 799 213 q 519 108 682 108 q 299 160 357 108 q 242 296 242 213 l 242 875 m 351 1176 l 683 1176 l 683 1163 l 351 1163 l 351 1176 z "},"Ŭ":{"ha":1036,"x_min":242,"x_max":799,"o":"m 242 875 l 256 875 l 256 296 q 310 170 256 218 q 519 122 365 122 q 729 170 674 122 q 785 296 785 218 l 785 875 l 799 875 l 799 296 q 740 160 799 213 q 519 108 682 108 q 299 160 357 108 q 242 296 242 213 l 242 875 m 704 1260 l 718 1260 l 718 1247 q 710 1208 718 1228 q 682 1172 703 1188 q 621 1146 661 1156 q 517 1136 581 1136 q 414 1146 453 1136 q 355 1172 375 1156 q 328 1208 335 1188 q 322 1247 322 1228 l 322 1260 l 336 1260 l 336 1247 q 370 1180 336 1210 q 517 1150 404 1150 q 667 1180 629 1150 q 704 1247 704 1210 l 704 1260 z "},"Ů":{"ha":1036,"x_min":242,"x_max":799,"o":"m 242 875 l 256 875 l 256 296 q 310 170 256 218 q 519 122 365 122 q 729 170 674 122 q 785 296 785 218 l 785 875 l 799 875 l 799 296 q 740 160 799 213 q 519 108 682 108 q 299 160 357 108 q 242 296 242 213 l 242 875 m 322 1278 l 322 1354 q 330 1411 322 1385 q 358 1456 338 1438 q 418 1484 379 1474 q 518 1494 457 1494 q 679 1455 642 1494 q 717 1354 717 1415 l 717 1278 q 679 1177 717 1215 q 518 1139 642 1139 q 418 1149 457 1139 q 358 1177 379 1158 q 330 1222 338 1196 q 322 1278 322 1247 m 518 1481 q 372 1447 407 1481 q 336 1354 336 1413 l 336 1278 q 372 1186 336 1219 q 518 1153 407 1153 q 666 1186 629 1153 q 703 1278 703 1219 l 703 1354 q 666 1446 703 1411 q 518 1481 629 1481 z "},"Ű":{"ha":1036,"x_min":242,"x_max":799,"o":"m 242 875 l 256 875 l 256 296 q 310 170 256 218 q 519 122 365 122 q 729 170 674 122 q 785 296 785 218 l 785 875 l 799 875 l 799 296 q 740 160 799 213 q 519 108 682 108 q 299 160 357 108 q 242 296 242 213 l 242 875 m 728 1181 l 713 1181 l 747 1315 l 763 1315 l 728 1181 m 367 1181 l 351 1181 l 386 1315 l 401 1315 l 367 1181 z "},"Ų":{"ha":1036,"x_min":242,"x_max":799,"o":"m 599 -175 l 565 -175 q 500 -149 514 -175 q 494 -71 486 -122 l 511 44 q 521 84 515 71 q 542 108 526 97 l 519 108 q 299 160 357 108 q 242 296 242 213 l 242 875 l 256 875 l 256 296 q 310 170 256 218 q 519 122 365 122 q 729 170 674 122 q 785 296 785 218 l 785 875 l 799 875 l 799 296 q 750 168 799 218 q 568 110 701 118 q 537 85 544 96 q 525 44 529 74 l 508 -74 q 513 -138 503 -115 q 565 -161 522 -161 l 599 -161 l 599 -175 z "},"V":{"ha":1014,"x_min":232,"x_max":785,"o":"m 232 875 l 246 875 l 246 575 q 251 506 246 539 q 268 446 257 474 l 360 224 q 391 163 374 188 q 447 139 408 139 l 569 139 q 626 163 608 139 q 657 224 643 188 l 749 446 q 765 506 760 474 q 771 575 771 539 l 771 875 l 785 875 l 785 575 q 780 503 785 536 q 763 440 775 471 l 671 218 q 633 151 654 178 q 569 125 613 125 l 447 125 q 383 151 404 125 q 346 218 363 178 l 254 440 q 237 503 242 471 q 232 575 232 536 l 232 875 z "},"W":{"ha":1154,"x_min":233,"x_max":924,"o":"m 610 479 q 646 466 632 479 q 678 414 660 453 l 792 158 q 808 142 797 144 q 829 139 819 139 l 836 139 q 857 148 847 139 q 868 168 867 157 l 903 326 q 909 394 908 353 q 910 467 910 436 l 910 875 l 924 875 l 924 465 q 923 393 924 435 q 917 325 922 351 l 882 168 q 865 135 876 146 q 836 125 853 125 l 826 125 q 800 130 814 125 q 781 149 786 135 l 667 407 q 638 455 650 444 q 610 465 626 465 l 547 465 q 519 455 531 465 q 490 407 507 444 l 376 149 q 357 130 371 135 q 331 125 343 125 l 321 125 q 292 135 304 125 q 275 168 281 146 l 240 325 q 234 393 235 351 q 233 465 233 435 l 233 875 l 247 875 l 247 467 q 248 394 247 436 q 254 326 249 353 l 289 168 q 300 148 290 157 q 321 139 310 139 l 328 139 q 349 142 338 139 q 365 158 360 144 l 479 414 q 511 466 497 453 q 547 479 525 479 l 610 479 z "},"Ŵ":{"ha":1154,"x_min":233,"x_max":924,"o":"m 610 479 q 646 466 632 479 q 678 414 660 453 l 792 158 q 808 142 797 144 q 829 139 819 139 l 836 139 q 857 148 847 139 q 868 168 867 157 l 903 326 q 909 394 908 353 q 910 467 910 436 l 910 875 l 924 875 l 924 465 q 923 393 924 435 q 917 325 922 351 l 882 168 q 865 135 876 146 q 836 125 853 125 l 826 125 q 800 130 814 125 q 781 149 786 135 l 667 407 q 638 455 650 444 q 610 465 626 465 l 547 465 q 519 455 531 465 q 490 407 507 444 l 376 149 q 357 130 371 135 q 331 125 343 125 l 321 125 q 292 135 304 125 q 275 168 281 146 l 240 325 q 234 393 235 351 q 233 465 233 435 l 233 875 l 247 875 l 247 467 q 248 394 247 436 q 254 326 249 353 l 289 168 q 300 148 290 157 q 321 139 310 139 l 328 139 q 349 142 338 139 q 365 158 360 144 l 479 414 q 511 466 497 453 q 547 479 525 479 l 610 479 m 740 1181 l 619 1219 q 599 1225 610 1222 q 575 1228 589 1228 q 551 1225 561 1228 q 531 1219 540 1222 l 410 1181 l 410 1196 l 525 1233 q 549 1239 538 1236 q 575 1242 560 1242 q 601 1239 590 1242 q 625 1233 613 1236 l 740 1196 l 740 1181 z "},"Ẁ":{"ha":1154,"x_min":233,"x_max":924,"o":"m 610 479 q 646 466 632 479 q 678 414 660 453 l 792 158 q 808 142 797 144 q 829 139 819 139 l 836 139 q 857 148 847 139 q 868 168 867 157 l 903 326 q 909 394 908 353 q 910 467 910 436 l 910 875 l 924 875 l 924 465 q 923 393 924 435 q 917 325 922 351 l 882 168 q 865 135 876 146 q 836 125 853 125 l 826 125 q 800 130 814 125 q 781 149 786 135 l 667 407 q 638 455 650 444 q 610 465 626 465 l 547 465 q 519 455 531 465 q 490 407 507 444 l 376 149 q 357 130 371 135 q 331 125 343 125 l 321 125 q 292 135 304 125 q 275 168 281 146 l 240 325 q 234 393 235 351 q 233 465 233 435 l 233 875 l 247 875 l 247 467 q 248 394 247 436 q 254 326 249 353 l 289 168 q 300 148 290 157 q 321 139 310 139 l 328 139 q 349 142 338 139 q 365 158 360 144 l 479 414 q 511 466 497 453 q 547 479 525 479 l 610 479 m 396 1204 l 396 1218 l 728 1176 l 728 1163 l 396 1204 z "},"Ẃ":{"ha":1154,"x_min":233,"x_max":924,"o":"m 610 479 q 646 466 632 479 q 678 414 660 453 l 792 158 q 808 142 797 144 q 829 139 819 139 l 836 139 q 857 148 847 139 q 868 168 867 157 l 903 326 q 909 394 908 353 q 910 467 910 436 l 910 875 l 924 875 l 924 465 q 923 393 924 435 q 917 325 922 351 l 882 168 q 865 135 876 146 q 836 125 853 125 l 826 125 q 800 130 814 125 q 781 149 786 135 l 667 407 q 638 455 650 444 q 610 465 626 465 l 547 465 q 519 455 531 465 q 490 407 507 444 l 376 149 q 357 130 371 135 q 331 125 343 125 l 321 125 q 292 135 304 125 q 275 168 281 146 l 240 325 q 234 393 235 351 q 233 465 233 435 l 233 875 l 247 875 l 247 467 q 248 394 247 436 q 254 326 249 353 l 289 168 q 300 148 290 157 q 321 139 310 139 l 328 139 q 349 142 338 139 q 365 158 360 144 l 479 414 q 511 466 497 453 q 547 479 525 479 l 610 479 m 424 1176 l 756 1218 l 756 1204 l 424 1163 l 424 1176 z "},"Ẅ":{"ha":1154,"x_min":233,"x_max":924,"o":"m 610 479 q 646 466 632 479 q 678 414 660 453 l 792 158 q 808 142 797 144 q 829 139 819 139 l 836 139 q 857 148 847 139 q 868 168 867 157 l 903 326 q 909 394 908 353 q 910 467 910 436 l 910 875 l 924 875 l 924 465 q 923 393 924 435 q 917 325 922 351 l 882 168 q 865 135 876 146 q 836 125 853 125 l 826 125 q 800 130 814 125 q 781 149 786 135 l 667 407 q 638 455 650 444 q 610 465 626 465 l 547 465 q 519 455 531 465 q 490 407 507 444 l 376 149 q 357 130 371 135 q 331 125 343 125 l 321 125 q 292 135 304 125 q 275 168 281 146 l 240 325 q 234 393 235 351 q 233 465 233 435 l 233 875 l 247 875 l 247 467 q 248 394 247 436 q 254 326 249 353 l 289 168 q 300 148 290 157 q 321 139 310 139 l 328 139 q 349 142 338 139 q 365 158 360 144 l 479 414 q 511 466 497 453 q 547 479 525 479 l 610 479 m 401 1153 l 388 1153 l 388 1218 l 401 1218 l 401 1153 m 760 1153 l 746 1153 l 746 1218 l 760 1218 l 760 1153 z "},"X":{"ha":1024,"x_min":232,"x_max":792,"o":"m 246 188 l 246 125 l 232 125 l 232 188 q 234 245 232 218 q 253 294 236 272 l 419 522 l 253 747 q 235 797 238 769 q 232 854 232 824 l 232 875 l 246 875 l 246 854 q 249 799 246 825 q 265 753 251 772 l 432 528 l 597 528 l 758 753 q 775 799 772 772 q 778 854 778 825 l 778 875 l 792 875 l 792 854 q 789 797 792 824 q 771 747 786 769 l 607 519 l 771 294 q 789 245 786 272 q 792 188 792 218 l 792 125 l 778 125 l 778 188 q 775 243 778 217 q 758 289 772 269 l 596 514 l 429 514 l 265 289 q 249 244 251 271 q 246 188 246 217 z "},"Y":{"ha":979,"x_min":213,"x_max":769,"o":"m 507 363 l 497 363 l 497 125 l 483 125 l 483 363 l 469 363 q 415 376 439 363 q 368 421 390 390 l 233 608 q 215 657 218 629 q 213 715 213 685 l 213 875 l 226 875 l 226 715 q 229 660 226 686 q 246 614 232 635 l 381 426 q 422 388 399 399 q 469 376 446 376 l 507 376 q 555 388 533 376 q 597 426 576 400 l 736 614 q 753 659 750 632 q 756 715 756 686 l 756 875 l 769 875 l 769 715 q 767 658 769 685 q 749 608 765 631 l 610 421 q 563 376 588 390 q 507 363 539 363 z "},"Ý":{"ha":979,"x_min":213,"x_max":769,"o":"m 507 363 l 497 363 l 497 125 l 483 125 l 483 363 l 469 363 q 415 376 439 363 q 368 421 390 390 l 233 608 q 215 657 218 629 q 213 715 213 685 l 213 875 l 226 875 l 226 715 q 229 660 226 686 q 246 614 232 635 l 381 426 q 422 388 399 399 q 469 376 446 376 l 507 376 q 555 388 533 376 q 597 426 576 400 l 736 614 q 753 659 750 632 q 756 715 756 686 l 756 875 l 769 875 l 769 715 q 767 658 769 685 q 749 608 765 631 l 610 421 q 563 376 588 390 q 507 363 539 363 m 336 1176 l 668 1218 l 668 1204 l 336 1163 l 336 1176 z "},"Ŷ":{"ha":979,"x_min":213,"x_max":769,"o":"m 507 363 l 497 363 l 497 125 l 483 125 l 483 363 l 469 363 q 415 376 439 363 q 368 421 390 390 l 233 608 q 215 657 218 629 q 213 715 213 685 l 213 875 l 226 875 l 226 715 q 229 660 226 686 q 246 614 232 635 l 381 426 q 422 388 399 399 q 469 376 446 376 l 507 376 q 555 388 533 376 q 597 426 576 400 l 736 614 q 753 659 750 632 q 756 715 756 686 l 756 875 l 769 875 l 769 715 q 767 658 769 685 q 749 608 765 631 l 610 421 q 563 376 588 390 q 507 363 539 363 m 653 1181 l 532 1219 q 512 1225 522 1222 q 488 1228 501 1228 q 463 1225 474 1228 q 443 1219 453 1222 l 322 1181 l 322 1196 l 438 1233 q 461 1239 450 1236 q 488 1242 472 1242 q 514 1239 503 1242 q 538 1233 525 1236 l 653 1196 l 653 1181 z "},"Ÿ":{"ha":979,"x_min":213,"x_max":769,"o":"m 507 363 l 497 363 l 497 125 l 483 125 l 483 363 l 469 363 q 415 376 439 363 q 368 421 390 390 l 233 608 q 215 657 218 629 q 213 715 213 685 l 213 875 l 226 875 l 226 715 q 229 660 226 686 q 246 614 232 635 l 381 426 q 422 388 399 399 q 469 376 446 376 l 507 376 q 555 388 533 376 q 597 426 576 400 l 736 614 q 753 659 750 632 q 756 715 756 686 l 756 875 l 769 875 l 769 715 q 767 658 769 685 q 749 608 765 631 l 610 421 q 563 376 588 390 q 507 363 539 363 m 314 1153 l 300 1153 l 300 1218 l 314 1218 l 314 1153 m 672 1153 l 658 1153 l 658 1218 l 672 1218 l 672 1153 z "},"Ỳ":{"ha":979,"x_min":213,"x_max":769,"o":"m 507 363 l 497 363 l 497 125 l 483 125 l 483 363 l 469 363 q 415 376 439 363 q 368 421 390 390 l 233 608 q 215 657 218 629 q 213 715 213 685 l 213 875 l 226 875 l 226 715 q 229 660 226 686 q 246 614 232 635 l 381 426 q 422 388 399 399 q 469 376 446 376 l 507 376 q 555 388 533 376 q 597 426 576 400 l 736 614 q 753 659 750 632 q 756 715 756 686 l 756 875 l 769 875 l 769 715 q 767 658 769 685 q 749 608 765 631 l 610 421 q 563 376 588 390 q 507 363 539 363 m 308 1204 l 308 1218 l 640 1176 l 640 1163 l 308 1204 z "},"Z":{"ha":917,"x_min":214,"x_max":728,"o":"m 657 756 l 250 233 q 235 213 240 221 q 231 190 231 204 l 231 171 q 240 145 231 151 q 260 139 249 139 l 728 139 l 728 125 l 260 125 q 227 136 238 125 q 217 171 217 147 l 217 193 q 224 220 217 208 q 240 244 231 232 l 647 767 q 662 788 657 779 q 667 810 667 796 l 667 829 q 658 855 667 849 q 638 861 649 861 l 214 861 l 214 875 l 638 875 q 670 864 660 875 q 681 829 681 853 l 681 807 q 674 780 681 792 q 657 756 667 768 z "},"Ź":{"ha":917,"x_min":214,"x_max":728,"o":"m 657 756 l 250 233 q 235 213 240 221 q 231 190 231 204 l 231 171 q 240 145 231 151 q 260 139 249 139 l 728 139 l 728 125 l 260 125 q 227 136 238 125 q 217 171 217 147 l 217 193 q 224 220 217 208 q 240 244 231 232 l 647 767 q 662 788 657 779 q 667 810 667 796 l 667 829 q 658 855 667 849 q 638 861 649 861 l 214 861 l 214 875 l 638 875 q 670 864 660 875 q 681 829 681 853 l 681 807 q 674 780 681 792 q 657 756 667 768 m 306 1176 l 638 1218 l 638 1204 l 306 1163 l 306 1176 z "},"Ż":{"ha":917,"x_min":214,"x_max":728,"o":"m 657 756 l 250 233 q 235 213 240 221 q 231 190 231 204 l 231 171 q 240 145 231 151 q 260 139 249 139 l 728 139 l 728 125 l 260 125 q 227 136 238 125 q 217 171 217 147 l 217 193 q 224 220 217 208 q 240 244 231 232 l 647 767 q 662 788 657 779 q 667 810 667 796 l 667 829 q 658 855 667 849 q 638 861 649 861 l 214 861 l 214 875 l 638 875 q 670 864 660 875 q 681 829 681 853 l 681 807 q 674 780 681 792 q 657 756 667 768 m 467 1153 l 453 1153 l 453 1235 l 467 1235 l 467 1153 z "},"Ž":{"ha":917,"x_min":214,"x_max":728,"o":"m 657 756 l 250 233 q 235 213 240 221 q 231 190 231 204 l 231 171 q 240 145 231 151 q 260 139 249 139 l 728 139 l 728 125 l 260 125 q 227 136 238 125 q 217 171 217 147 l 217 193 q 224 220 217 208 q 240 244 231 232 l 647 767 q 662 788 657 779 q 667 810 667 796 l 667 829 q 658 855 667 849 q 638 861 649 861 l 214 861 l 214 875 l 638 875 q 670 864 660 875 q 681 829 681 853 l 681 807 q 674 780 681 792 q 657 756 667 768 m 292 1221 l 413 1182 q 433 1176 422 1179 q 457 1174 443 1174 q 481 1176 471 1174 q 501 1182 492 1179 l 622 1221 l 622 1206 l 507 1168 q 483 1163 494 1165 q 457 1160 472 1160 q 431 1163 442 1160 q 407 1168 419 1165 l 292 1206 l 292 1221 z "},"Æ":{"ha":1396,"x_min":219,"x_max":1203,"o":"m 233 404 l 233 379 l 763 379 l 763 861 l 408 861 q 374 850 388 861 q 351 808 361 839 l 249 526 q 236 472 239 500 q 233 404 233 443 m 219 125 l 219 404 q 222 474 219 444 q 235 532 225 503 l 338 814 q 367 863 351 850 q 408 875 383 875 l 1203 875 l 1203 861 l 776 861 l 776 514 l 1090 514 l 1090 500 l 776 500 l 776 139 l 1203 139 l 1203 125 l 763 125 l 763 365 l 233 365 l 233 125 l 219 125 z "},"Ð":{"ha":1050,"x_min":153,"x_max":819,"o":"m 258 125 l 258 485 l 153 485 l 153 499 l 258 499 l 258 875 l 597 875 q 712 860 668 875 q 779 819 756 844 q 811 758 803 793 q 819 682 819 722 l 819 314 q 812 239 819 274 q 781 179 804 204 q 713 140 757 154 q 597 125 668 125 l 258 125 m 403 485 l 272 485 l 272 139 l 597 139 q 705 152 664 139 q 768 188 746 165 q 798 244 790 211 q 806 314 806 276 l 806 682 q 797 753 806 719 q 767 810 789 786 q 703 847 744 833 q 597 861 663 861 l 272 861 l 272 499 l 403 499 l 403 485 z "},"Ø":{"ha":1024,"x_min":217,"x_max":806,"o":"m 231 294 q 256 199 231 240 q 351 139 282 158 l 658 863 q 592 874 629 869 q 510 878 556 878 q 374 865 428 878 q 288 830 319 853 q 243 775 256 807 q 231 704 231 743 l 231 294 m 510 121 q 733 169 675 121 q 792 294 792 217 l 792 704 q 765 799 792 758 q 671 858 739 839 l 365 135 q 429 125 393 129 q 510 121 465 121 m 319 28 l 304 28 l 346 126 q 244 191 272 147 q 217 294 217 235 l 217 704 q 230 781 217 746 q 276 840 243 815 q 367 878 310 865 q 510 892 424 892 q 595 888 557 892 q 664 876 633 883 l 704 972 l 719 972 l 676 872 q 778 806 750 850 q 806 704 806 763 l 806 294 q 792 218 806 253 q 744 158 778 183 q 653 120 711 133 q 510 107 596 107 q 426 111 464 107 q 360 122 389 115 l 319 28 z "},"Þ":{"ha":961,"x_min":246,"x_max":754,"o":"m 246 125 l 246 875 l 260 875 l 260 738 l 546 738 q 652 723 611 738 q 715 683 693 708 q 746 624 738 658 q 754 549 754 589 l 754 444 q 746 370 754 404 q 715 312 738 336 q 652 274 693 288 q 546 260 611 260 l 260 260 l 260 125 l 246 125 m 260 274 l 546 274 q 645 286 607 274 q 704 322 683 299 q 733 376 725 344 q 740 444 740 407 l 740 549 q 733 618 740 586 q 704 674 725 650 q 645 710 683 697 q 546 724 607 724 l 260 724 l 260 274 z "},"Đ":{"ha":1050,"x_min":153,"x_max":819,"o":"m 258 125 l 258 485 l 153 485 l 153 499 l 258 499 l 258 875 l 597 875 q 712 860 668 875 q 779 819 756 844 q 811 758 803 793 q 819 682 819 722 l 819 314 q 812 239 819 274 q 781 179 804 204 q 713 140 757 154 q 597 125 668 125 l 258 125 m 403 485 l 272 485 l 272 139 l 597 139 q 705 152 664 139 q 768 188 746 165 q 798 244 790 211 q 806 314 806 276 l 806 682 q 797 753 806 719 q 767 810 789 786 q 703 847 744 833 q 597 861 663 861 l 272 861 l 272 499 l 403 499 l 403 485 z "},"Ħ":{"ha":1082,"x_min":167,"x_max":915,"o":"m 810 700 l 272 700 l 272 350 l 810 350 l 810 700 m 258 125 l 258 700 l 167 700 l 167 714 l 258 714 l 258 875 l 272 875 l 272 714 l 810 714 l 810 875 l 824 875 l 824 714 l 915 714 l 915 700 l 824 700 l 824 125 l 810 125 l 810 336 l 272 336 l 272 125 l 258 125 z "},"Ĳ":{"ha":1033,"x_min":221,"x_max":794,"o":"m 260 556 l 246 556 l 246 875 l 260 875 l 260 556 m 583 125 l 221 125 l 221 139 l 583 139 q 743 194 706 139 q 781 356 781 249 l 781 875 l 794 875 l 794 356 q 786 257 794 300 q 756 185 778 214 q 692 140 733 156 q 583 125 650 125 z "},"Ŀ":{"ha":965,"x_min":247,"x_max":758,"o":"m 247 125 l 247 875 l 261 875 l 261 139 l 744 139 l 744 301 l 758 301 l 758 125 l 247 125 m 732 614 l 732 690 l 746 690 l 746 614 l 732 614 z "},"Ł":{"ha":979,"x_min":153,"x_max":772,"o":"m 772 125 l 261 125 l 261 543 l 153 525 l 153 539 l 261 557 l 261 875 l 275 875 l 275 560 l 431 585 l 431 571 l 275 546 l 275 139 l 758 139 l 758 413 l 772 413 l 772 125 z "},"Ŋ":{"ha":1036,"x_min":238,"x_max":794,"o":"m 618 1 l 618 15 q 742 44 703 15 q 781 139 781 72 l 781 704 q 726 830 781 782 q 517 878 671 878 q 307 830 363 878 q 251 704 251 782 l 251 125 l 238 125 l 238 704 q 296 840 238 788 q 517 892 354 892 q 737 840 679 892 q 794 704 794 788 l 794 139 q 754 34 794 67 q 618 1 714 1 z "},"Œ":{"ha":1410,"x_min":231,"x_max":1203,"o":"m 453 125 q 338 140 382 125 q 269 179 293 154 q 238 239 246 204 q 231 314 231 274 l 231 682 q 239 758 231 722 q 271 819 247 793 q 338 860 294 844 q 453 875 382 875 l 1203 875 l 1203 861 l 776 861 l 776 514 l 1090 514 l 1090 500 l 776 500 l 776 139 l 1203 139 l 1203 125 l 453 125 m 453 139 l 763 139 l 763 861 l 453 861 q 347 847 388 861 q 283 810 306 833 q 253 753 261 786 q 244 682 244 719 l 244 307 q 253 240 244 271 q 284 186 261 208 q 347 151 307 164 q 453 139 388 139 z "},"Ŧ":{"ha":911,"x_min":164,"x_max":747,"o":"m 649 425 l 463 425 l 463 125 l 449 125 l 449 425 l 261 425 l 261 439 l 449 439 l 449 861 l 164 861 l 164 875 l 747 875 l 747 861 l 463 861 l 463 439 l 649 439 l 649 425 z "},"ẞ":{"ha":1054,"x_min":254,"x_max":856,"o":"m 268 125 l 254 125 l 254 875 l 599 875 q 696 836 669 875 q 701 719 722 797 l 646 519 l 710 519 q 819 487 782 519 q 856 383 856 454 l 856 261 q 819 158 856 190 q 697 125 783 125 l 619 125 l 619 139 l 697 139 q 808 168 775 139 q 842 261 842 197 l 842 383 q 808 477 842 449 q 710 506 774 506 l 626 506 l 688 722 q 684 826 706 790 q 599 861 663 861 l 268 861 l 268 125 z "},"":{"ha":1022,"x_min":242,"x_max":785,"o":"m 256 704 l 256 390 l 771 390 l 771 704 q 759 775 771 743 q 718 830 747 807 q 639 865 689 853 q 511 878 589 878 q 384 865 433 878 q 306 830 335 853 q 267 775 278 807 q 256 704 256 743 m 771 125 l 771 376 l 256 376 l 256 125 l 242 125 l 242 704 q 253 781 242 746 q 295 840 265 815 q 377 878 325 865 q 511 892 429 892 q 646 878 593 892 q 729 840 699 865 q 772 781 760 815 q 785 704 785 746 l 785 125 l 771 125 z "},"":{"ha":1022,"x_min":242,"x_max":785,"o":"m 256 704 l 256 390 l 771 390 l 771 704 q 759 775 771 743 q 718 830 747 807 q 639 865 689 853 q 511 878 589 878 q 384 865 433 878 q 306 830 335 853 q 267 775 278 807 q 256 704 256 743 m 771 125 l 771 376 l 256 376 l 256 125 l 242 125 l 242 704 q 253 781 242 746 q 295 840 265 815 q 377 878 325 865 q 511 892 429 892 q 646 878 593 892 q 729 840 699 865 q 772 781 760 815 q 785 704 785 746 l 785 125 l 771 125 m 344 1204 l 344 1218 l 676 1176 l 676 1163 l 344 1204 z "},"":{"ha":1022,"x_min":242,"x_max":785,"o":"m 256 704 l 256 390 l 771 390 l 771 704 q 759 775 771 743 q 718 830 747 807 q 639 865 689 853 q 511 878 589 878 q 384 865 433 878 q 306 830 335 853 q 267 775 278 807 q 256 704 256 743 m 771 125 l 771 376 l 256 376 l 256 125 l 242 125 l 242 704 q 253 781 242 746 q 295 840 265 815 q 377 878 325 865 q 511 892 429 892 q 646 878 593 892 q 729 840 699 865 q 772 781 760 815 q 785 704 785 746 l 785 125 l 771 125 m 358 1176 l 690 1218 l 690 1204 l 358 1163 l 358 1176 z "},"":{"ha":1022,"x_min":242,"x_max":785,"o":"m 256 704 l 256 390 l 771 390 l 771 704 q 759 775 771 743 q 718 830 747 807 q 639 865 689 853 q 511 878 589 878 q 384 865 433 878 q 306 830 335 853 q 267 775 278 807 q 256 704 256 743 m 771 125 l 771 376 l 256 376 l 256 125 l 242 125 l 242 704 q 253 781 242 746 q 295 840 265 815 q 377 878 325 865 q 511 892 429 892 q 646 878 593 892 q 729 840 699 865 q 772 781 760 815 q 785 704 785 746 l 785 125 l 771 125 m 675 1181 l 554 1219 q 534 1225 544 1222 q 510 1228 524 1228 q 485 1225 496 1228 q 465 1219 475 1222 l 344 1181 l 344 1196 l 460 1233 q 483 1239 472 1236 q 510 1242 494 1242 q 536 1239 525 1242 q 560 1233 547 1236 l 675 1196 l 675 1181 z "},"":{"ha":1022,"x_min":242,"x_max":785,"o":"m 256 704 l 256 390 l 771 390 l 771 704 q 759 775 771 743 q 718 830 747 807 q 639 865 689 853 q 511 878 589 878 q 384 865 433 878 q 306 830 335 853 q 267 775 278 807 q 256 704 256 743 m 771 125 l 771 376 l 256 376 l 256 125 l 242 125 l 242 704 q 253 781 242 746 q 295 840 265 815 q 377 878 325 865 q 511 892 429 892 q 646 878 593 892 q 729 840 699 865 q 772 781 760 815 q 785 704 785 746 l 785 125 l 771 125 m 675 1168 l 675 1154 q 615 1154 647 1151 q 531 1165 583 1157 l 508 1168 l 469 1174 q 395 1182 424 1181 q 344 1179 367 1183 l 344 1194 q 397 1195 368 1197 q 472 1188 425 1193 l 511 1182 l 533 1179 q 617 1168 586 1171 q 675 1168 647 1165 z "},"":{"ha":1022,"x_min":242,"x_max":785,"o":"m 256 704 l 256 390 l 771 390 l 771 704 q 759 775 771 743 q 718 830 747 807 q 639 865 689 853 q 511 878 589 878 q 384 865 433 878 q 306 830 335 853 q 267 775 278 807 q 256 704 256 743 m 771 125 l 771 376 l 256 376 l 256 125 l 242 125 l 242 704 q 253 781 242 746 q 295 840 265 815 q 377 878 325 865 q 511 892 429 892 q 646 878 593 892 q 729 840 699 865 q 772 781 760 815 q 785 704 785 746 l 785 125 l 771 125 m 336 1153 l 322 1153 l 322 1218 l 336 1218 l 336 1153 m 694 1153 l 681 1153 l 681 1218 l 694 1218 l 694 1153 z "},"":{"ha":1022,"x_min":242,"x_max":785,"o":"m 313 1056 l 313 1118 q 320 1175 313 1149 q 349 1219 328 1201 q 408 1248 369 1238 q 508 1258 447 1258 q 669 1219 632 1258 q 707 1118 707 1179 l 707 1056 q 669 955 707 993 q 508 917 632 917 q 408 926 447 917 q 349 955 369 936 q 320 999 328 974 q 313 1056 313 1025 m 508 1244 q 362 1210 397 1244 q 326 1118 326 1176 l 326 1056 q 362 964 326 997 q 508 931 397 931 q 656 964 619 931 q 693 1056 693 997 l 693 1118 q 656 1210 693 1175 q 508 1244 619 1244 m 256 704 l 256 390 l 771 390 l 771 704 q 759 775 771 743 q 718 830 747 807 q 639 865 689 853 q 511 878 589 878 q 384 865 433 878 q 306 830 335 853 q 267 775 278 807 q 256 704 256 743 m 771 125 l 771 376 l 256 376 l 256 125 l 242 125 l 242 704 q 253 781 242 746 q 295 840 265 815 q 377 878 325 865 q 511 892 429 892 q 646 878 593 892 q 729 840 699 865 q 772 781 760 815 q 785 704 785 746 l 785 125 l 771 125 z "},"":{"ha":1022,"x_min":242,"x_max":785,"o":"m 256 704 l 256 390 l 771 390 l 771 704 q 759 775 771 743 q 718 830 747 807 q 639 865 689 853 q 511 878 589 878 q 384 865 433 878 q 306 830 335 853 q 267 775 278 807 q 256 704 256 743 m 771 125 l 771 376 l 256 376 l 256 125 l 242 125 l 242 704 q 253 781 242 746 q 295 840 265 815 q 377 878 325 865 q 511 892 429 892 q 646 878 593 892 q 729 840 699 865 q 772 781 760 815 q 785 704 785 746 l 785 125 l 771 125 m 344 1176 l 676 1176 l 676 1163 l 344 1163 l 344 1176 z "},"":{"ha":1022,"x_min":242,"x_max":785,"o":"m 256 704 l 256 390 l 771 390 l 771 704 q 759 775 771 743 q 718 830 747 807 q 639 865 689 853 q 511 878 589 878 q 384 865 433 878 q 306 830 335 853 q 267 775 278 807 q 256 704 256 743 m 771 125 l 771 376 l 256 376 l 256 125 l 242 125 l 242 704 q 253 781 242 746 q 295 840 265 815 q 377 878 325 865 q 511 892 429 892 q 646 878 593 892 q 729 840 699 865 q 772 781 760 815 q 785 704 785 746 l 785 125 l 771 125 m 697 1260 l 711 1260 l 711 1247 q 703 1208 711 1228 q 675 1172 696 1188 q 614 1146 654 1156 q 510 1136 574 1136 q 407 1146 446 1136 q 348 1172 368 1156 q 322 1208 328 1188 q 315 1247 315 1228 l 315 1260 l 329 1260 l 329 1247 q 363 1180 329 1210 q 510 1150 397 1150 q 660 1180 622 1150 q 697 1247 697 1210 l 697 1260 z "},"":{"ha":1022,"x_min":242,"x_max":808,"o":"m 808 -147 l 808 -161 l 775 -161 q 710 -135 724 -161 q 704 -57 696 -108 l 721 58 q 735 106 726 92 q 771 135 743 119 l 771 376 l 256 376 l 256 125 l 242 125 l 242 704 q 253 781 242 746 q 295 840 265 815 q 377 878 325 865 q 511 892 429 892 q 646 878 593 892 q 729 840 699 865 q 772 781 760 815 q 785 704 785 746 l 785 125 l 781 125 q 747 100 754 111 q 735 58 739 89 l 718 -60 q 722 -124 713 -101 q 775 -147 732 -147 l 808 -147 m 256 704 l 256 390 l 771 390 l 771 704 q 759 775 771 743 q 718 830 747 807 q 639 865 689 853 q 511 878 589 878 q 384 865 433 878 q 306 830 335 853 q 267 775 278 807 q 256 704 256 743 z "},"":{"ha":893,"x_min":225,"x_max":700,"o":"m 700 139 l 700 125 l 447 125 q 269 167 313 125 q 225 304 225 208 l 225 693 q 269 833 225 792 q 447 875 314 875 l 700 875 l 700 861 l 447 861 q 282 823 325 861 q 239 693 239 785 l 239 513 l 603 513 l 603 499 l 239 499 l 239 304 q 281 176 239 214 q 447 139 322 139 l 700 139 z "},"":{"ha":893,"x_min":225,"x_max":700,"o":"m 700 139 l 700 125 l 447 125 q 269 167 313 125 q 225 304 225 208 l 225 693 q 269 833 225 792 q 447 875 314 875 l 700 875 l 700 861 l 447 861 q 282 823 325 861 q 239 693 239 785 l 239 513 l 603 513 l 603 499 l 239 499 l 239 304 q 281 176 239 214 q 447 139 322 139 l 700 139 m 301 1204 l 301 1218 l 633 1176 l 633 1163 l 301 1204 z "},"":{"ha":893,"x_min":225,"x_max":700,"o":"m 700 139 l 700 125 l 447 125 q 269 167 313 125 q 225 304 225 208 l 225 693 q 269 833 225 792 q 447 875 314 875 l 700 875 l 700 861 l 447 861 q 282 823 325 861 q 239 693 239 785 l 239 513 l 603 513 l 603 499 l 239 499 l 239 304 q 281 176 239 214 q 447 139 322 139 l 700 139 m 329 1176 l 661 1218 l 661 1204 l 329 1163 l 329 1176 z "},"":{"ha":893,"x_min":225,"x_max":700,"o":"m 700 139 l 700 125 l 447 125 q 269 167 313 125 q 225 304 225 208 l 225 693 q 269 833 225 792 q 447 875 314 875 l 700 875 l 700 861 l 447 861 q 282 823 325 861 q 239 693 239 785 l 239 513 l 603 513 l 603 499 l 239 499 l 239 304 q 281 176 239 214 q 447 139 322 139 l 700 139 m 646 1181 l 525 1219 q 505 1225 515 1222 q 481 1228 494 1228 q 456 1225 467 1228 q 436 1219 446 1222 l 315 1181 l 315 1196 l 431 1233 q 454 1239 443 1236 q 481 1242 465 1242 q 507 1239 496 1242 q 531 1233 518 1236 l 646 1196 l 646 1181 z "},"":{"ha":893,"x_min":225,"x_max":700,"o":"m 700 139 l 700 125 l 447 125 q 269 167 313 125 q 225 304 225 208 l 225 693 q 269 833 225 792 q 447 875 314 875 l 700 875 l 700 861 l 447 861 q 282 823 325 861 q 239 693 239 785 l 239 513 l 603 513 l 603 499 l 239 499 l 239 304 q 281 176 239 214 q 447 139 322 139 l 700 139 m 321 1153 l 307 1153 l 307 1218 l 321 1218 l 321 1153 m 679 1153 l 665 1153 l 665 1218 l 679 1218 l 679 1153 z "},"":{"ha":893,"x_min":225,"x_max":700,"o":"m 700 139 l 700 125 l 447 125 q 269 167 313 125 q 225 304 225 208 l 225 693 q 269 833 225 792 q 447 875 314 875 l 700 875 l 700 861 l 447 861 q 282 823 325 861 q 239 693 239 785 l 239 513 l 603 513 l 603 499 l 239 499 l 239 304 q 281 176 239 214 q 447 139 322 139 l 700 139 m 329 1176 l 661 1176 l 661 1163 l 329 1163 l 329 1176 z "},"":{"ha":893,"x_min":225,"x_max":700,"o":"m 700 139 l 700 125 l 447 125 q 269 167 313 125 q 225 304 225 208 l 225 693 q 269 833 225 792 q 447 875 314 875 l 700 875 l 700 861 l 447 861 q 282 823 325 861 q 239 693 239 785 l 239 513 l 603 513 l 603 499 l 239 499 l 239 304 q 281 176 239 214 q 447 139 322 139 l 700 139 m 682 1260 l 696 1260 l 696 1247 q 688 1208 696 1228 q 660 1172 681 1188 q 599 1146 639 1156 q 494 1136 558 1136 q 392 1146 431 1136 q 333 1172 353 1156 q 306 1208 313 1188 q 300 1247 300 1228 l 300 1260 l 314 1260 l 314 1247 q 348 1180 314 1210 q 494 1150 382 1150 q 644 1180 607 1150 q 682 1247 682 1210 l 682 1260 z "},"":{"ha":893,"x_min":225,"x_max":700,"o":"m 700 139 l 700 125 l 447 125 q 269 167 313 125 q 225 304 225 208 l 225 693 q 269 833 225 792 q 447 875 314 875 l 700 875 l 700 861 l 447 861 q 282 823 325 861 q 239 693 239 785 l 239 513 l 603 513 l 603 499 l 239 499 l 239 304 q 281 176 239 214 q 447 139 322 139 l 700 139 m 504 1153 l 490 1153 l 490 1235 l 504 1235 l 504 1153 z "},"":{"ha":893,"x_min":225,"x_max":700,"o":"m 700 -147 l 700 -161 l 667 -161 q 601 -135 615 -161 q 596 -57 588 -108 l 613 58 q 623 99 617 85 q 646 125 629 113 l 447 125 q 269 167 313 125 q 225 304 225 208 l 225 693 q 269 833 225 792 q 447 875 314 875 l 700 875 l 700 861 l 447 861 q 282 823 325 861 q 239 693 239 785 l 239 513 l 603 513 l 603 499 l 239 499 l 239 304 q 281 176 239 214 q 447 139 322 139 l 700 139 l 700 125 l 672 125 q 638 100 646 111 q 626 58 631 89 l 610 -60 q 614 -124 604 -101 q 667 -147 624 -147 l 700 -147 z "},"":{"ha":893,"x_min":225,"x_max":700,"o":"m 700 139 l 700 125 l 447 125 q 269 167 313 125 q 225 304 225 208 l 225 693 q 269 833 225 792 q 447 875 314 875 l 700 875 l 700 861 l 447 861 q 282 823 325 861 q 239 693 239 785 l 239 513 l 603 513 l 603 499 l 239 499 l 239 304 q 281 176 239 214 q 447 139 322 139 l 700 139 m 325 1221 l 446 1182 q 466 1176 456 1179 q 490 1174 476 1174 q 515 1176 504 1174 q 535 1182 525 1179 l 656 1221 l 656 1206 l 540 1168 q 517 1163 528 1165 q 490 1160 506 1160 q 464 1163 475 1160 q 440 1168 453 1165 l 325 1206 l 325 1221 z "},"":{"ha":515,"x_min":251,"x_max":265,"o":"m 251 875 l 265 875 l 265 125 l 251 125 l 251 875 z "},"":{"ha":515,"x_min":111,"x_max":401,"o":"m 111 1201 l 111 1215 l 401 1179 l 401 1165 l 111 1201 m 251 875 l 265 875 l 265 125 l 251 125 l 251 875 z "},"":{"ha":515,"x_min":111,"x_max":401,"o":"m 111 1179 l 401 1215 l 401 1201 l 111 1165 l 111 1179 m 251 875 l 265 875 l 265 125 l 251 125 l 251 875 z "},"":{"ha":515,"x_min":92,"x_max":422,"o":"m 251 875 l 265 875 l 265 125 l 251 125 l 251 875 m 422 1181 l 301 1219 q 281 1225 292 1222 q 257 1228 271 1228 q 233 1225 243 1228 q 213 1219 222 1222 l 92 1181 l 92 1196 l 207 1233 q 231 1239 219 1236 q 257 1242 242 1242 q 283 1239 272 1242 q 307 1233 294 1236 l 422 1196 l 422 1181 z "},"":{"ha":515,"x_min":68,"x_max":440,"o":"m 251 875 l 265 875 l 265 125 l 251 125 l 251 875 m 82 1153 l 68 1153 l 68 1218 l 82 1218 l 82 1153 m 440 1153 l 426 1153 l 426 1218 l 440 1218 l 440 1153 z "},"":{"ha":515,"x_min":92,"x_max":422,"o":"m 251 875 l 265 875 l 265 125 l 251 125 l 251 875 m 422 1168 l 422 1154 q 363 1154 394 1151 q 278 1165 331 1157 l 256 1168 l 217 1174 q 142 1182 171 1181 q 92 1179 114 1183 l 92 1194 q 144 1195 115 1197 q 219 1188 172 1193 l 258 1182 l 281 1179 q 364 1168 333 1171 q 422 1168 394 1165 z "},"":{"ha":515,"x_min":92,"x_max":424,"o":"m 251 875 l 265 875 l 265 125 l 251 125 l 251 875 m 92 1176 l 424 1176 l 424 1163 l 92 1163 l 92 1176 z "},"":{"ha":515,"x_min":61,"x_max":457,"o":"m 251 875 l 265 875 l 265 125 l 251 125 l 251 875 m 443 1260 l 457 1260 l 457 1247 q 449 1208 457 1228 q 421 1172 442 1188 q 360 1146 400 1156 q 256 1136 319 1136 q 153 1146 192 1136 q 94 1172 114 1156 q 67 1208 74 1188 q 61 1247 61 1228 l 61 1260 l 75 1260 l 75 1247 q 109 1180 75 1210 q 256 1150 143 1150 q 406 1180 368 1150 q 443 1247 443 1210 l 443 1260 z "},"":{"ha":515,"x_min":175,"x_max":288,"o":"m 288 -147 l 288 -161 l 254 -161 q 189 -135 203 -161 q 183 -57 175 -108 l 200 58 q 214 106 206 92 q 251 136 222 119 l 251 875 l 265 875 l 265 125 l 260 125 q 226 100 233 111 q 214 58 218 89 l 197 -60 q 201 -124 192 -101 q 254 -147 211 -147 l 288 -147 z "},"":{"ha":515,"x_min":250,"x_max":265,"o":"m 251 875 l 265 875 l 265 125 l 251 125 l 251 875 m 264 1153 l 250 1153 l 250 1235 l 264 1235 l 264 1153 z "},"":{"ha":854,"x_min":247,"x_max":690,"o":"m 247 125 l 247 875 l 261 875 l 261 139 l 690 139 l 690 125 l 247 125 z "},"":{"ha":854,"x_min":221,"x_max":690,"o":"m 247 125 l 247 875 l 261 875 l 261 139 l 690 139 l 690 125 l 247 125 m 221 1176 l 553 1218 l 553 1204 l 221 1163 l 221 1176 z "},"":{"ha":854,"x_min":247,"x_max":690,"o":"m 247 125 l 247 875 l 261 875 l 261 139 l 690 139 l 690 125 l 247 125 m 546 -183 l 546 -318 q 516 -410 546 -382 q 431 -437 486 -437 l 382 -437 l 382 -424 l 431 -424 q 506 -399 481 -424 q 532 -318 532 -374 l 532 -197 l 382 -197 l 382 -183 l 546 -183 z "},"":{"ha":854,"x_min":247,"x_max":697,"o":"m 247 125 l 247 875 l 261 875 l 261 139 l 690 139 l 690 125 l 247 125 m 672 746 l 657 746 l 682 875 l 697 875 l 672 746 z "},"":{"ha":854,"x_min":247,"x_max":690,"o":"m 247 125 l 247 875 l 261 875 l 261 139 l 690 139 l 690 125 l 247 125 m 689 556 l 675 556 l 675 638 l 689 638 l 689 556 z "},"":{"ha":868,"x_min":153,"x_max":704,"o":"m 261 125 l 261 543 l 153 525 l 153 539 l 261 557 l 261 875 l 275 875 l 275 560 l 431 585 l 431 571 l 275 546 l 275 139 l 704 139 l 704 125 l 261 125 z "},"":{"ha":1486,"x_min":238,"x_max":1249,"o":"m 251 704 l 251 125 l 238 125 l 238 704 q 292 840 238 788 q 494 892 346 892 q 673 856 617 892 q 743 760 729 819 q 814 856 757 819 q 993 892 871 892 q 1195 840 1142 892 q 1249 704 1249 788 l 1249 125 l 1235 125 l 1235 704 q 1184 830 1235 782 q 993 878 1133 878 q 801 830 853 878 q 750 704 750 782 l 750 125 l 736 125 l 736 704 q 685 830 736 782 q 494 878 635 878 q 303 830 354 878 q 251 704 251 782 z "},"":{"ha":1036,"x_min":238,"x_max":794,"o":"m 794 125 l 781 125 l 781 704 q 726 830 781 782 q 517 878 671 878 q 307 830 363 878 q 251 704 251 782 l 251 125 l 238 125 l 238 704 q 296 840 238 788 q 517 892 354 892 q 737 840 679 892 q 794 704 794 788 l 794 125 z "},"":{"ha":1036,"x_min":238,"x_max":794,"o":"m 794 125 l 781 125 l 781 704 q 726 830 781 782 q 517 878 671 878 q 307 830 363 878 q 251 704 251 782 l 251 125 l 238 125 l 238 704 q 296 840 238 788 q 517 892 354 892 q 737 840 679 892 q 794 704 794 788 l 794 125 m 682 1168 l 682 1154 q 622 1154 654 1151 q 538 1165 590 1157 l 515 1168 l 476 1174 q 402 1182 431 1181 q 351 1179 374 1183 l 351 1194 q 403 1195 375 1197 q 479 1188 432 1193 l 518 1182 l 540 1179 q 624 1168 593 1171 q 682 1168 654 1165 z "},"":{"ha":1036,"x_min":238,"x_max":794,"o":"m 794 125 l 781 125 l 781 704 q 726 830 781 782 q 517 878 671 878 q 307 830 363 878 q 251 704 251 782 l 251 125 l 238 125 l 238 704 q 296 840 238 788 q 517 892 354 892 q 737 840 679 892 q 794 704 794 788 l 794 125 m 365 1176 l 697 1218 l 697 1204 l 365 1163 l 365 1176 z "},"":{"ha":1036,"x_min":238,"x_max":794,"o":"m 794 125 l 781 125 l 781 704 q 726 830 781 782 q 517 878 671 878 q 307 830 363 878 q 251 704 251 782 l 251 125 l 238 125 l 238 704 q 296 840 238 788 q 517 892 354 892 q 737 840 679 892 q 794 704 794 788 l 794 125 m 600 -183 l 600 -318 q 570 -410 600 -382 q 485 -437 540 -437 l 436 -437 l 436 -424 l 485 -424 q 560 -399 535 -424 q 586 -318 586 -374 l 586 -197 l 436 -197 l 436 -183 l 600 -183 z "},"":{"ha":1036,"x_min":238,"x_max":794,"o":"m 794 125 l 781 125 l 781 704 q 726 830 781 782 q 517 878 671 878 q 307 830 363 878 q 251 704 251 782 l 251 125 l 238 125 l 238 704 q 296 840 238 788 q 517 892 354 892 q 737 840 679 892 q 794 704 794 788 l 794 125 m 351 1221 l 472 1182 q 492 1176 482 1179 q 517 1174 503 1174 q 541 1176 531 1174 q 561 1182 551 1179 l 682 1221 l 682 1206 l 567 1168 q 543 1163 554 1165 q 517 1160 532 1160 q 490 1163 501 1160 q 467 1168 479 1165 l 351 1206 l 351 1221 z "},"":{"ha":1486,"x_min":224,"x_max":1263,"o":"m 999 108 q 815 144 872 108 q 743 242 757 181 q 671 144 729 181 q 486 108 613 108 q 278 160 333 108 q 224 296 224 213 l 224 875 l 238 875 l 238 296 q 290 170 238 218 q 486 122 342 122 q 683 170 631 122 q 736 296 736 218 l 736 875 l 750 875 l 750 296 q 802 170 750 218 q 999 122 854 122 q 1196 170 1143 122 q 1249 296 1249 218 l 1249 875 l 1263 875 l 1263 296 q 1207 160 1263 213 q 999 108 1151 108 z "},"":{"ha":1486,"x_min":224,"x_max":1263,"o":"m 999 108 q 815 144 872 108 q 743 242 757 181 q 671 144 729 181 q 486 108 613 108 q 278 160 333 108 q 224 296 224 213 l 224 875 l 238 875 l 238 296 q 290 170 238 218 q 486 122 342 122 q 683 170 631 122 q 736 296 736 218 l 736 875 l 750 875 l 750 296 q 802 170 750 218 q 999 122 854 122 q 1196 170 1143 122 q 1249 296 1249 218 l 1249 875 l 1263 875 l 1263 296 q 1207 160 1263 213 q 999 108 1151 108 m 907 1181 l 786 1219 q 766 1225 776 1222 q 742 1228 756 1228 q 717 1225 728 1228 q 697 1219 707 1222 l 576 1181 l 576 1196 l 692 1233 q 715 1239 704 1236 q 742 1242 726 1242 q 768 1239 757 1242 q 792 1233 779 1236 l 907 1196 l 907 1181 z "},"":{"ha":1486,"x_min":224,"x_max":1263,"o":"m 999 108 q 815 144 872 108 q 743 242 757 181 q 671 144 729 181 q 486 108 613 108 q 278 160 333 108 q 224 296 224 213 l 224 875 l 238 875 l 238 296 q 290 170 238 218 q 486 122 342 122 q 683 170 631 122 q 736 296 736 218 l 736 875 l 750 875 l 750 296 q 802 170 750 218 q 999 122 854 122 q 1196 170 1143 122 q 1249 296 1249 218 l 1249 875 l 1263 875 l 1263 296 q 1207 160 1263 213 q 999 108 1151 108 m 563 1204 l 563 1218 l 894 1176 l 894 1163 l 563 1204 z "},"":{"ha":1486,"x_min":224,"x_max":1263,"o":"m 999 108 q 815 144 872 108 q 743 242 757 181 q 671 144 729 181 q 486 108 613 108 q 278 160 333 108 q 224 296 224 213 l 224 875 l 238 875 l 238 296 q 290 170 238 218 q 486 122 342 122 q 683 170 631 122 q 736 296 736 218 l 736 875 l 750 875 l 750 296 q 802 170 750 218 q 999 122 854 122 q 1196 170 1143 122 q 1249 296 1249 218 l 1249 875 l 1263 875 l 1263 296 q 1207 160 1263 213 q 999 108 1151 108 m 590 1176 l 922 1218 l 922 1204 l 590 1163 l 590 1176 z "},"":{"ha":1486,"x_min":224,"x_max":1263,"o":"m 999 108 q 815 144 872 108 q 743 242 757 181 q 671 144 729 181 q 486 108 613 108 q 278 160 333 108 q 224 296 224 213 l 224 875 l 238 875 l 238 296 q 290 170 238 218 q 486 122 342 122 q 683 170 631 122 q 736 296 736 218 l 736 875 l 750 875 l 750 296 q 802 170 750 218 q 999 122 854 122 q 1196 170 1143 122 q 1249 296 1249 218 l 1249 875 l 1263 875 l 1263 296 q 1207 160 1263 213 q 999 108 1151 108 m 568 1153 l 554 1153 l 554 1218 l 568 1218 l 568 1153 m 926 1153 l 913 1153 l 913 1218 l 926 1218 l 926 1153 z "},"":{"ha":1024,"x_min":235,"x_max":790,"o":"m 249 125 l 235 125 l 235 356 q 269 467 235 429 q 375 506 304 506 l 382 506 l 278 875 l 292 875 l 396 506 l 629 506 l 733 875 l 747 875 l 643 506 l 650 506 q 756 467 721 506 q 790 356 790 429 l 790 125 l 776 125 l 776 356 q 745 457 776 422 q 650 492 714 492 l 375 492 q 280 457 311 492 q 249 356 249 422 l 249 125 z "},"":{"ha":981,"x_min":213,"x_max":769,"o":"m 497 125 l 483 125 l 483 406 q 269 458 325 407 q 213 593 213 510 l 213 875 l 226 875 l 226 593 q 281 467 226 515 q 490 419 336 419 q 700 467 644 419 q 756 593 756 515 l 756 875 l 769 875 l 769 593 q 712 458 769 510 q 497 406 654 406 l 497 125 z "},"":{"ha":981,"x_min":213,"x_max":769,"o":"m 497 125 l 483 125 l 483 406 q 269 458 325 407 q 213 593 213 510 l 213 875 l 226 875 l 226 593 q 281 467 226 515 q 490 419 336 419 q 700 467 644 419 q 756 593 756 515 l 756 875 l 769 875 l 769 593 q 712 458 769 510 q 497 406 654 406 l 497 125 m 338 1176 l 669 1218 l 669 1204 l 338 1163 l 338 1176 z "},"":{"ha":981,"x_min":213,"x_max":769,"o":"m 497 125 l 483 125 l 483 406 q 269 458 325 407 q 213 593 213 510 l 213 875 l 226 875 l 226 593 q 281 467 226 515 q 490 419 336 419 q 700 467 644 419 q 756 593 756 515 l 756 875 l 769 875 l 769 593 q 712 458 769 510 q 497 406 654 406 l 497 125 m 654 1181 l 533 1219 q 513 1225 524 1222 q 489 1228 503 1228 q 465 1225 475 1228 q 444 1219 454 1222 l 324 1181 l 324 1196 l 439 1233 q 463 1239 451 1236 q 489 1242 474 1242 q 515 1239 504 1242 q 539 1233 526 1236 l 654 1196 l 654 1181 z "},"":{"ha":981,"x_min":213,"x_max":769,"o":"m 497 125 l 483 125 l 483 406 q 269 458 325 407 q 213 593 213 510 l 213 875 l 226 875 l 226 593 q 281 467 226 515 q 490 419 336 419 q 700 467 644 419 q 756 593 756 515 l 756 875 l 769 875 l 769 593 q 712 458 769 510 q 497 406 654 406 l 497 125 m 315 1153 l 301 1153 l 301 1218 l 315 1218 l 315 1153 m 674 1153 l 660 1153 l 660 1218 l 674 1218 l 674 1153 z "},"":{"ha":981,"x_min":213,"x_max":769,"o":"m 497 125 l 483 125 l 483 406 q 269 458 325 407 q 213 593 213 510 l 213 875 l 226 875 l 226 593 q 281 467 226 515 q 490 419 336 419 q 700 467 644 419 q 756 593 756 515 l 756 875 l 769 875 l 769 593 q 712 458 769 510 q 497 406 654 406 l 497 125 m 310 1204 l 310 1218 l 642 1176 l 642 1163 l 310 1204 z "},"":{"ha":1407,"x_min":236,"x_max":1215,"o":"m 250 688 l 250 390 l 775 390 l 775 861 l 468 861 q 294 813 339 861 q 250 688 250 765 m 775 124 l 775 376 l 250 376 l 250 124 l 236 124 l 236 688 q 283 823 236 771 q 468 875 331 875 l 1214 875 l 1214 861 l 789 861 l 789 511 l 1103 511 l 1103 497 l 789 497 l 789 138 l 1215 138 l 1215 124 l 775 124 z "},"":{"ha":1435,"x_min":251,"x_max":1193,"o":"m 251 875 l 265 875 l 265 125 l 251 125 l 251 875 m 1179 875 l 1193 875 l 1193 296 q 1141 161 1193 214 q 942 108 1089 108 q 813 122 864 108 q 733 160 763 136 q 692 219 704 185 q 681 296 681 254 l 681 406 l 694 406 l 694 296 q 747 169 694 217 q 942 122 799 122 q 1129 170 1079 122 q 1179 296 1179 218 l 1179 875 z "},"":{"ha":1754,"x_min":199,"x_max":1513,"o":"m 640 125 l 199 125 l 199 139 l 414 139 l 414 861 l 199 861 l 199 875 l 640 875 l 640 861 l 428 861 l 428 139 l 640 139 l 640 125 m 1499 875 l 1513 875 l 1513 296 q 1460 161 1513 214 q 1261 108 1408 108 q 1133 122 1183 108 q 1053 160 1082 136 q 1012 219 1024 185 q 1000 296 1000 254 l 1000 406 l 1014 406 l 1014 296 q 1066 169 1014 217 q 1261 122 1118 122 q 1449 170 1399 122 q 1499 296 1499 218 l 1499 875 z "},"ª":{"ha":722,"x_min":147,"x_max":575,"o":"m 169 583 l 169 554 l 549 554 l 549 583 q 544 632 549 610 q 532 674 539 654 l 465 833 q 442 876 454 860 q 403 892 431 892 l 310 892 q 269 876 281 892 q 247 835 257 860 l 185 674 q 174 632 178 654 q 169 583 169 610 m 549 375 l 549 542 l 169 542 l 169 375 l 157 375 l 157 583 q 161 633 157 610 q 174 678 165 657 l 236 839 q 260 885 246 865 q 307 904 274 904 l 404 904 q 451 885 436 904 q 476 838 465 865 l 544 678 q 557 633 553 657 q 561 583 561 610 l 561 375 l 549 375 m 575 101 l 575 90 l 147 90 l 147 101 l 575 101 z "},"º":{"ha":729,"x_min":147,"x_max":575,"o":"m 565 494 q 523 398 565 435 q 364 361 481 361 q 206 398 247 361 q 165 494 165 435 l 165 785 q 206 883 165 846 q 364 919 247 919 q 523 883 481 919 q 565 785 565 846 l 565 494 m 178 494 q 217 407 178 440 q 364 374 256 374 q 513 407 472 374 q 553 494 553 440 l 553 785 q 513 873 553 839 q 364 907 472 907 q 217 873 256 907 q 178 785 178 839 l 178 494 m 575 101 l 575 90 l 147 90 l 147 101 l 575 101 z "},"_":{"ha":1019,"x_min":222,"x_max":797,"o":"m 797 7 l 797 -7 l 222 -7 l 222 7 l 797 7 z "},"-":{"ha":583,"x_min":181,"x_max":403,"o":"m 403 507 l 403 493 l 181 493 l 181 507 l 403 507 z "},"–":{"ha":1019,"x_min":222,"x_max":797,"o":"m 797 507 l 797 493 l 222 493 l 222 507 l 797 507 z "},"—":{"ha":1575,"x_min":222,"x_max":1353,"o":"m 1353 507 l 1353 493 l 222 493 l 222 507 l 1353 507 z "},"(":{"ha":596,"x_min":218,"x_max":408,"o":"m 408 29 l 408 15 q 268 48 318 15 q 218 172 218 81 l 218 826 q 267 951 218 918 q 408 983 317 983 l 408 969 q 278 940 325 969 q 232 826 232 911 l 232 172 q 279 58 232 88 q 408 29 326 29 z "},")":{"ha":596,"x_min":188,"x_max":378,"o":"m 378 172 q 328 48 378 81 q 188 15 278 15 l 188 29 q 317 58 269 29 q 364 172 364 88 l 364 826 q 317 940 364 911 q 188 969 271 969 l 188 983 q 328 951 279 983 q 378 826 378 918 l 378 172 z "},"[":{"ha":596,"x_min":218,"x_max":408,"o":"m 218 983 l 408 983 l 408 969 l 232 969 l 232 29 l 408 29 l 408 15 l 218 15 l 218 983 z "},"]":{"ha":596,"x_min":188,"x_max":378,"o":"m 378 983 l 378 15 l 188 15 l 188 29 l 364 29 l 364 969 l 188 969 l 188 983 l 378 983 z "},"{":{"ha":632,"x_min":179,"x_max":444,"o":"m 444 15 q 311 54 354 15 q 268 172 268 93 l 268 382 q 203 411 226 388 q 179 478 179 435 l 179 517 q 203 584 179 561 q 268 613 226 607 l 268 826 q 310 949 268 914 q 444 983 353 983 l 444 969 q 322 939 361 969 q 282 826 282 908 l 282 601 q 213 576 233 596 q 193 517 193 556 l 193 478 q 214 419 193 439 q 282 393 235 399 l 282 172 q 322 65 282 100 q 444 29 363 29 l 444 15 z "},"}":{"ha":632,"x_min":188,"x_max":453,"o":"m 364 172 q 321 54 364 93 q 188 15 278 15 l 188 29 q 310 65 269 29 q 350 172 350 100 l 350 393 q 418 419 397 399 q 439 478 439 439 l 439 517 q 419 576 439 556 q 350 601 399 596 l 350 826 q 310 939 350 908 q 188 969 271 969 l 188 983 q 322 949 279 983 q 364 826 364 914 l 364 613 q 429 584 406 607 q 453 517 453 561 l 453 478 q 429 411 453 435 q 364 382 406 388 l 364 172 z "},"#":{"ha":1042,"x_min":174,"x_max":868,"o":"m 742 688 l 354 688 l 301 319 l 689 319 l 742 688 m 260 125 l 286 306 l 174 306 l 174 319 l 288 319 l 340 688 l 224 688 l 224 701 l 342 701 l 367 875 l 381 875 l 356 701 l 743 701 l 768 875 l 782 875 l 757 701 l 868 701 l 868 688 l 756 688 l 703 319 l 818 319 l 818 306 l 701 306 l 675 125 l 661 125 l 688 306 l 300 306 l 274 125 l 260 125 z "},"%":{"ha":1432,"x_min":153,"x_max":1293,"o":"m 460 810 l 460 607 q 424 522 460 547 q 307 497 389 497 q 190 522 226 497 q 153 607 153 547 l 153 810 q 190 895 153 869 q 307 921 226 921 q 424 895 389 921 q 460 810 460 869 m 307 511 q 412 532 378 511 q 446 607 446 553 l 446 810 q 412 885 446 864 q 307 907 378 907 q 201 885 236 907 q 167 810 167 864 l 167 607 q 201 532 167 553 q 307 511 236 511 m 638 125 l 624 125 l 808 875 l 822 875 l 638 125 m 1293 389 l 1293 186 q 1258 101 1293 126 q 1140 76 1222 76 q 1023 101 1060 76 q 986 186 986 126 l 986 389 q 1023 474 986 449 q 1140 500 1060 500 q 1258 474 1222 500 q 1293 389 1293 449 m 1140 90 q 1245 111 1211 90 q 1279 186 1279 132 l 1279 389 q 1245 465 1279 443 q 1140 486 1211 486 q 1035 465 1069 486 q 1000 389 1000 443 l 1000 186 q 1035 111 1000 132 q 1140 90 1069 90 z "},"‰":{"ha":1968,"x_min":153,"x_max":1842,"o":"m 460 810 l 460 607 q 424 522 460 547 q 307 497 389 497 q 190 522 226 497 q 153 607 153 547 l 153 810 q 190 895 153 869 q 307 921 226 921 q 424 895 389 921 q 460 810 460 869 m 307 511 q 412 532 378 511 q 446 607 446 553 l 446 810 q 412 885 446 864 q 307 907 378 907 q 201 885 236 907 q 167 810 167 864 l 167 607 q 201 532 167 553 q 307 511 236 511 m 638 125 l 624 125 l 808 875 l 822 875 l 638 125 m 1842 389 l 1842 186 q 1806 101 1842 126 q 1689 76 1771 76 q 1572 101 1608 76 q 1535 186 1535 126 l 1535 389 q 1572 474 1535 449 q 1689 500 1608 500 q 1806 474 1771 500 q 1842 389 1842 449 m 1290 389 l 1290 186 q 1255 101 1290 126 q 1138 76 1219 76 q 1020 101 1057 76 q 983 186 983 126 l 983 389 q 1020 474 983 449 q 1138 500 1057 500 q 1255 474 1219 500 q 1290 389 1290 449 m 1689 90 q 1794 111 1760 90 q 1828 186 1828 132 l 1828 389 q 1794 465 1828 443 q 1689 486 1760 486 q 1583 465 1618 486 q 1549 389 1549 443 l 1549 186 q 1583 111 1549 132 q 1689 90 1618 90 m 1138 90 q 1242 111 1208 90 q 1276 186 1276 132 l 1276 389 q 1242 465 1276 443 q 1138 486 1208 486 q 1032 465 1067 486 q 997 389 997 443 l 997 186 q 1032 111 997 132 q 1138 90 1067 90 z "},"'":{"ha":494,"x_min":240,"x_max":254,"o":"m 240 875 l 254 875 l 254 604 l 240 604 l 240 875 z "},"\"":{"ha":897,"x_min":226,"x_max":671,"o":"m 657 875 l 671 875 l 671 604 l 657 604 l 657 875 m 226 875 l 240 875 l 240 604 l 226 604 l 226 875 z "},"‘":{"ha":533,"x_min":174,"x_max":360,"o":"m 174 625 l 174 790 q 207 885 174 854 q 296 917 240 917 l 360 917 l 360 903 l 296 903 q 217 874 246 903 q 188 790 188 846 l 188 639 l 360 639 l 360 625 l 174 625 z "},"’":{"ha":533,"x_min":174,"x_max":360,"o":"m 360 854 l 360 689 q 326 594 360 625 q 238 563 293 563 l 174 563 l 174 576 l 238 576 q 317 605 288 576 q 346 689 346 633 l 346 840 l 174 840 l 174 854 l 360 854 z "},"":{"ha":426,"x_min":144,"x_max":281,"o":"m 281 742 l 281 728 l 144 728 l 144 847 q 163 919 144 888 q 222 950 182 950 l 279 950 l 279 936 l 222 936 q 173 909 188 936 q 158 847 158 882 l 158 742 l 281 742 z "},"":{"ha":426,"x_min":146,"x_max":282,"o":"m 146 883 l 146 897 l 282 897 l 282 778 q 263 706 282 738 q 204 675 244 675 l 147 675 l 147 689 l 204 689 q 253 716 239 689 q 268 778 268 743 l 268 883 l 146 883 z "},"“":{"ha":950,"x_min":160,"x_max":790,"o":"m 604 625 l 604 790 q 638 885 604 854 q 726 917 671 917 l 790 917 l 790 903 l 726 903 q 647 874 676 903 q 618 790 618 846 l 618 639 l 790 639 l 790 625 l 604 625 m 160 625 l 160 790 q 193 885 160 854 q 282 917 226 917 l 346 917 l 346 903 l 282 903 q 203 874 232 903 q 174 790 174 846 l 174 639 l 346 639 l 346 625 l 160 625 z "},"”":{"ha":950,"x_min":160,"x_max":790,"o":"m 790 854 l 790 689 q 757 594 790 625 q 668 563 724 563 l 604 563 l 604 576 l 668 576 q 747 605 718 576 q 776 689 776 633 l 776 840 l 604 840 l 604 854 l 790 854 m 346 854 l 346 689 q 313 594 346 625 q 224 563 279 563 l 160 563 l 160 576 l 224 576 q 303 605 274 576 q 332 689 332 633 l 332 840 l 160 840 l 160 854 l 346 854 z "},"‚":{"ha":533,"x_min":174,"x_max":360,"o":"m 360 236 l 360 71 q 326 -24 360 7 q 238 -56 293 -56 l 174 -56 l 174 -42 l 238 -42 q 317 -13 288 -42 q 346 71 346 15 l 346 222 l 174 222 l 174 236 l 360 236 z "},"„":{"ha":950,"x_min":160,"x_max":790,"o":"m 790 236 l 790 71 q 757 -24 790 7 q 668 -56 724 -56 l 604 -56 l 604 -42 l 668 -42 q 747 -13 718 -42 q 776 71 776 15 l 776 222 l 604 222 l 604 236 l 790 236 m 346 236 l 346 71 q 313 -24 346 7 q 224 -56 279 -56 l 160 -56 l 160 -42 l 224 -42 q 303 -13 274 -42 q 332 71 332 15 l 332 222 l 160 222 l 160 236 l 346 236 z "},"‹":{"ha":782,"x_min":222,"x_max":556,"o":"m 299 356 l 556 303 l 556 289 l 296 342 q 240 369 258 349 q 222 431 222 389 l 222 539 q 240 601 222 581 q 294 628 258 621 l 556 681 l 556 667 l 297 614 q 251 591 267 608 q 236 539 236 574 l 236 431 q 252 378 236 396 q 299 356 268 361 z "},"›":{"ha":782,"x_min":236,"x_max":569,"o":"m 236 289 l 236 303 l 493 356 q 540 378 524 361 q 556 431 556 396 l 556 539 q 540 591 556 574 q 494 614 525 608 l 236 667 l 236 681 l 497 628 q 551 601 533 621 q 569 539 569 581 l 569 431 q 551 369 569 389 q 496 342 533 349 l 236 289 z "},"«":{"ha":1128,"x_min":196,"x_max":933,"o":"m 796 635 l 933 676 l 933 663 l 799 621 q 745 595 767 611 q 724 536 724 579 l 724 433 q 745 374 724 390 q 797 349 767 357 l 933 308 l 933 294 l 794 335 q 733 365 757 344 q 710 433 710 385 l 710 536 q 733 604 710 585 q 796 635 757 624 m 283 349 l 419 308 l 419 294 l 281 335 q 219 365 243 344 q 196 433 196 385 l 196 536 q 219 604 196 585 q 282 635 243 624 l 419 676 l 419 663 l 285 621 q 231 595 253 611 q 210 536 210 579 l 210 433 q 231 374 210 390 q 283 349 253 358 z "},"»":{"ha":1128,"x_min":194,"x_max":932,"o":"m 708 294 l 708 308 l 844 349 q 897 374 875 358 q 918 433 918 390 l 918 536 q 897 595 918 579 q 843 621 875 611 l 708 663 l 708 676 l 846 635 q 908 604 885 624 q 932 536 932 585 l 932 433 q 908 365 932 385 q 847 335 885 344 l 708 294 m 194 663 l 194 676 l 332 635 q 394 604 371 624 q 418 536 418 585 l 418 433 q 394 365 418 385 q 333 335 371 344 l 194 294 l 194 308 l 331 349 q 383 374 361 357 q 404 433 404 390 l 404 536 q 383 595 404 579 q 329 621 361 611 l 194 663 z "},"*":{"ha":997,"x_min":247,"x_max":756,"o":"m 653 372 l 501 588 l 350 372 l 339 381 l 486 592 l 247 669 l 253 683 l 494 604 l 494 875 l 508 875 l 508 604 l 750 683 l 756 669 l 517 592 l 664 381 l 653 372 z "},"†":{"ha":997,"x_min":194,"x_max":803,"o":"m 492 125 l 492 608 l 194 608 l 194 622 l 492 622 l 492 861 l 506 861 l 506 622 l 803 622 l 803 608 l 506 608 l 506 125 l 492 125 z "},"‡":{"ha":997,"x_min":194,"x_max":803,"o":"m 492 125 l 492 264 l 194 264 l 194 278 l 492 278 l 492 722 l 194 722 l 194 736 l 492 736 l 492 861 l 506 861 l 506 736 l 803 736 l 803 722 l 506 722 l 506 278 l 803 278 l 803 264 l 506 264 l 506 125 l 492 125 z "},".":{"ha":533,"x_min":260,"x_max":274,"o":"m 260 125 l 260 257 l 274 257 l 274 125 l 260 125 z "},",":{"ha":533,"x_min":174,"x_max":360,"o":"m 360 236 l 360 71 q 326 -24 360 7 q 238 -56 293 -56 l 174 -56 l 174 -42 l 238 -42 q 317 -13 288 -42 q 346 71 346 15 l 346 222 l 174 222 l 174 236 l 360 236 z "},":":{"ha":533,"x_min":260,"x_max":274,"o":"m 260 125 l 260 257 l 274 257 l 274 125 l 260 125 m 260 618 l 260 750 l 274 750 l 274 618 l 260 618 z "},";":{"ha":533,"x_min":174,"x_max":360,"o":"m 360 236 l 360 71 q 326 -24 360 7 q 238 -56 293 -56 l 174 -56 l 174 -42 l 238 -42 q 317 -13 288 -42 q 346 71 346 15 l 346 222 l 174 222 l 174 236 l 360 236 m 260 618 l 260 750 l 274 750 l 274 618 l 260 618 z "},"…":{"ha":1542,"x_min":260,"x_max":1282,"o":"m 1268 125 l 1268 257 l 1282 257 l 1282 125 l 1268 125 m 764 125 l 764 257 l 778 257 l 778 125 l 764 125 m 260 125 l 260 257 l 274 257 l 274 125 l 260 125 z "},"!":{"ha":589,"x_min":288,"x_max":301,"o":"m 288 875 l 301 875 l 301 489 l 288 489 l 288 875 m 301 111 l 288 111 l 288 171 l 301 171 l 301 111 z "},"¡":{"ha":588,"x_min":288,"x_max":301,"o":"m 288 889 l 301 889 l 301 829 l 288 829 l 288 889 m 301 125 l 288 125 l 288 511 l 301 511 l 301 125 z "},"?":{"ha":911,"x_min":188,"x_max":692,"o":"m 313 472 l 310 488 l 610 528 q 657 542 636 532 q 678 589 678 553 l 678 746 q 641 836 678 814 q 561 858 604 858 l 188 858 l 188 872 l 561 872 q 650 847 608 872 q 692 746 692 821 l 692 589 q 668 532 692 546 q 613 514 644 518 l 313 472 m 344 111 l 344 171 l 358 171 l 358 111 l 344 111 z "},"¿":{"ha":911,"x_min":222,"x_max":726,"o":"m 569 889 l 569 829 l 556 829 l 556 889 l 569 889 m 601 529 l 604 514 l 304 474 q 257 459 278 469 q 236 413 236 449 l 236 254 q 273 164 236 186 q 353 142 310 142 l 726 142 l 726 128 l 353 128 q 264 153 306 128 q 222 254 222 179 l 222 413 q 246 469 222 456 q 301 488 269 483 l 601 529 z "},"/":{"ha":482,"x_min":163,"x_max":321,"o":"m 307 1000 l 321 1000 l 176 0 l 163 0 l 307 1000 z "},"\\":{"ha":482,"x_min":163,"x_max":321,"o":"m 176 1000 l 321 0 l 307 0 l 163 1000 l 176 1000 z "},"⁄":{"ha":440,"x_min":144,"x_max":297,"o":"m 158 125 l 144 125 l 283 875 l 297 875 l 158 125 z "},"|":{"ha":482,"x_min":235,"x_max":249,"o":"m 235 1000 l 249 1000 l 249 0 l 235 0 l 235 1000 z "},"¦":{"ha":482,"x_min":235,"x_max":249,"o":"m 235 1000 l 249 1000 l 249 681 l 235 681 l 235 1000 m 235 319 l 249 319 l 249 0 l 235 0 l 235 319 z "},"@":{"ha":1204,"x_min":146,"x_max":1058,"o":"m 603 -69 q 360 -47 451 -69 q 222 15 269 -24 q 160 104 175 54 q 146 208 146 154 l 146 789 q 160 894 146 843 q 222 983 175 944 q 360 1044 269 1021 q 603 1067 451 1067 q 845 1044 754 1067 q 983 983 936 1021 q 1044 894 1029 944 q 1058 789 1058 843 l 1058 419 q 1021 269 1058 315 q 896 222 983 222 l 532 222 q 436 255 464 222 q 408 363 408 288 l 408 586 q 411 640 408 614 q 431 687 414 667 q 485 719 449 707 q 590 732 522 732 l 790 732 l 790 236 l 896 236 q 1010 280 976 236 q 1044 419 1044 324 l 1044 789 q 1030 890 1044 842 q 969 974 1015 938 q 835 1031 922 1010 q 603 1053 747 1053 q 371 1031 458 1053 q 237 974 283 1010 q 175 890 190 938 q 160 789 160 842 l 160 208 q 174 109 160 157 q 235 24 189 61 q 370 -34 282 -12 q 603 -56 458 -56 l 844 -56 l 844 -69 l 603 -69 m 532 236 l 776 236 l 776 718 l 590 718 q 495 707 529 718 q 445 678 461 696 q 426 635 429 660 q 422 586 422 611 l 422 363 q 447 266 422 296 q 532 236 471 236 z "},"&":{"ha":1064,"x_min":185,"x_max":901,"o":"m 347 125 q 225 162 265 125 q 185 275 185 199 l 185 360 q 226 472 185 428 q 354 517 268 517 l 364 517 q 310 564 328 531 q 292 651 292 597 l 292 729 q 332 840 292 806 q 456 875 372 875 l 629 875 l 629 861 l 456 861 q 342 829 378 861 q 306 726 306 797 l 306 651 q 337 551 306 583 q 433 518 368 518 l 447 518 l 447 504 l 354 504 q 237 463 275 504 q 199 360 199 422 l 199 275 q 236 172 199 204 q 356 139 274 139 l 682 139 q 767 167 738 139 q 797 251 797 196 l 797 439 l 901 439 l 901 425 l 811 425 l 811 251 q 777 156 811 188 q 682 125 743 125 l 347 125 z "},"":{"ha":878,"x_min":199,"x_max":686,"o":"m 493 125 l 381 125 q 286 135 322 125 q 231 164 250 146 q 206 208 213 182 q 199 264 199 233 l 199 353 q 229 465 199 419 q 368 511 260 510 q 303 565 317 529 q 290 639 290 600 l 290 728 q 297 785 290 758 q 324 831 304 811 q 379 863 343 851 q 472 875 415 875 l 493 875 l 493 1000 l 507 1000 l 507 875 l 686 875 l 686 861 l 472 861 q 338 824 371 861 q 304 733 304 788 l 304 639 q 308 591 304 614 q 328 551 313 568 q 375 523 344 533 q 458 513 406 513 l 574 513 l 574 499 l 379 499 q 245 459 278 499 q 213 360 213 419 l 213 264 q 244 173 213 207 q 381 139 276 139 l 686 139 l 686 125 l 507 125 l 507 0 l 493 0 l 493 125 z "},"§":{"ha":903,"x_min":210,"x_max":722,"o":"m 210 100 l 210 114 l 503 114 q 660 149 613 114 q 708 279 708 185 l 708 361 l 426 361 q 266 415 315 361 q 217 546 217 468 l 217 721 q 267 860 217 821 q 436 900 318 900 l 674 900 l 674 886 l 436 886 q 278 851 326 886 q 231 721 231 815 l 231 639 l 513 639 q 673 586 624 639 q 722 454 722 533 l 722 279 q 672 140 722 179 q 503 100 621 100 l 210 100 m 426 375 l 708 375 l 708 454 q 662 576 708 528 q 513 625 615 625 l 231 625 l 231 546 q 277 424 231 474 q 426 375 324 375 z "},"¶":{"ha":947,"x_min":171,"x_max":729,"o":"m 185 590 q 192 522 185 553 q 221 467 200 490 q 280 432 242 444 q 379 419 318 419 l 715 419 l 715 861 l 379 861 q 280 848 318 861 q 221 811 242 835 q 192 756 200 788 q 185 686 185 724 l 185 590 m 385 406 l 379 406 q 273 419 314 406 q 210 458 232 433 q 179 516 188 482 q 171 590 171 550 l 171 686 q 179 761 171 726 q 210 821 188 796 q 273 860 232 846 q 379 875 314 875 l 729 875 l 729 125 l 715 125 l 715 406 l 399 406 l 399 125 l 385 125 l 385 406 z "},"·":{"ha":506,"x_min":246,"x_max":260,"o":"m 246 431 l 246 563 l 260 563 l 260 431 l 246 431 z "},"•":{"ha":615,"x_min":188,"x_max":428,"o":"m 428 624 l 428 382 l 188 382 l 188 624 l 428 624 m 414 610 l 201 610 l 201 396 l 414 396 l 414 610 z "},"′":{"ha":494,"x_min":231,"x_max":265,"o":"m 246 604 l 231 604 l 250 875 l 265 875 l 246 604 z "},"″":{"ha":925,"x_min":231,"x_max":696,"o":"m 676 604 l 661 604 l 681 875 l 696 875 l 676 604 m 246 604 l 231 604 l 250 875 l 265 875 l 246 604 z "},"+":{"ha":1019,"x_min":222,"x_max":797,"o":"m 503 213 l 503 493 l 222 493 l 222 507 l 503 507 l 503 788 l 517 788 l 517 507 l 797 507 l 797 493 l 517 493 l 517 213 l 503 213 z "},"−":{"ha":1019,"x_min":222,"x_max":797,"o":"m 222 493 l 222 507 l 797 507 l 797 493 l 222 493 z "},"±":{"ha":1019,"x_min":222,"x_max":797,"o":"m 503 299 l 503 579 l 222 579 l 222 593 l 503 593 l 503 874 l 517 874 l 517 593 l 797 593 l 797 579 l 517 579 l 517 299 l 503 299 m 222 124 l 222 138 l 797 138 l 797 124 l 222 124 z "},"÷":{"ha":1019,"x_min":222,"x_max":797,"o":"m 503 775 l 503 838 l 517 838 l 517 775 l 503 775 m 222 493 l 222 507 l 797 507 l 797 493 l 222 493 m 503 163 l 503 225 l 517 225 l 517 163 l 503 163 z "},"×":{"ha":1019,"x_min":301,"x_max":718,"o":"m 708 292 l 510 490 l 311 292 l 301 301 l 500 500 l 301 699 l 311 708 l 510 510 l 708 708 l 718 699 l 519 500 l 718 301 l 708 292 z "},"=":{"ha":1019,"x_min":222,"x_max":797,"o":"m 222 701 l 222 715 l 797 715 l 797 701 l 222 701 m 222 285 l 222 299 l 797 299 l 797 285 l 222 285 z "},"<":{"ha":992,"x_min":244,"x_max":742,"o":"m 742 244 l 742 231 l 325 350 q 267 381 290 360 q 244 449 244 403 l 244 549 q 267 614 244 594 q 325 643 290 633 l 742 763 l 742 749 l 328 629 q 278 604 299 621 q 258 549 258 588 l 258 449 q 278 391 258 410 q 328 364 299 372 l 742 244 z "},">":{"ha":992,"x_min":250,"x_max":747,"o":"m 667 350 l 250 231 l 250 244 l 664 364 q 713 391 693 372 q 733 449 733 410 l 733 549 q 713 604 733 588 q 664 629 693 621 l 250 749 l 250 763 l 667 643 q 724 614 701 633 q 747 549 747 594 l 747 449 q 724 381 747 403 q 667 350 701 360 z "},"≤":{"ha":992,"x_min":244,"x_max":742,"o":"m 742 342 l 742 328 l 325 447 q 267 478 290 457 q 244 546 244 500 l 244 646 q 267 711 244 692 q 325 740 290 731 l 742 860 l 742 846 l 328 726 q 278 701 299 718 q 258 646 258 685 l 258 546 q 278 488 258 507 q 328 461 299 469 l 742 342 m 244 125 l 244 139 l 742 139 l 742 125 l 244 125 z "},"≥":{"ha":992,"x_min":250,"x_max":747,"o":"m 667 447 l 250 328 l 250 342 l 664 461 q 713 488 693 469 q 733 546 733 507 l 733 646 q 713 701 733 685 q 664 726 693 718 l 250 846 l 250 860 l 667 740 q 724 711 701 731 q 747 646 747 692 l 747 546 q 724 478 747 500 q 667 447 701 457 m 250 125 l 250 139 l 747 139 l 747 125 l 250 125 z "},"≈":{"ha":1019,"x_min":222,"x_max":797,"o":"m 222 713 l 222 728 q 319 742 272 742 q 456 729 365 743 l 511 722 l 543 718 q 624 706 590 711 q 685 699 657 700 q 739 701 713 697 q 797 713 765 704 l 797 697 q 739 686 765 689 q 684 685 713 683 q 622 692 656 688 q 540 704 588 697 l 508 708 l 453 715 q 376 725 408 722 q 319 727 344 728 q 270 723 293 726 q 222 713 247 719 m 222 310 l 222 325 q 319 340 272 339 q 456 326 365 340 l 511 319 l 543 315 q 624 303 590 308 q 685 296 657 297 q 739 298 713 294 q 797 310 765 301 l 797 294 q 739 283 765 286 q 684 283 713 281 q 622 290 656 285 q 540 301 588 294 l 508 306 l 453 313 q 376 322 408 319 q 319 324 344 325 q 270 320 293 324 q 222 310 247 317 z "},"≠":{"ha":1019,"x_min":222,"x_max":797,"o":"m 447 167 l 468 285 l 222 285 l 222 299 l 469 299 l 539 701 l 222 701 l 222 715 l 542 715 l 564 847 l 578 847 l 556 715 l 797 715 l 797 701 l 553 701 l 483 299 l 797 299 l 797 285 l 482 285 l 461 167 l 447 167 z "},"¬":{"ha":1019,"x_min":222,"x_max":797,"o":"m 783 549 l 222 549 l 222 563 l 797 563 l 797 213 l 783 213 l 783 549 z "},"^":{"ha":992,"x_min":208,"x_max":736,"o":"m 736 363 l 721 363 l 601 781 q 579 833 593 811 q 522 856 565 856 l 421 856 q 365 833 378 856 q 342 779 351 811 l 224 363 l 208 363 l 328 782 q 355 845 338 821 q 421 869 372 869 l 522 869 q 588 844 571 869 q 615 783 606 819 l 736 363 z "},"~":{"ha":1019,"x_min":222,"x_max":797,"o":"m 222 511 l 222 526 q 319 541 272 540 q 456 528 365 542 l 511 521 l 543 517 q 624 504 590 510 q 685 497 657 499 q 739 499 713 496 q 797 511 765 503 l 797 496 q 739 485 765 488 q 684 484 713 482 q 622 491 656 486 q 540 503 588 496 l 508 507 l 453 514 q 376 524 408 521 q 319 526 344 526 q 270 522 293 525 q 222 511 247 518 z "},"∂":{"ha":961,"x_min":215,"x_max":732,"o":"m 464 99 q 367 104 413 99 q 288 126 321 110 q 235 175 254 143 q 215 260 215 207 l 215 382 q 235 465 215 435 q 287 510 254 496 q 364 528 319 525 q 460 532 408 532 q 618 520 544 532 q 718 450 692 508 l 718 715 q 672 831 718 801 q 546 861 625 861 l 301 861 l 301 875 l 546 875 q 683 841 633 875 q 732 715 732 807 l 732 260 q 711 174 732 207 q 654 125 690 142 q 569 103 618 108 q 464 99 519 99 m 464 113 q 561 117 515 113 q 642 135 607 121 q 697 180 676 150 q 718 260 718 210 l 718 386 q 695 463 718 436 q 635 503 672 490 q 552 517 599 515 q 460 518 506 518 q 372 516 414 518 q 299 501 331 514 q 248 460 267 488 q 229 382 229 432 l 229 260 q 248 181 229 211 q 299 136 267 151 q 374 117 331 121 q 464 113 417 113 z "},"∏":{"ha":1054,"x_min":246,"x_max":807,"o":"m 246 125 l 246 875 l 807 875 l 807 125 l 793 125 l 793 861 l 260 861 l 260 125 l 246 125 z "},"∑":{"ha":903,"x_min":196,"x_max":714,"o":"m 689 882 l 689 868 l 278 868 q 247 855 260 868 q 235 825 235 842 l 235 804 q 243 767 235 782 q 269 736 251 753 l 503 508 q 522 485 517 494 q 528 463 528 475 l 528 454 q 522 432 528 442 q 503 408 517 422 l 247 128 q 221 99 232 110 q 210 69 210 89 l 210 49 q 220 24 210 32 q 250 15 231 15 l 714 15 l 714 1 l 250 1 q 209 14 222 1 q 196 49 196 26 l 196 69 q 207 105 196 92 q 236 136 218 118 l 492 417 q 508 437 503 429 q 514 454 514 444 l 514 463 q 509 480 514 472 q 494 497 504 488 l 261 725 q 230 762 239 746 q 221 804 221 778 l 221 825 q 237 865 221 847 q 278 882 253 882 l 689 882 z "},"∆":{"ha":1014,"x_min":225,"x_max":783,"o":"m 225 125 l 225 268 q 230 341 225 307 q 240 400 235 375 l 322 743 q 345 815 333 789 q 373 852 357 840 q 412 866 389 864 q 467 868 435 868 l 538 868 q 592 866 569 868 q 631 852 614 864 q 659 815 647 840 q 682 743 671 789 l 769 396 q 779 340 775 374 q 783 268 783 307 l 783 125 l 225 125 m 239 268 l 239 139 l 769 139 l 769 268 q 765 339 769 307 q 756 393 761 371 l 668 740 q 647 806 658 782 q 622 840 636 829 q 587 852 607 850 q 538 854 567 854 l 467 854 q 417 852 438 854 q 383 840 397 850 q 357 806 368 829 q 336 740 346 782 l 254 397 q 244 340 249 372 q 239 268 239 307 z "},"Ω":{"ha":1079,"x_min":175,"x_max":906,"o":"m 807 365 l 807 704 q 751 830 807 782 q 540 878 694 878 q 330 830 386 878 q 274 704 274 782 l 274 365 q 291 253 274 292 q 379 192 308 214 l 385 190 l 385 125 l 175 125 l 175 139 l 371 139 l 371 179 q 279 244 299 203 q 260 365 260 286 l 260 704 q 319 840 260 788 q 540 892 378 892 q 762 840 703 892 q 821 704 821 788 l 821 365 q 801 244 821 286 q 710 179 782 201 l 710 139 l 906 139 l 906 125 l 696 125 l 696 190 l 701 192 q 790 253 772 214 q 807 365 807 292 z "},"π":{"ha":1001,"x_min":236,"x_max":767,"o":"m 236 125 l 236 667 l 767 667 l 767 125 l 753 125 l 753 653 l 250 653 l 250 125 l 236 125 z "},"µ":{"ha":990,"x_min":236,"x_max":764,"o":"m 499 108 q 326 139 383 108 q 250 221 268 169 l 250 0 l 236 0 l 236 667 l 250 667 l 250 296 q 302 170 250 218 q 499 122 354 122 q 697 170 643 122 q 750 296 750 218 l 750 667 l 764 667 l 764 296 q 708 160 764 213 q 499 108 651 108 z "},"√":{"ha":1029,"x_min":165,"x_max":856,"o":"m 165 544 l 165 558 l 261 558 q 282 553 275 558 q 294 535 289 549 l 432 154 q 440 138 435 144 q 457 132 446 132 l 617 132 q 634 136 626 132 q 644 154 642 140 l 842 1000 l 856 1000 l 658 151 q 642 125 654 132 q 617 118 631 118 l 457 118 q 431 126 439 118 q 418 149 424 135 l 281 529 q 274 542 278 539 q 261 544 269 544 l 165 544 z "},"∞":{"ha":1219,"x_min":188,"x_max":1033,"o":"m 839 247 q 696 277 738 247 q 636 389 654 307 l 615 482 l 607 388 q 550 285 601 319 q 383 251 499 251 q 283 263 321 251 q 223 292 244 274 q 194 335 201 310 q 188 386 188 360 l 188 632 q 194 678 188 653 q 222 726 201 704 q 281 762 243 747 q 382 776 319 776 q 528 749 483 776 q 592 643 574 722 l 608 572 l 614 642 q 671 745 619 710 q 838 781 722 781 q 938 769 900 781 q 998 739 976 758 q 1026 694 1019 719 q 1033 643 1033 669 l 1033 393 q 1026 347 1033 372 q 997 299 1018 321 q 938 262 976 276 q 839 247 900 247 m 839 261 q 928 274 893 261 q 984 307 964 288 q 1012 349 1004 326 q 1019 393 1019 372 l 1019 643 q 985 730 1019 693 q 838 767 950 767 q 683 736 733 767 q 628 642 633 706 l 618 528 l 650 392 q 706 289 667 317 q 839 261 746 261 m 383 265 q 538 294 488 265 q 593 388 588 324 l 604 525 l 578 640 q 518 738 561 714 q 382 763 475 763 q 291 750 326 763 q 235 718 256 738 q 208 676 215 699 q 201 632 201 653 l 201 386 q 236 301 201 336 q 383 265 271 265 z "},"◊":{"ha":1015,"x_min":239,"x_max":775,"o":"m 372 832 q 392 858 381 850 q 424 865 404 865 l 590 865 q 620 858 608 865 q 640 832 632 850 l 763 563 q 773 534 771 544 q 775 510 775 524 l 775 490 q 773 465 775 475 q 763 436 771 454 l 642 168 q 622 142 633 150 q 590 135 610 135 l 422 135 q 392 142 404 135 q 372 168 381 150 l 251 436 q 241 465 243 454 q 239 490 239 475 l 239 510 q 241 534 239 524 q 251 563 243 544 l 372 832 m 590 851 l 424 851 q 400 846 408 851 q 386 826 392 840 l 265 557 q 255 531 257 540 q 253 510 253 522 l 253 490 q 255 467 253 476 q 265 442 257 458 l 386 174 q 400 154 392 160 q 422 149 408 149 l 590 149 q 614 154 606 149 q 628 174 622 160 l 749 442 q 759 467 757 458 q 761 490 761 476 l 761 510 q 759 531 761 522 q 749 557 757 540 l 626 826 q 613 846 621 840 q 590 851 604 851 z "},"∫":{"ha":658,"x_min":146,"x_max":499,"o":"m 499 997 l 499 983 q 382 951 428 983 q 336 829 336 918 l 336 189 q 297 38 336 72 q 146 3 258 3 l 146 17 q 286 49 250 17 q 322 189 322 81 l 322 829 q 371 961 322 925 q 499 997 419 997 z "},"$":{"ha":903,"x_min":196,"x_max":696,"o":"m 542 125 l 469 125 l 469 0 l 456 0 l 456 125 l 196 125 l 196 139 l 542 139 q 644 174 606 139 q 682 265 682 210 l 682 346 q 659 435 682 411 q 597 468 636 460 l 304 528 q 245 556 268 535 q 222 635 222 578 l 222 749 q 261 840 222 804 q 364 875 300 875 l 456 875 l 456 1000 l 469 1000 l 469 875 l 672 875 l 672 861 l 364 861 q 271 829 306 861 q 236 749 236 797 l 236 635 q 256 567 236 586 q 307 542 275 547 l 600 482 q 669 446 642 474 q 696 346 696 418 l 696 265 q 654 165 696 204 q 542 125 613 125 z "},"¢":{"ha":872,"x_min":231,"x_max":685,"o":"m 497 182 l 453 182 q 274 224 318 182 q 231 361 231 265 l 231 635 q 275 775 231 733 q 453 817 319 817 l 497 817 l 497 944 l 511 944 l 511 817 l 685 817 l 685 803 l 453 803 q 288 765 331 803 q 244 635 244 726 l 244 361 q 286 233 244 271 q 453 196 328 196 l 685 196 l 685 182 l 511 182 l 511 56 l 497 56 l 497 182 z "},"£":{"ha":965,"x_min":153,"x_max":758,"o":"m 758 329 l 758 125 l 247 125 l 247 485 l 153 485 l 153 499 l 247 499 l 247 717 q 298 841 247 807 q 438 875 349 875 l 626 875 l 626 861 l 438 861 q 309 831 357 861 q 261 717 261 800 l 261 499 l 403 499 l 403 485 l 261 485 l 261 139 l 744 139 l 744 329 l 758 329 z "},"¤":{"ha":1140,"x_min":222,"x_max":925,"o":"m 914 153 l 786 283 q 711 233 761 251 q 574 214 661 214 q 435 233 486 214 q 361 283 385 251 l 233 153 l 222 161 l 353 294 q 334 344 339 317 q 329 403 329 372 l 329 600 q 335 661 329 632 q 354 713 340 690 l 225 844 l 236 853 l 363 724 q 438 772 388 754 q 574 790 489 790 q 709 772 658 790 q 783 722 760 754 l 911 853 l 922 844 l 792 711 q 811 660 806 689 q 817 600 817 632 l 817 403 q 812 345 817 372 q 793 296 807 318 l 925 161 l 914 153 m 574 228 q 688 240 643 228 q 758 276 733 253 q 793 331 783 299 q 803 403 803 364 l 803 600 q 793 673 803 640 q 758 728 783 706 q 688 764 733 751 q 574 776 643 776 q 458 764 503 776 q 388 728 413 751 q 353 673 363 706 q 343 600 343 640 l 343 403 q 353 331 343 364 q 388 276 363 299 q 458 240 413 253 q 574 228 503 228 z "},"¥":{"ha":976,"x_min":213,"x_max":769,"o":"m 721 290 l 497 290 l 497 125 l 483 125 l 483 290 l 257 290 l 257 304 l 483 304 l 483 429 l 458 429 q 406 441 428 429 q 363 483 385 453 l 243 643 q 219 702 225 674 q 213 778 213 731 l 213 875 l 226 875 l 226 778 q 232 707 226 733 q 254 651 238 681 l 374 492 q 413 454 394 465 q 458 443 432 443 l 524 443 q 569 454 550 443 q 608 492 588 465 l 728 651 q 750 707 744 681 q 756 778 756 733 l 756 875 l 769 875 l 769 778 q 763 702 769 731 q 739 643 757 674 l 619 483 q 576 441 597 453 q 524 429 554 429 l 497 429 l 497 304 l 721 304 l 721 290 z "},"€":{"ha":900,"x_min":153,"x_max":714,"o":"m 475 125 q 297 167 340 125 q 253 304 253 208 l 253 379 l 153 379 l 153 393 l 253 393 l 253 601 l 153 601 l 153 615 l 253 615 l 253 693 q 297 833 253 792 q 475 875 342 875 l 714 875 l 714 861 l 475 861 q 310 823 353 861 q 267 693 267 785 l 267 615 l 597 615 l 597 601 l 267 601 l 267 393 l 597 393 l 597 379 l 267 379 l 267 304 q 308 176 267 214 q 475 139 350 139 l 714 139 l 714 125 l 475 125 z "},"ƒ":{"ha":797,"x_min":188,"x_max":610,"o":"m 188 125 l 188 139 l 201 139 q 354 171 317 139 q 392 311 392 203 l 392 492 l 188 492 l 188 506 l 392 506 l 392 707 q 442 839 392 803 q 582 875 492 875 l 610 875 l 610 861 l 582 861 q 453 828 500 861 q 406 707 406 796 l 406 506 l 610 506 l 610 492 l 406 492 l 406 311 q 365 160 406 194 q 201 125 324 125 l 188 125 z "},"®":{"ha":778,"x_min":113,"x_max":665,"o":"m 665 817 l 665 483 q 654 410 665 443 q 613 355 643 378 q 528 320 582 332 q 389 308 474 308 q 251 320 306 308 q 167 355 197 332 q 124 410 136 378 q 113 483 113 443 l 113 817 q 124 892 113 858 q 167 948 136 925 q 251 983 197 971 q 389 994 306 994 q 528 983 474 994 q 613 948 582 971 q 654 892 643 925 q 665 817 665 858 m 389 322 q 518 333 467 322 q 599 364 569 343 q 640 415 628 385 q 651 483 651 444 l 651 817 q 640 888 651 857 q 599 939 628 918 q 518 970 569 960 q 389 981 467 981 q 180 938 233 981 q 126 817 126 896 l 126 483 q 180 364 126 406 q 389 322 233 322 m 383 804 l 288 804 l 288 646 l 383 646 q 446 660 429 646 q 463 701 463 675 l 463 742 q 442 788 463 771 q 383 804 422 804 m 288 501 l 274 501 l 274 818 l 383 818 q 453 797 431 818 q 476 742 476 775 l 476 701 q 471 669 476 683 q 450 646 465 654 q 500 628 483 644 q 517 581 517 611 l 517 501 l 503 501 l 503 581 q 488 619 503 606 q 444 632 472 632 l 288 632 l 288 501 z "},"™":{"ha":1254,"x_min":81,"x_max":1090,"o":"m 268 485 l 268 907 l 81 907 l 81 921 l 474 921 l 474 907 l 282 907 l 282 485 l 268 485 m 696 485 l 682 485 l 682 894 q 690 914 682 907 q 707 921 697 921 l 717 921 q 732 918 724 921 q 746 906 740 915 l 874 726 q 879 720 876 722 q 885 718 882 718 l 888 718 q 895 722 893 718 q 900 728 897 725 l 1026 906 q 1040 918 1032 915 q 1056 921 1049 921 l 1065 921 q 1083 914 1075 921 q 1090 894 1090 907 l 1090 485 l 1076 485 l 1076 894 q 1074 903 1076 900 q 1065 907 1071 907 l 1056 907 q 1046 905 1050 907 q 1038 897 1042 903 l 911 719 q 901 708 906 713 q 888 704 897 704 l 885 704 q 873 707 878 704 q 863 718 868 710 l 735 897 q 726 905 731 903 q 717 907 722 907 l 707 907 q 699 903 703 907 q 696 894 696 900 l 696 485 z "},"°":{"ha":671,"x_min":158,"x_max":514,"o":"m 514 807 l 514 628 q 476 543 514 568 q 336 518 439 518 q 197 543 235 518 q 158 628 158 568 l 158 807 q 197 892 158 867 q 336 918 235 918 q 476 892 439 918 q 514 807 514 867 m 336 532 q 464 553 428 532 q 500 628 500 574 l 500 807 q 464 883 500 861 q 336 904 428 904 q 208 883 244 904 q 172 807 172 861 l 172 628 q 208 553 172 574 q 336 532 244 532 z "},"©":{"ha":1204,"x_min":146,"x_max":1058,"o":"m 1058 789 l 1058 208 q 1042 106 1058 156 q 976 17 1025 56 q 838 -44 928 -21 q 603 -67 749 -67 q 367 -46 457 -67 q 228 12 276 -25 q 163 99 179 49 q 146 208 146 150 l 146 789 q 159 893 146 843 q 219 982 172 943 q 356 1044 265 1021 q 603 1067 447 1067 q 849 1044 758 1067 q 986 982 940 1021 q 1045 893 1032 943 q 1058 789 1058 843 m 603 -53 q 827 -31 740 -53 q 962 26 914 -10 q 1027 110 1010 63 q 1044 208 1044 157 l 1044 789 q 1031 888 1044 840 q 972 973 1018 936 q 838 1031 926 1010 q 603 1053 750 1053 q 367 1031 456 1053 q 233 973 279 1010 q 174 888 188 936 q 160 789 160 840 l 160 208 q 177 103 160 151 q 243 21 194 56 q 378 -33 292 -14 q 603 -53 465 -53 m 765 240 l 597 240 q 468 270 501 240 q 435 371 435 300 l 435 650 q 469 751 435 721 q 597 781 504 781 l 765 781 l 765 768 l 597 768 q 480 741 511 768 q 449 650 449 714 l 449 371 q 479 281 449 307 q 597 254 510 254 l 765 254 l 765 240 z "},"℗":{"ha":1204,"x_min":146,"x_max":1058,"o":"m 1058 789 l 1058 208 q 1042 106 1058 156 q 976 17 1025 56 q 838 -44 928 -21 q 603 -67 749 -67 q 367 -46 457 -67 q 228 12 276 -25 q 163 99 179 49 q 146 208 146 150 l 146 789 q 159 893 146 843 q 219 982 172 943 q 356 1044 265 1021 q 603 1067 447 1067 q 849 1044 758 1067 q 986 982 940 1021 q 1045 893 1032 943 q 1058 789 1058 843 m 603 -53 q 827 -31 740 -53 q 962 26 914 -10 q 1027 110 1010 63 q 1044 208 1044 157 l 1044 789 q 1031 888 1044 840 q 972 973 1018 936 q 838 1031 926 1010 q 603 1053 750 1053 q 367 1031 456 1053 q 233 973 279 1010 q 174 888 188 936 q 160 789 160 840 l 160 208 q 177 103 160 151 q 243 21 194 56 q 378 -33 292 -14 q 603 -53 465 -53 m 433 240 l 433 783 l 651 783 q 775 744 747 783 q 803 644 803 704 l 803 571 q 775 474 803 511 q 651 436 747 436 l 447 436 l 447 240 l 433 240 m 651 769 l 447 769 l 447 450 l 651 450 q 766 485 743 450 q 789 571 789 519 l 789 644 q 766 733 789 697 q 651 769 743 769 z "},"´":{"ha":694,"x_min":181,"x_max":513,"o":"m 181 1176 l 513 1218 l 513 1204 l 181 1163 l 181 1176 z "},"`":{"ha":694,"x_min":181,"x_max":513,"o":"m 181 1204 l 181 1218 l 513 1176 l 513 1163 l 181 1204 z "},"˝":{"ha":694,"x_min":126,"x_max":538,"o":"m 503 1181 l 488 1181 l 522 1315 l 538 1315 l 503 1181 m 142 1181 l 126 1181 l 161 1315 l 176 1315 l 142 1181 z "},"ˆ":{"ha":694,"x_min":181,"x_max":511,"o":"m 511 1181 l 390 1219 q 370 1225 381 1222 q 346 1228 360 1228 q 322 1225 332 1228 q 301 1219 311 1222 l 181 1181 l 181 1196 l 296 1233 q 319 1239 308 1236 q 346 1242 331 1242 q 372 1239 361 1242 q 396 1233 383 1236 l 511 1196 l 511 1181 z "},"ˇ":{"ha":694,"x_min":181,"x_max":511,"o":"m 181 1221 l 301 1182 q 322 1176 311 1179 q 346 1174 332 1174 q 370 1176 360 1174 q 390 1182 381 1179 l 511 1221 l 511 1206 l 396 1168 q 372 1163 383 1165 q 346 1160 361 1160 q 319 1163 331 1160 q 296 1168 308 1165 l 181 1206 l 181 1221 z "},"˘":{"ha":694,"x_min":151,"x_max":547,"o":"m 533 1260 l 547 1260 l 547 1247 q 540 1208 547 1228 q 511 1172 532 1188 q 450 1146 490 1156 q 346 1136 410 1136 q 243 1146 282 1136 q 184 1172 204 1156 q 158 1208 164 1188 q 151 1247 151 1228 l 151 1260 l 165 1260 l 165 1247 q 199 1180 165 1210 q 346 1150 233 1150 q 496 1180 458 1150 q 533 1247 533 1210 l 533 1260 z "},"˜":{"ha":694,"x_min":181,"x_max":511,"o":"m 511 1168 l 511 1154 q 451 1154 483 1151 q 367 1165 419 1157 l 344 1168 l 306 1174 q 231 1182 260 1181 q 181 1179 203 1183 l 181 1194 q 233 1195 204 1197 q 308 1188 261 1193 l 347 1182 l 369 1179 q 453 1168 422 1171 q 511 1168 483 1165 z "},"¯":{"ha":694,"x_min":181,"x_max":513,"o":"m 181 1176 l 513 1176 l 513 1163 l 181 1163 l 181 1176 z "},"¨":{"ha":694,"x_min":158,"x_max":531,"o":"m 172 1153 l 158 1153 l 158 1218 l 172 1218 l 172 1153 m 531 1153 l 517 1153 l 517 1218 l 531 1218 l 531 1153 z "},"˙":{"ha":694,"x_min":342,"x_max":356,"o":"m 356 1153 l 342 1153 l 342 1235 l 356 1235 l 356 1153 z "},"˚":{"ha":694,"x_min":151,"x_max":546,"o":"m 151 1278 l 151 1354 q 159 1411 151 1385 q 188 1456 167 1438 q 247 1484 208 1474 q 347 1494 286 1494 q 508 1455 471 1494 q 546 1354 546 1415 l 546 1278 q 508 1177 546 1215 q 347 1139 471 1139 q 247 1149 286 1139 q 188 1177 208 1158 q 159 1222 167 1196 q 151 1278 151 1247 m 347 1481 q 201 1447 236 1481 q 165 1354 165 1413 l 165 1278 q 201 1186 165 1219 q 347 1153 236 1153 q 495 1186 458 1153 q 532 1278 532 1219 l 532 1354 q 495 1446 532 1411 q 347 1481 458 1481 z "},"¸":{"ha":694,"x_min":311,"x_max":392,"o":"m 378 135 l 392 133 l 325 -50 l 311 -50 l 378 135 z "},"˛":{"ha":694,"x_min":288,"x_max":400,"o":"m 400 -161 l 367 -161 q 301 -135 315 -161 q 296 -57 288 -108 l 313 58 q 326 106 318 92 q 364 136 335 119 l 372 125 q 338 100 346 111 q 326 58 331 89 l 310 -60 q 314 -124 304 -101 q 367 -147 324 -147 l 400 -147 l 400 -161 z "},"̦":{"ha":694,"x_min":265,"x_max":429,"o":"m 429 -183 l 429 -318 q 399 -410 429 -382 q 314 -437 369 -437 l 265 -437 l 265 -424 l 314 -424 q 390 -399 364 -424 q 415 -318 415 -374 l 415 -197 l 265 -197 l 265 -183 l 429 -183 z "},"":{"ha":694,"x_min":308,"x_max":349,"o":"m 324 746 l 308 746 l 333 875 l 349 875 l 324 746 z "},"←":{"ha":1389,"x_min":424,"x_max":1007,"o":"m 707 307 l 424 499 l 707 689 l 707 506 l 1007 506 l 1007 492 l 707 492 l 707 307 m 693 332 l 693 664 l 449 499 l 693 332 z "},"↑":{"ha":1389,"x_min":504,"x_max":886,"o":"m 688 179 l 688 479 l 504 479 l 694 763 l 886 479 l 701 479 l 701 179 l 688 179 m 861 493 l 694 738 l 529 493 l 861 493 z "},"→":{"ha":1389,"x_min":382,"x_max":965,"o":"m 682 307 l 682 492 l 382 492 l 382 506 l 682 506 l 682 689 l 965 499 l 682 307 m 696 332 l 940 499 l 696 664 l 696 332 z "},"↓":{"ha":1389,"x_min":504,"x_max":886,"o":"m 696 238 l 504 521 l 689 521 l 689 821 l 703 821 l 703 521 l 886 521 l 696 238 m 861 507 l 529 507 l 696 263 l 861 507 z "},"↖":{"ha":1389,"x_min":476,"x_max":894,"o":"m 885 300 l 672 513 l 542 382 l 476 718 l 811 651 l 682 522 l 894 310 l 885 300 m 550 410 l 783 643 l 494 700 l 550 410 z "},"↗":{"ha":1389,"x_min":496,"x_max":914,"o":"m 840 410 l 896 700 l 607 643 l 840 410 m 849 382 l 718 513 l 506 300 l 496 310 l 708 522 l 579 651 l 914 718 l 849 382 z "},"↘":{"ha":1389,"x_min":496,"x_max":914,"o":"m 914 282 l 579 349 l 708 478 l 496 690 l 506 700 l 718 488 l 849 618 l 914 282 m 896 300 l 840 590 l 607 357 l 896 300 z "},"↙":{"ha":1389,"x_min":489,"x_max":907,"o":"m 489 285 l 554 621 l 685 490 l 897 703 l 907 693 l 694 481 l 824 351 l 489 285 m 507 303 l 796 360 l 563 593 l 507 303 z "},"↪":{"ha":1389,"x_min":357,"x_max":1008,"o":"m 819 189 l 819 307 l 544 307 q 408 353 460 307 q 357 479 357 399 l 357 767 q 408 897 357 847 q 556 947 460 947 l 938 947 l 938 933 l 556 933 q 419 888 468 933 q 371 767 371 842 l 371 479 q 418 363 371 404 q 544 321 465 321 l 819 321 l 819 442 l 1008 315 l 819 189 m 833 214 l 983 315 l 833 417 l 833 214 z "},"↫":{"ha":1389,"x_min":410,"x_max":1061,"o":"m 599 189 l 410 315 l 599 442 l 599 321 l 874 321 q 1000 363 953 321 q 1047 479 1047 404 l 1047 767 q 999 888 1047 842 q 863 933 950 933 l 481 933 l 481 947 l 863 947 q 1010 897 958 947 q 1061 767 1061 847 l 1061 479 q 1010 353 1061 399 q 874 307 958 307 l 599 307 l 599 189 m 585 214 l 585 417 l 435 315 l 585 214 z "},"↰":{"ha":1389,"x_min":410,"x_max":1021,"o":"m 1007 125 l 1007 426 q 960 543 1007 501 q 833 585 913 585 l 599 585 l 599 464 l 410 590 l 599 717 l 599 599 l 833 599 q 969 553 918 599 q 1021 426 1021 507 l 1021 125 l 1007 125 m 585 489 l 585 692 l 435 590 l 585 489 z "},"↱":{"ha":1389,"x_min":371,"x_max":982,"o":"m 807 489 l 957 590 l 807 692 l 807 489 m 371 125 l 371 426 q 422 553 371 507 q 558 599 474 599 l 793 599 l 793 717 l 982 590 l 793 464 l 793 585 l 558 585 q 432 543 479 585 q 385 426 385 501 l 385 125 l 371 125 z "},"↲":{"ha":1389,"x_min":410,"x_max":1021,"o":"m 599 256 l 410 382 l 599 508 l 599 388 l 833 388 q 960 429 913 388 q 1007 546 1007 471 l 1007 847 l 1021 847 l 1021 546 q 969 419 1021 465 q 833 374 918 374 l 599 374 l 599 256 m 585 281 l 585 483 l 435 382 l 585 281 z "},"↳":{"ha":1389,"x_min":343,"x_max":954,"o":"m 765 244 l 765 363 l 531 363 q 394 408 446 363 q 343 535 343 454 l 343 836 l 357 836 l 357 535 q 404 418 357 460 q 531 376 451 376 l 765 376 l 765 497 l 954 371 l 765 244 m 779 269 l 929 371 l 779 472 l 779 269 z "},"☚":{"ha":1389,"x_min":0,"x_max":0,"o":""},"☛":{"ha":1389,"x_min":0,"x_max":0,"o":""},"":{"ha":1389,"x_min":0,"x_max":0,"o":""},"":{"ha":1389,"x_min":0,"x_max":0,"o":""},"":{"ha":1389,"x_min":0,"x_max":0,"o":""},"":{"ha":1389,"x_min":0,"x_max":0,"o":""},"":{"ha":1389,"x_min":0,"x_max":0,"o":""},"":{"ha":1389,"x_min":0,"x_max":0,"o":""},"☜":{"ha":1389,"x_min":0,"x_max":0,"o":""},"☝":{"ha":1389,"x_min":0,"x_max":0,"o":""},"☞":{"ha":1389,"x_min":0,"x_max":0,"o":""},"☟":{"ha":1389,"x_min":0,"x_max":0,"o":""},"":{"ha":1389,"x_min":0,"x_max":0,"o":""},"":{"ha":1389,"x_min":0,"x_max":0,"o":""},"":{"ha":1389,"x_min":0,"x_max":0,"o":""},"":{"ha":1389,"x_min":0,"x_max":0,"o":""},"":{"ha":1389,"x_min":0,"x_max":0,"o":""},"":{"ha":1389,"x_min":0,"x_max":0,"o":""},"":{"ha":1389,"x_min":0,"x_max":0,"o":""},"":{"ha":1389,"x_min":0,"x_max":0,"o":""},"":{"ha":1389,"x_min":0,"x_max":0,"o":""},"":{"ha":1389,"x_min":0,"x_max":0,"o":""},"":{"ha":1389,"x_min":0,"x_max":0,"o":""},"":{"ha":1389,"x_min":0,"x_max":0,"o":""},"":{"ha":1389,"x_min":0,"x_max":0,"o":""},"":{"ha":1389,"x_min":0,"x_max":0,"o":""},"":{"ha":1389,"x_min":0,"x_max":0,"o":""},"":{"ha":1389,"x_min":0,"x_max":0,"o":""},"":{"ha":1389,"x_min":0,"x_max":0,"o":""},"":{"ha":1389,"x_min":0,"x_max":0,"o":""},"":{"ha":1389,"x_min":0,"x_max":0,"o":""},"":{"ha":1389,"x_min":0,"x_max":0,"o":""}," ":{"ha":1389,"x_min":0,"x_max":0,"o":""}," ":{"ha":694,"x_min":0,"x_max":0,"o":""},"█":{"ha":1389,"x_min":-56,"x_max":1444,"o":"m -56 1208 l -56 1222 l 1444 1222 l 1444 1208 l -56 1208 m -56 -222 l -56 -208 l 1444 -208 l 1444 -222 l -56 -222 z "},"":{"ha":1389,"x_min":-28,"x_max":1417,"o":"m 1417 -250 l 1403 -250 l 1403 1250 l 1417 1250 l 1417 -250 m -14 -250 l -28 -250 l -28 1250 l -14 1250 l -14 -250 z "},"◖":{"ha":758,"x_min":28,"x_max":814,"o":"m 814 1208 l 750 1208 q 464 1156 594 1208 q 240 1010 333 1103 q 94 786 147 917 q 42 500 42 656 q 94 214 42 344 q 240 -10 147 83 q 464 -156 333 -103 q 750 -208 594 -208 l 814 -208 l 814 -222 l 750 -222 q 458 -169 592 -222 q 230 -20 325 -115 q 81 208 135 75 q 28 500 28 342 q 81 792 28 658 q 230 1020 135 925 q 458 1169 325 1115 q 750 1222 592 1222 l 814 1222 l 814 1208 z "},"◗":{"ha":758,"x_min":-56,"x_max":731,"o":"m -56 1208 l -56 1222 l 8 1222 q 300 1169 167 1222 q 528 1020 433 1115 q 677 792 624 925 q 731 500 731 658 q 677 208 731 342 q 528 -20 624 75 q 300 -169 433 -115 q 8 -222 167 -222 l -56 -222 l -56 -208 l 8 -208 q 294 -156 164 -208 q 518 -10 425 -103 q 664 214 611 83 q 717 500 717 344 q 664 786 717 656 q 518 1010 611 917 q 294 1156 425 1103 q 8 1208 164 1208 l -56 1208 z "},"":{"ha":1854,"x_min":206,"x_max":1650,"o":"m 1636 93 l 1636 157 q 1583 443 1636 313 q 1438 667 1531 574 q 1214 813 1344 760 q 928 865 1083 865 q 642 813 772 865 q 418 667 511 760 q 272 443 325 574 q 219 157 219 313 l 219 93 l 206 93 l 206 157 q 259 449 206 315 q 408 677 313 582 q 636 826 503 772 q 928 879 769 879 q 1219 826 1086 879 q 1448 677 1353 772 q 1597 449 1543 582 q 1650 157 1650 315 l 1650 93 l 1636 93 z "},"":{"ha":1854,"x_min":206,"x_max":1650,"o":"m 1636 907 l 1650 907 l 1650 843 q 1597 551 1650 685 q 1448 323 1543 418 q 1219 174 1353 228 q 928 121 1086 121 q 636 174 769 121 q 408 323 503 228 q 259 551 313 418 q 206 843 206 685 l 206 907 l 219 907 l 219 843 q 272 557 219 688 q 418 333 325 426 q 642 188 511 240 q 928 135 772 135 q 1214 188 1083 135 q 1438 333 1344 240 q 1583 557 1531 426 q 1636 843 1636 688 l 1636 907 z "},"":{"ha":778,"x_min":97,"x_max":833,"o":"m 694 -208 l 833 -208 l 833 -222 l 708 -222 l 708 -325 q 703 -342 708 -337 q 686 -347 699 -347 l 578 -347 q 560 -342 565 -347 q 556 -325 556 -337 l 556 -264 l 528 -264 q 410 -215 460 -264 q 361 -97 361 -165 l 361 -74 l 338 -69 q 161 81 225 -51 q 97 500 97 213 q 161 919 97 788 q 338 1069 225 1051 l 361 1074 l 361 1097 q 410 1215 361 1165 q 528 1264 460 1264 l 556 1264 l 556 1325 q 560 1342 556 1338 q 578 1347 565 1347 l 686 1347 q 703 1342 699 1347 q 708 1325 708 1338 l 708 1222 l 833 1222 l 833 1208 l 694 1208 l 694 1325 q 692 1331 694 1329 q 686 1333 690 1333 l 578 1333 q 572 1331 574 1333 q 569 1325 569 1329 l 569 1250 l 528 1250 q 420 1205 465 1250 q 375 1097 375 1160 l 375 1063 l 340 1056 q 171 906 231 1038 q 111 500 111 775 q 171 94 111 225 q 340 -56 231 -37 l 369 -61 l 375 -62 l 375 -97 q 420 -205 375 -160 q 528 -250 465 -250 l 569 -250 l 569 -325 q 572 -331 569 -329 q 578 -333 574 -333 l 686 -333 q 692 -331 690 -333 q 694 -325 694 -329 l 694 -208 z "},"":{"ha":778,"x_min":-56,"x_max":681,"o":"m 83 -208 l 83 -325 q 85 -331 83 -329 q 92 -333 88 -333 l 200 -333 q 206 -331 204 -333 q 208 -325 208 -329 l 208 -250 l 250 -250 q 358 -205 313 -250 q 403 -97 403 -160 l 403 -62 l 408 -61 l 438 -56 q 607 94 547 -37 q 667 500 667 225 q 607 906 667 775 q 438 1056 547 1038 l 403 1063 l 403 1097 q 358 1205 403 1160 q 250 1250 313 1250 l 208 1250 l 208 1325 q 206 1331 208 1329 q 200 1333 204 1333 l 92 1333 q 85 1331 88 1333 q 83 1325 83 1329 l 83 1208 l -56 1208 l -56 1222 l 69 1222 l 69 1325 q 74 1342 69 1338 q 92 1347 79 1347 l 200 1347 q 217 1342 213 1347 q 222 1325 222 1338 l 222 1264 l 250 1264 q 367 1215 318 1264 q 417 1097 417 1165 l 417 1074 l 440 1069 q 617 919 553 1051 q 681 500 681 788 q 617 81 681 213 q 440 -69 553 -51 l 417 -74 l 417 -97 q 367 -215 417 -165 q 250 -264 318 -264 l 222 -264 l 222 -325 q 217 -342 222 -337 q 200 -347 213 -347 l 92 -347 q 74 -342 79 -347 q 69 -325 69 -337 l 69 -222 l -56 -222 l -56 -208 l 83 -208 z "},"":{"ha":1778,"x_min":42,"x_max":1736,"o":"m 1597 208 l 1714 208 q 1720 210 1718 208 q 1722 217 1722 213 l 1722 325 q 1720 331 1722 329 q 1714 333 1718 333 l 1639 333 l 1639 375 q 1594 483 1639 438 q 1486 528 1549 528 l 1451 528 l 1450 533 l 1444 563 q 1295 732 1426 672 q 889 792 1164 792 q 483 732 614 792 q 333 563 351 672 l 326 528 l 292 528 q 184 483 229 528 q 139 375 139 438 l 139 333 l 64 333 q 58 331 60 333 q 56 325 56 329 l 56 217 q 58 210 56 213 q 64 208 60 208 l 181 208 l 181 69 l 167 69 l 167 194 l 64 194 q 47 199 51 194 q 42 217 42 204 l 42 325 q 47 342 42 338 q 64 347 51 347 l 125 347 l 125 375 q 174 492 125 443 q 292 542 224 542 l 315 542 l 319 565 q 469 742 338 678 q 889 806 601 806 q 1308 742 1176 806 q 1458 565 1440 678 l 1463 542 l 1486 542 q 1603 492 1554 542 q 1653 375 1653 443 l 1653 347 l 1714 347 q 1731 342 1726 347 q 1736 325 1736 338 l 1736 217 q 1731 199 1736 204 q 1714 194 1726 194 l 1611 194 l 1611 69 l 1597 69 l 1597 208 z "},"":{"ha":1778,"x_min":42,"x_max":1736,"o":"m 181 792 l 64 792 q 58 790 60 792 q 56 783 56 788 l 56 675 q 58 669 56 671 q 64 667 60 667 l 139 667 l 139 625 q 184 517 139 563 q 292 472 229 472 l 326 472 l 328 467 l 333 438 q 483 268 351 328 q 889 208 614 208 q 1295 268 1164 208 q 1444 438 1426 328 l 1451 472 l 1486 472 q 1594 517 1549 472 q 1639 625 1639 563 l 1639 667 l 1714 667 q 1720 669 1718 667 q 1722 675 1722 671 l 1722 783 q 1720 790 1722 788 q 1714 792 1718 792 l 1597 792 l 1597 931 l 1611 931 l 1611 806 l 1714 806 q 1731 801 1726 806 q 1736 783 1736 796 l 1736 675 q 1731 658 1736 663 q 1714 653 1726 653 l 1653 653 l 1653 625 q 1603 508 1653 557 q 1486 458 1554 458 l 1463 458 l 1458 435 q 1308 258 1440 322 q 889 194 1176 194 q 469 258 601 194 q 319 435 338 322 l 315 458 l 292 458 q 174 508 224 458 q 125 625 125 557 l 125 653 l 64 653 q 47 658 51 653 q 42 675 42 663 l 42 783 q 47 801 42 796 q 64 806 51 806 l 167 806 l 167 931 l 181 931 l 181 792 z "},"":{"ha":486,"x_min":125,"x_max":542,"o":"m 542 1208 l 425 1208 q 419 1206 421 1208 q 417 1200 417 1204 l 417 1125 l 375 1125 q 267 1080 313 1125 q 222 972 222 1035 l 222 931 l 147 931 q 141 928 143 931 q 139 922 139 926 l 139 78 q 141 72 139 74 q 147 69 143 69 l 222 69 l 222 28 q 267 -80 222 -35 q 375 -125 313 -125 l 417 -125 l 417 -200 q 419 -206 417 -204 q 425 -208 421 -208 l 542 -208 l 542 -222 l 425 -222 q 408 -217 413 -222 q 403 -200 403 -212 l 403 -139 l 375 -139 q 258 -90 307 -139 q 208 28 208 -40 l 208 56 l 147 56 q 130 60 135 56 q 125 78 125 65 l 125 922 q 130 940 125 935 q 147 944 135 944 l 208 944 l 208 972 q 258 1090 208 1040 q 375 1139 307 1139 l 403 1139 l 403 1200 q 408 1217 403 1213 q 425 1222 413 1222 l 542 1222 l 542 1208 z "},"":{"ha":486,"x_min":-56,"x_max":361,"o":"m -56 1208 l -56 1222 l 61 1222 q 78 1217 74 1222 q 83 1200 83 1213 l 83 1139 l 111 1139 q 228 1090 179 1139 q 278 972 278 1040 l 278 944 l 339 944 q 356 940 351 944 q 361 922 361 935 l 361 78 q 356 60 361 65 q 339 56 351 56 l 278 56 l 278 28 q 228 -90 278 -40 q 111 -139 179 -139 l 83 -139 l 83 -200 q 78 -217 83 -212 q 61 -222 74 -222 l -56 -222 l -56 -208 l 61 -208 q 67 -206 65 -208 q 69 -200 69 -204 l 69 -125 l 111 -125 q 219 -80 174 -125 q 264 28 264 -35 l 264 69 l 339 69 q 345 72 343 69 q 347 78 347 74 l 347 922 q 345 928 347 926 q 339 931 343 931 l 264 931 l 264 972 q 219 1080 264 1035 q 111 1125 174 1125 l 69 1125 l 69 1200 q 67 1206 69 1204 q 61 1208 65 1208 l -56 1208 z "},"":{"ha":1778,"x_min":167,"x_max":1611,"o":"m 1611 278 l 1597 278 l 1597 394 q 1595 401 1597 399 q 1589 403 1593 403 l 1514 403 l 1514 444 q 1469 552 1514 507 q 1361 597 1424 597 l 1319 597 l 1319 672 q 1317 678 1319 676 q 1311 681 1315 681 l 467 681 q 460 678 463 681 q 458 672 458 676 l 458 597 l 417 597 q 309 552 354 597 q 264 444 264 507 l 264 403 l 189 403 q 183 401 185 403 q 181 394 181 399 l 181 278 l 167 278 l 167 394 q 172 412 167 407 q 189 417 176 417 l 250 417 l 250 444 q 299 562 250 513 q 417 611 349 611 l 444 611 l 444 672 q 449 690 444 685 q 467 694 454 694 l 1311 694 q 1328 690 1324 694 q 1333 672 1333 685 l 1333 611 l 1361 611 q 1478 562 1429 611 q 1528 444 1528 513 l 1528 417 l 1589 417 q 1606 412 1601 417 q 1611 394 1611 407 l 1611 278 z "},"":{"ha":1778,"x_min":167,"x_max":1611,"o":"m 167 722 l 181 722 l 181 606 q 183 599 181 601 q 189 597 185 597 l 264 597 l 264 556 q 309 448 264 493 q 417 403 354 403 l 458 403 l 458 328 q 460 322 458 324 q 467 319 463 319 l 1311 319 q 1317 322 1315 319 q 1319 328 1319 324 l 1319 403 l 1361 403 q 1469 448 1424 403 q 1514 556 1514 493 l 1514 597 l 1589 597 q 1595 599 1593 597 q 1597 606 1597 601 l 1597 722 l 1611 722 l 1611 606 q 1606 588 1611 593 q 1589 583 1601 583 l 1528 583 l 1528 556 q 1478 438 1528 488 q 1361 389 1429 389 l 1333 389 l 1333 328 q 1328 310 1333 315 q 1311 306 1324 306 l 467 306 q 449 310 454 306 q 444 328 444 315 l 444 389 l 417 389 q 299 438 349 389 q 250 556 250 488 l 250 583 l 189 583 q 172 588 176 583 q 167 606 167 593 l 167 722 z "},"":{"ha":486,"x_min":75,"x_max":542,"o":"m 322 140 l 174 -235 q 174 -237 172 -236 q 185 -237 176 -239 l 383 -214 q 433 -209 419 -210 q 469 -208 447 -208 l 542 -208 l 542 -222 l 469 -222 q 434 -223 447 -222 q 386 -228 421 -224 l 175 -253 q 160 -248 165 -254 q 160 -229 154 -242 l 308 147 q 313 183 314 163 q 299 218 311 204 l 81 481 q 75 500 75 489 q 81 519 75 511 l 299 782 q 313 817 311 796 q 308 853 315 838 l 163 1224 q 162 1248 157 1243 q 182 1251 167 1253 l 386 1228 q 434 1223 421 1224 q 469 1222 447 1222 l 542 1222 l 542 1208 l 469 1208 q 433 1209 447 1208 q 383 1214 419 1210 l 179 1238 q 174 1235 174 1239 q 176 1229 175 1232 l 322 858 q 326 815 329 839 q 310 774 324 790 l 92 511 q 88 500 88 507 q 92 489 88 493 l 310 226 q 326 185 324 210 q 322 140 329 160 z "},"":{"ha":486,"x_min":-56,"x_max":411,"o":"m 164 140 q 160 185 157 160 q 176 226 163 210 l 394 489 q 399 500 399 493 q 394 511 399 507 l 176 774 q 160 815 163 790 q 164 858 157 839 l 310 1229 q 312 1235 311 1232 q 307 1238 313 1239 l 103 1214 q 53 1209 67 1210 q 17 1208 39 1208 l -56 1208 l -56 1222 l 17 1222 q 52 1223 39 1222 q 100 1228 65 1224 l 304 1251 q 324 1248 319 1253 q 324 1224 329 1243 l 178 853 q 173 817 171 838 q 188 782 175 796 l 406 519 q 411 500 411 511 q 406 481 411 489 l 188 218 q 174 183 175 204 q 178 147 172 163 l 326 -229 q 326 -248 332 -242 q 311 -253 321 -254 l 100 -228 q 52 -223 65 -224 q 17 -222 39 -222 l -56 -222 l -56 -208 l 17 -208 q 53 -209 39 -208 q 103 -214 67 -210 l 301 -237 q 312 -237 310 -239 q 313 -235 314 -236 l 164 140 z "},"":{"ha":1778,"x_min":136,"x_max":1643,"o":"m 531 472 l 156 621 q 153 620 154 622 q 153 610 151 618 l 176 411 q 181 361 181 375 q 182 325 182 347 l 182 253 l 168 253 l 168 325 q 167 360 168 347 q 163 408 167 374 l 138 619 q 142 635 136 629 q 161 635 149 640 l 538 486 q 574 482 553 481 q 608 496 594 483 l 871 714 q 890 719 879 719 q 910 714 901 719 l 1172 496 q 1207 481 1186 483 q 1243 486 1228 479 l 1614 632 q 1638 633 1633 638 q 1642 613 1643 628 l 1618 408 q 1613 360 1614 374 q 1613 325 1613 347 l 1613 253 l 1599 253 l 1599 325 q 1599 361 1599 347 q 1604 411 1600 375 l 1628 615 q 1626 620 1629 621 q 1619 618 1622 619 l 1249 472 q 1205 468 1229 465 q 1164 485 1181 471 l 901 703 q 890 707 897 707 q 879 703 883 707 l 617 485 q 575 468 600 471 q 531 472 550 465 z "},"":{"ha":1778,"x_min":135,"x_max":1642,"o":"m 529 528 q 574 532 549 535 q 615 515 599 529 l 878 297 q 889 293 882 293 q 900 297 896 293 l 1163 515 q 1203 532 1179 529 q 1247 528 1228 535 l 1618 382 q 1624 380 1621 381 q 1626 385 1628 379 l 1603 589 q 1598 639 1599 625 q 1597 675 1597 653 l 1597 747 l 1611 747 l 1611 675 q 1612 640 1611 653 q 1617 592 1613 626 l 1640 388 q 1637 367 1642 372 q 1613 368 1632 363 l 1242 514 q 1206 519 1226 521 q 1171 504 1185 517 l 908 286 q 889 281 900 281 q 869 286 878 281 l 607 504 q 572 518 593 517 q 536 514 551 519 l 160 365 q 141 365 147 360 q 136 381 135 371 l 161 592 q 166 640 165 626 q 167 675 167 653 l 167 747 l 181 747 l 181 675 q 180 639 181 653 q 175 589 179 625 l 151 390 q 151 380 150 382 q 154 379 153 378 l 529 528 z "},"":{"ha":486,"x_min":167,"x_max":542,"o":"m 542 1208 l 228 1208 q 192 1197 204 1208 q 181 1161 181 1185 l 181 -161 q 192 -197 181 -185 q 228 -208 204 -208 l 542 -208 l 542 -222 l 228 -222 q 182 -207 197 -222 q 167 -161 167 -192 l 167 1161 q 182 1207 167 1192 q 228 1222 197 1222 l 542 1222 l 542 1208 z "},"":{"ha":486,"x_min":-56,"x_max":319,"o":"m -56 1208 l -56 1222 l 258 1222 q 304 1207 289 1222 q 319 1161 319 1192 l 319 -161 q 304 -207 319 -192 q 258 -222 289 -222 l -56 -222 l -56 -208 l 258 -208 q 294 -197 282 -208 q 306 -161 306 -185 l 306 1161 q 294 1197 306 1185 q 258 1208 282 1208 l -56 1208 z "},"":{"ha":1778,"x_min":167,"x_max":1611,"o":"m 181 299 l 167 299 l 167 613 q 182 658 167 643 q 228 674 197 674 l 1550 674 q 1596 658 1581 674 q 1611 613 1611 643 l 1611 299 l 1597 299 l 1597 613 q 1585 648 1597 636 q 1550 660 1574 660 l 228 660 q 192 648 204 660 q 181 613 181 636 l 181 299 z "},"":{"ha":1778,"x_min":167,"x_max":1611,"o":"m 181 701 l 181 388 q 192 352 181 364 q 228 340 204 340 l 1550 340 q 1585 352 1574 340 q 1597 388 1597 364 l 1597 701 l 1611 701 l 1611 388 q 1596 342 1611 357 q 1550 326 1581 326 l 228 326 q 182 342 197 326 q 167 388 167 357 l 167 701 l 181 701 z "},"":{"ha":486,"x_min":125,"x_max":542,"o":"m 542 1208 l 451 1208 q 318 1172 376 1208 q 220 1053 260 1136 q 160 835 181 971 q 139 500 139 699 q 160 165 139 301 q 220 -53 181 29 q 318 -172 260 -136 q 451 -208 376 -208 l 542 -208 l 542 -222 l 451 -222 q 315 -187 375 -222 q 212 -69 254 -153 q 147 153 169 14 q 125 500 125 293 q 147 847 125 707 q 212 1069 169 986 q 315 1188 254 1153 q 451 1222 375 1222 l 542 1222 l 542 1208 z "},"":{"ha":486,"x_min":-56,"x_max":361,"o":"m -56 1208 l -56 1222 l 35 1222 q 172 1188 111 1222 q 274 1069 232 1153 q 339 847 317 986 q 361 500 361 707 q 339 153 361 293 q 274 -69 317 14 q 172 -187 232 -153 q 35 -222 111 -222 l -56 -222 l -56 -208 l 35 -208 q 168 -172 110 -208 q 266 -53 226 -136 q 326 165 306 29 q 347 500 347 301 q 326 835 347 699 q 266 1053 306 971 q 168 1172 226 1136 q 35 1208 110 1208 l -56 1208 z "},"":{"ha":1778,"x_min":167,"x_max":1611,"o":"m 1597 278 l 1597 368 q 1561 501 1597 443 q 1442 599 1525 560 q 1224 660 1360 639 q 889 681 1088 681 q 554 660 690 681 q 335 599 418 639 q 217 501 253 560 q 181 368 181 443 l 181 278 l 167 278 l 167 368 q 201 505 167 444 q 319 608 236 565 q 542 672 403 650 q 889 694 682 694 q 1235 672 1096 694 q 1458 608 1375 650 q 1576 505 1542 565 q 1611 368 1611 444 l 1611 278 l 1597 278 z "},"":{"ha":1778,"x_min":167,"x_max":1611,"o":"m 1597 722 l 1611 722 l 1611 632 q 1576 495 1611 556 q 1458 392 1542 435 q 1235 328 1375 350 q 889 306 1096 306 q 542 328 682 306 q 319 392 403 350 q 201 495 236 435 q 167 632 167 556 l 167 722 l 181 722 l 181 632 q 217 499 181 557 q 335 401 253 440 q 554 340 418 361 q 889 319 690 319 q 1224 340 1088 319 q 1442 401 1360 361 q 1561 499 1525 440 q 1597 632 1597 557 l 1597 722 z "},"":{"ha":903,"x_min":26,"x_max":958,"o":"m 958 1208 l 49 1208 q 43 1201 42 1208 q 46 1193 44 1194 l 321 503 l 321 500 l 315 485 l 49 -187 q 44 -199 47 -189 q 49 -208 40 -208 l 958 -208 l 958 -222 l 49 -222 q 32 -209 35 -222 q 35 -182 29 -196 l 301 490 l 306 500 l 32 1188 q 31 1212 26 1201 q 49 1222 35 1222 l 958 1222 l 958 1208 z "},"":{"ha":903,"x_min":-56,"x_max":876,"o":"m -56 1208 l -56 1222 l 854 1222 q 872 1212 868 1222 q 871 1188 876 1201 l 597 500 l 601 490 l 868 -182 q 871 -209 874 -196 q 854 -222 868 -222 l -56 -222 l -56 -208 l 854 -208 q 859 -199 863 -208 q 854 -187 856 -189 l 588 485 l 582 500 l 582 503 l 857 1193 q 860 1201 858 1194 q 854 1208 861 1208 l -56 1208 z "},"":{"ha":1389,"x_min":-28,"x_max":1417,"o":"m -14 21 l -28 21 l -28 928 q -15 947 -28 942 q 7 947 -3 951 l 694 674 l 1376 944 q 1403 945 1390 950 q 1417 922 1417 940 l 1417 21 l 1403 21 l 1403 922 q 1397 932 1403 931 q 1382 931 1390 933 l 694 658 l 1 933 q -7 934 0 935 q -14 928 -14 933 l -14 21 z "},"":{"ha":1389,"x_min":-28,"x_max":1417,"o":"m -14 979 l -14 69 q -7 64 -14 63 q 1 67 0 65 l 694 342 l 1382 69 q 1397 65 1390 67 q 1403 72 1403 64 l 1403 979 l 1417 979 l 1417 69 q 1403 53 1417 56 q 1376 56 1390 50 l 694 326 l 7 53 q -17 51 -7 47 q -28 69 -28 56 l -28 979 l -14 979 z "},"":{"ha":1250,"x_min":56,"x_max":1306,"o":"m 1306 1208 l 1246 1208 q 1058 1272 1125 1208 q 992 1464 992 1335 q 990 1470 992 1468 q 983 1472 988 1472 l 322 1472 q 316 1470 318 1472 q 314 1464 314 1468 l 314 1208 l 78 1208 q 72 1206 74 1208 q 69 1200 69 1204 l 69 -200 q 72 -206 69 -204 q 78 -208 74 -208 l 314 -208 l 314 -464 q 316 -470 314 -468 q 322 -472 318 -472 l 983 -472 q 990 -470 988 -472 q 992 -464 992 -468 q 1061 -272 992 -335 q 1256 -208 1131 -208 l 1306 -208 l 1306 -222 l 1256 -222 q 1072 -282 1138 -222 q 1006 -464 1006 -342 q 1001 -481 1006 -476 q 983 -486 996 -486 l 322 -486 q 305 -481 310 -486 q 300 -464 300 -476 l 300 -222 l 78 -222 q 60 -217 65 -222 q 56 -200 56 -212 l 56 1200 q 60 1217 56 1213 q 78 1222 65 1222 l 300 1222 l 300 1464 q 305 1481 300 1476 q 322 1486 310 1486 l 983 1486 q 1001 1481 996 1486 q 1006 1464 1006 1476 q 1069 1282 1006 1342 q 1246 1222 1132 1222 l 1306 1222 l 1306 1208 z "},"":{"ha":1250,"x_min":-56,"x_max":1194,"o":"m -56 1208 l -56 1222 l 4 1222 q 181 1282 118 1222 q 244 1464 244 1342 q 249 1481 244 1476 q 267 1486 254 1486 l 928 1486 q 945 1481 940 1486 q 950 1464 950 1476 l 950 1222 l 1172 1222 q 1190 1217 1185 1222 q 1194 1200 1194 1213 l 1194 -200 q 1190 -217 1194 -212 q 1172 -222 1185 -222 l 950 -222 l 950 -464 q 945 -481 950 -476 q 928 -486 940 -486 l 267 -486 q 249 -481 254 -486 q 244 -464 244 -476 q 178 -282 244 -342 q -6 -222 113 -222 l -56 -222 l -56 -208 l -6 -208 q 189 -272 119 -208 q 258 -464 258 -335 q 260 -470 258 -468 q 267 -472 263 -472 l 928 -472 q 934 -470 932 -472 q 936 -464 936 -468 l 936 -208 l 1172 -208 q 1178 -206 1176 -208 q 1181 -200 1181 -204 l 1181 1200 q 1178 1206 1181 1204 q 1172 1208 1176 1208 l 936 1208 l 936 1464 q 934 1470 936 1468 q 928 1472 932 1472 l 267 1472 q 260 1470 263 1472 q 258 1464 258 1468 q 192 1272 258 1335 q 4 1208 125 1208 l -56 1208 z "},"":{"ha":1778,"x_min":-97,"x_max":1875,"o":"m 1597 -139 l 1597 -79 q 1660 108 1597 42 q 1853 175 1724 175 q 1859 177 1857 175 q 1861 183 1861 179 l 1861 844 q 1859 851 1861 849 q 1853 853 1857 853 l 1597 853 l 1597 1089 q 1595 1095 1597 1093 q 1589 1097 1593 1097 l 189 1097 q 183 1095 185 1097 q 181 1089 181 1093 l 181 853 l -75 853 q -81 851 -79 853 q -83 844 -83 849 l -83 183 q -81 177 -83 179 q -75 175 -79 175 q 117 106 54 175 q 181 -89 181 36 l 181 -139 l 167 -139 l 167 -89 q 107 95 167 29 q -75 161 47 161 q -92 166 -87 161 q -97 183 -97 171 l -97 844 q -92 862 -97 857 q -75 867 -87 867 l 167 867 l 167 1089 q 172 1106 167 1101 q 189 1111 176 1111 l 1589 1111 q 1606 1106 1601 1111 q 1611 1089 1611 1101 l 1611 867 l 1853 867 q 1870 862 1865 867 q 1875 844 1875 857 l 1875 183 q 1870 166 1875 171 q 1853 161 1865 161 q 1671 98 1731 161 q 1611 -79 1611 35 l 1611 -139 l 1597 -139 z "},"":{"ha":1778,"x_min":-97,"x_max":1875,"o":"m 1597 1139 l 1611 1139 l 1611 1079 q 1671 902 1611 965 q 1853 839 1731 839 q 1870 834 1865 839 q 1875 817 1875 829 l 1875 156 q 1870 138 1875 143 q 1853 133 1865 133 l 1611 133 l 1611 -89 q 1606 -106 1611 -101 q 1589 -111 1601 -111 l 189 -111 q 172 -106 176 -111 q 167 -89 167 -101 l 167 133 l -75 133 q -92 138 -87 133 q -97 156 -97 143 l -97 817 q -92 834 -97 829 q -75 839 -87 839 q 107 905 47 839 q 167 1089 167 971 l 167 1139 l 181 1139 l 181 1089 q 117 894 181 964 q -75 825 54 825 q -81 823 -79 825 q -83 817 -83 821 l -83 156 q -81 149 -83 151 q -75 147 -79 147 l 181 147 l 181 -89 q 183 -95 181 -93 q 189 -97 185 -97 l 1589 -97 q 1595 -95 1593 -97 q 1597 -89 1597 -93 l 1597 147 l 1853 147 q 1859 149 1857 147 q 1861 156 1861 151 l 1861 817 q 1859 823 1861 821 q 1853 825 1857 825 q 1660 892 1724 825 q 1597 1079 1597 958 l 1597 1139 z "},"":{"ha":903,"x_min":39,"x_max":957,"o":"m 957 1208 l 850 1208 l 850 1446 q 834 1480 850 1468 q 799 1492 818 1492 q 750 1477 775 1492 q 703 1435 725 1463 l 97 629 q 64 567 75 600 q 53 501 53 535 q 64 435 53 468 q 97 374 75 403 l 703 -432 q 749 -474 724 -460 q 799 -489 775 -489 q 834 -477 818 -489 q 850 -443 850 -465 l 850 -208 l 957 -208 l 957 -222 l 864 -222 l 864 -443 q 844 -487 864 -471 q 799 -503 825 -503 q 743 -487 772 -503 q 692 -440 714 -472 l 86 365 q 50 431 61 396 q 39 501 39 467 q 50 572 39 536 q 86 638 61 607 l 692 1443 q 744 1490 715 1475 q 799 1506 772 1506 q 844 1490 825 1506 q 864 1446 864 1474 l 864 1222 l 957 1222 l 957 1208 z "},"➡":{"ha":903,"x_min":-56,"x_max":863,"o":"m -56 1208 l -56 1222 l 38 1222 l 38 1446 q 57 1490 38 1474 q 103 1506 76 1506 q 158 1490 129 1506 q 210 1443 186 1475 l 815 638 q 851 572 840 607 q 863 501 863 536 q 851 431 863 467 q 815 365 840 396 l 210 -440 q 158 -487 188 -472 q 103 -503 129 -503 q 57 -487 76 -503 q 38 -443 38 -471 l 38 -222 l -56 -222 l -56 -208 l 51 -208 l 51 -443 q 67 -477 51 -465 q 103 -489 83 -489 q 152 -474 126 -489 q 199 -432 178 -460 l 804 374 q 838 435 826 403 q 849 501 849 468 q 838 567 849 535 q 804 629 826 600 l 199 1435 q 151 1477 176 1463 q 103 1492 126 1492 q 67 1480 83 1492 q 51 1446 51 1468 l 51 1208 l -56 1208 z "},"":{"ha":1389,"x_min":-310,"x_max":1699,"o":"m -12 26 l -26 26 l -26 119 l -250 119 q -294 139 -278 119 q -310 185 -310 158 q -294 240 -310 211 q -247 292 -279 268 l 558 897 q 624 933 589 922 q 694 944 660 944 q 765 933 729 944 q 831 897 800 922 l 1636 292 q 1683 240 1668 269 q 1699 185 1699 211 q 1683 139 1699 158 q 1639 119 1667 119 l 1418 119 l 1418 26 l 1404 26 l 1404 133 l 1639 133 q 1673 149 1661 133 q 1685 185 1685 165 q 1670 234 1685 208 q 1628 281 1656 260 l 822 886 q 760 919 793 908 q 694 931 728 931 q 628 919 661 931 q 567 886 596 908 l -239 281 q -281 233 -267 258 q -296 185 -296 208 q -284 149 -296 165 q -250 133 -272 133 l -12 133 l -12 26 z "},"":{"ha":1389,"x_min":-310,"x_max":1699,"o":"m 1401 974 l 1415 974 l 1415 881 l 1639 881 q 1683 861 1667 881 q 1699 815 1699 842 q 1683 760 1699 789 q 1636 708 1668 732 l 831 103 q 765 67 800 78 q 694 56 729 56 q 624 67 660 56 q 558 103 589 78 l -247 708 q -294 760 -279 731 q -310 815 -310 789 q -294 861 -310 842 q -250 881 -278 881 l -29 881 l -29 974 l -15 974 l -15 867 l -250 867 q -284 851 -272 867 q -296 815 -296 835 q -281 766 -296 792 q -239 719 -267 740 l 567 114 q 628 81 596 92 q 694 69 661 69 q 760 81 728 69 q 822 114 793 92 l 1628 719 q 1670 767 1656 742 q 1685 815 1685 792 q 1673 851 1685 835 q 1639 867 1661 867 l 1401 867 l 1401 974 z "},"":{"ha":1389,"x_min":-83,"x_max":1615,"o":"m -56 1208 l -56 1222 l 360 1222 q 766 1158 582 1222 q 1079 960 950 1093 q 1280 622 1208 828 q 1351 139 1351 417 l 1351 -428 l 1593 -428 q 1609 -433 1603 -428 q 1615 -449 1615 -439 q 1606 -471 1615 -458 q 1586 -492 1596 -483 l 824 -1208 q 792 -1233 807 -1224 q 760 -1242 776 -1242 q 729 -1233 744 -1242 q 696 -1208 714 -1225 l -57 -492 q -74 -473 -65 -482 q -83 -450 -83 -464 q -77 -434 -83 -440 q -61 -428 -71 -428 l 157 -428 l 157 -335 q 127 -248 157 -274 q 26 -222 97 -222 l -56 -222 l -56 -208 l 26 -208 q 138 -237 106 -208 q 171 -335 171 -267 l 171 -442 l -61 -442 q -67 -444 -65 -442 q -69 -450 -69 -446 q -61 -465 -69 -456 q -46 -481 -53 -474 l 704 -1197 q 733 -1219 719 -1211 q 760 -1228 746 -1228 q 788 -1219 774 -1228 q 815 -1197 801 -1211 l 1578 -481 q 1594 -463 1588 -472 q 1601 -449 1601 -454 q 1599 -443 1601 -444 q 1593 -442 1597 -442 l 1338 -442 l 1338 139 q 1267 615 1338 413 q 1069 949 1197 818 q 760 1144 942 1081 q 360 1208 579 1208 l -56 1208 z "},"":{"ha":1389,"x_min":-83,"x_max":1615,"o":"m -56 -208 l 360 -208 q 760 -144 579 -208 q 1069 51 942 -81 q 1267 385 1197 182 q 1338 861 1338 588 l 1338 1442 l 1593 1442 q 1599 1443 1597 1442 q 1601 1449 1601 1444 q 1594 1463 1601 1454 q 1578 1481 1588 1472 l 815 2197 q 788 2219 801 2211 q 760 2228 774 2228 q 733 2219 746 2228 q 704 2197 719 2211 l -46 1481 q -61 1465 -53 1474 q -69 1450 -69 1456 q -67 1444 -69 1446 q -61 1442 -65 1442 l 171 1442 l 171 1335 q 138 1238 171 1267 q 26 1208 106 1208 l -56 1208 l -56 1222 l 26 1222 q 127 1248 97 1222 q 157 1335 157 1274 l 157 1428 l -61 1428 q -77 1434 -71 1428 q -83 1450 -83 1440 q -74 1473 -83 1464 q -57 1492 -65 1482 l 696 2208 q 729 2233 714 2225 q 760 2242 744 2242 q 792 2233 776 2242 q 824 2208 807 2224 l 1586 1492 q 1606 1471 1596 1483 q 1615 1449 1615 1458 q 1609 1433 1615 1439 q 1593 1428 1603 1428 l 1351 1428 l 1351 861 q 1280 378 1351 583 q 1079 40 1208 172 q 766 -158 950 -93 q 360 -222 582 -222 l -56 -222 l -56 -208 z "},"":{"ha":1854,"x_min":-814,"x_max":1650,"o":"m 1636 1250 l 1650 1250 l 1650 835 q 1585 428 1650 613 q 1388 115 1521 244 q 1050 -85 1256 -14 q 567 -157 844 -157 l 0 -157 l 0 -399 q -6 -415 0 -408 q -21 -421 -11 -421 q -43 -411 -31 -421 q -64 -392 -56 -401 l -781 371 q -805 403 -796 388 q -814 435 -814 418 q -806 465 -814 450 q -781 499 -797 481 l -64 1251 q -45 1269 -54 1260 q -22 1278 -36 1278 q -6 1272 -12 1278 q 0 1256 0 1265 l 0 1038 l 93 1038 q 180 1067 154 1038 q 206 1168 206 1097 l 206 1250 l 219 1250 l 219 1168 q 190 1056 219 1089 q 93 1024 161 1024 l -14 1024 l -14 1256 q -16 1262 -14 1260 q -22 1264 -18 1264 q -37 1256 -28 1264 q -53 1240 -46 1247 l -769 490 q -792 462 -783 475 q -800 435 -800 449 q -792 407 -800 421 q -769 379 -783 393 l -53 -383 q -35 -400 -44 -393 q -21 -407 -26 -407 q -15 -405 -17 -407 q -14 -399 -14 -403 l -14 -143 l 567 -143 q 1043 -73 840 -143 q 1377 125 1246 -3 q 1572 434 1508 253 q 1636 835 1636 615 l 1636 1250 z "},"":{"ha":1854,"x_min":206,"x_max":2669,"o":"m 219 1250 l 219 835 q 283 434 219 615 q 478 125 347 253 q 813 -73 610 -3 q 1289 -143 1015 -143 l 1869 -143 l 1869 -399 q 1871 -405 1869 -403 q 1876 -407 1872 -407 q 1891 -400 1882 -407 q 1908 -383 1900 -393 l 2625 379 q 2647 407 2639 393 q 2656 435 2656 421 q 2647 462 2656 449 q 2625 490 2639 475 l 1908 1240 q 1892 1256 1901 1247 q 1878 1264 1883 1264 q 1872 1262 1874 1264 q 1869 1256 1869 1260 l 1869 1024 l 1763 1024 q 1665 1056 1694 1024 q 1636 1168 1636 1089 l 1636 1250 l 1650 1250 l 1650 1168 q 1676 1067 1650 1097 q 1763 1038 1701 1038 l 1856 1038 l 1856 1256 q 1862 1272 1856 1265 q 1878 1278 1868 1278 q 1901 1269 1892 1278 q 1919 1251 1910 1260 l 2636 499 q 2661 465 2653 481 q 2669 435 2669 450 q 2660 403 2669 418 q 2636 371 2651 388 l 1919 -392 q 1899 -411 1911 -401 q 1876 -421 1886 -421 q 1861 -415 1867 -421 q 1856 -399 1856 -408 l 1856 -157 l 1289 -157 q 806 -85 1011 -157 q 467 115 600 -14 q 270 428 335 244 q 206 835 206 613 l 206 1250 l 219 1250 z "},"⬛":{"ha":1778,"x_min":167,"x_max":1611,"o":"m 167 -222 l 167 1222 l 1611 1222 l 1611 -222 l 167 -222 m 1597 -208 l 1597 1208 l 181 1208 l 181 -208 l 1597 -208 z "},"⬤":{"ha":1778,"x_min":125,"x_max":1653,"o":"m 125 486 q 181 795 125 654 q 338 1037 238 936 q 580 1194 439 1138 q 889 1250 721 1250 q 1198 1194 1057 1250 q 1440 1037 1339 1138 q 1597 795 1540 936 q 1653 486 1653 654 q 1597 177 1653 318 q 1440 -65 1540 36 q 1198 -222 1339 -165 q 889 -278 1057 -278 q 580 -222 721 -278 q 338 -65 439 -165 q 181 177 238 36 q 125 486 125 318 m 1639 486 q 1583 789 1639 650 q 1429 1026 1528 928 q 1192 1181 1331 1125 q 889 1236 1053 1236 q 586 1181 725 1236 q 349 1026 447 1125 q 194 789 250 928 q 139 486 139 650 q 194 183 139 322 q 349 -54 250 44 q 586 -208 447 -153 q 889 -264 725 -264 q 1192 -208 1053 -264 q 1429 -54 1331 -153 q 1583 183 1528 44 q 1639 486 1639 322 z "},"":{"ha":1778,"x_min":167,"x_max":1611,"o":"m 1610 50 q 1463 -88 1546 -29 q 1289 -186 1381 -147 q 1096 -244 1197 -225 q 893 -264 994 -264 q 689 -244 790 -264 q 494 -185 588 -224 q 317 -87 400 -146 q 168 49 233 -29 l 167 50 l 167 950 l 168 951 q 318 1088 235 1029 q 494 1185 401 1146 q 687 1244 586 1224 q 889 1264 788 1264 q 1091 1244 990 1264 q 1284 1185 1192 1224 q 1460 1088 1376 1146 q 1610 951 1543 1029 l 1611 950 l 1611 51 l 1610 50 m 893 -250 q 1091 -231 992 -250 q 1281 -174 1190 -212 q 1453 -78 1372 -136 q 1597 57 1533 -21 l 1597 944 q 1450 1077 1532 1019 q 1277 1173 1368 1135 q 1088 1231 1186 1211 q 889 1250 989 1250 q 690 1231 789 1250 q 499 1173 590 1211 q 327 1077 408 1135 q 181 944 246 1019 l 181 56 q 326 -77 244 -19 q 500 -173 408 -135 q 692 -231 592 -211 q 893 -250 793 -250 z "},"［":{"ha":1778,"x_min":125,"x_max":1653,"o":"m 1339 1221 q 1477 1074 1418 1157 q 1575 900 1536 992 q 1633 707 1614 808 q 1653 504 1653 606 q 1633 300 1653 401 q 1574 105 1613 199 q 1476 -72 1535 11 q 1340 -221 1418 -156 l 1339 -222 l 439 -222 l 438 -221 q 301 -71 360 -154 q 204 105 243 13 q 145 298 165 197 q 125 500 125 399 q 145 702 125 601 q 204 895 165 803 q 301 1071 243 988 q 438 1221 360 1154 l 439 1222 l 1338 1222 l 1339 1221 m 1639 504 q 1620 702 1639 603 q 1563 892 1601 801 q 1467 1064 1525 983 q 1332 1208 1410 1144 l 444 1208 q 312 1061 369 1143 q 216 888 254 979 q 158 699 178 797 q 139 500 139 600 q 158 301 139 400 q 216 110 178 201 q 312 -62 254 19 q 444 -208 369 -143 l 1333 -208 q 1466 -62 1408 -144 q 1562 111 1524 19 q 1619 303 1600 203 q 1639 504 1639 404 z "},"":{"ha":1778,"x_min":167,"x_max":1611,"o":"m 167 -222 l 167 1222 l 972 1222 q 1443 1054 1275 1222 q 1611 582 1611 886 l 1611 -222 l 167 -222 m 1597 -208 l 1597 582 q 1433 1044 1597 879 q 972 1208 1268 1208 l 181 1208 l 181 -208 l 1597 -208 z "},"＼":{"ha":1778,"x_min":167,"x_max":1611,"o":"m 1611 -222 l 167 -222 l 167 583 q 335 1054 167 886 q 807 1222 503 1222 l 1611 1222 l 1611 -222 m 1597 1208 l 807 1208 q 345 1044 510 1208 q 181 583 181 879 l 181 -208 l 1597 -208 l 1597 1208 z "},"":{"ha":1778,"x_min":167,"x_max":1753,"o":"m 167 1222 l 1753 1222 l 1467 -222 l 167 -222 l 167 1222 m 1736 1208 l 181 1208 l 181 -208 l 1456 -208 l 1736 1208 z "},"］":{"ha":1778,"x_min":167,"x_max":1611,"o":"m 167 -222 l 167 1364 l 1611 1078 l 1611 -222 l 167 -222 m 181 1347 l 181 -208 l 1597 -208 l 1597 1067 l 181 1347 z "},"":{"ha":1778,"x_min":28,"x_max":1614,"o":"m 1614 1222 l 1614 -222 l 314 -222 l 28 1222 l 1614 1222 m 44 1208 l 325 -208 l 1600 -208 l 1600 1208 l 44 1208 z "},"＾":{"ha":1778,"x_min":167,"x_max":1611,"o":"m 167 1225 l 1611 1225 l 1611 -75 l 167 -361 l 167 1225 m 181 -344 l 1597 -64 l 1597 1211 l 181 1211 l 181 -344 z "},"◜":{"ha":1778,"x_min":167,"x_max":1611,"o":"m 1611 1222 l 1611 -222 l 167 -222 l 167 -15 q 476 913 167 603 q 1404 1222 786 1222 l 1611 1222 m 1597 -208 l 1597 1208 l 1404 1208 q 487 902 793 1208 q 181 -15 181 596 l 181 -208 l 1597 -208 z "},"◝":{"ha":1778,"x_min":167,"x_max":1611,"o":"m 1611 -222 l 167 -222 l 167 1222 l 374 1222 q 1301 913 992 1222 q 1611 -15 1611 603 l 1611 -222 m 1597 -208 l 1597 -15 q 1291 902 1597 596 q 374 1208 985 1208 l 181 1208 l 181 -208 l 1597 -208 z "},"◟":{"ha":1778,"x_min":167,"x_max":1611,"o":"m 167 1222 l 1611 1222 l 1611 -222 l 1404 -222 q 476 88 786 -222 q 167 1015 167 397 l 167 1222 m 1597 -208 l 1597 1208 l 181 1208 l 181 1015 q 487 98 181 404 q 1404 -208 793 -208 l 1597 -208 z "},"◞":{"ha":1778,"x_min":167,"x_max":1611,"o":"m 167 -222 l 167 1222 l 1611 1222 l 1611 1015 q 1301 88 1611 397 q 374 -222 992 -222 l 167 -222 m 374 -208 q 1291 98 985 -208 q 1597 1015 1597 404 l 1597 1208 l 181 1208 l 181 -208 l 374 -208 z "},"":{"ha":1847,"x_min":38,"x_max":1824,"o":"m 824 -458 q 804 -453 814 -458 q 786 -439 794 -449 l 71 435 q 47 470 56 454 q 38 501 38 486 q 47 533 38 517 q 69 567 56 549 l 788 1443 q 807 1463 797 1457 q 826 1469 817 1469 q 842 1462 836 1469 q 849 1444 849 1454 l 849 1222 l 1824 1222 l 1538 500 l 1824 -222 l 849 -222 l 849 -433 q 841 -451 849 -443 q 824 -458 833 -458 m 824 -444 q 831 -441 828 -444 q 835 -433 835 -437 l 835 -208 l 1803 -208 l 1522 500 l 1803 1208 l 835 1208 l 835 1444 q 832 1452 835 1449 q 826 1456 829 1456 q 813 1450 819 1456 q 799 1435 806 1444 l 81 558 q 60 528 68 542 q 51 501 51 515 q 60 474 51 488 q 82 443 68 461 l 797 -431 q 810 -440 803 -436 q 824 -444 817 -444 z "},"":{"ha":1847,"x_min":24,"x_max":1810,"o":"m 1024 -458 q 1006 -451 1014 -458 q 999 -433 999 -443 l 999 -222 l 24 -222 l 310 500 l 24 1222 l 999 1222 l 999 1444 q 1005 1462 999 1454 q 1021 1469 1011 1469 q 1040 1463 1031 1469 q 1060 1443 1050 1457 l 1778 567 q 1801 533 1792 549 q 1810 501 1810 517 q 1801 470 1810 486 q 1776 435 1792 454 l 1061 -439 q 1043 -453 1053 -449 q 1024 -458 1033 -458 m 1024 -444 q 1038 -440 1031 -444 q 1050 -431 1044 -436 l 1765 443 q 1788 474 1779 461 q 1796 501 1796 488 q 1788 528 1796 515 q 1767 558 1779 542 l 1049 1435 q 1035 1450 1042 1444 q 1021 1456 1028 1456 q 1015 1452 1018 1456 q 1013 1444 1013 1449 l 1013 1208 l 44 1208 l 325 500 l 44 -208 l 1013 -208 l 1013 -433 q 1016 -441 1013 -437 q 1024 -444 1019 -444 z "},"":{"ha":1778,"x_min":-75,"x_max":1853,"o":"m 1597 -449 l 1597 647 l 1826 647 q 1835 650 1832 647 q 1839 658 1839 653 q 1835 672 1839 665 q 1825 683 1832 678 l 944 1401 q 915 1423 928 1415 q 888 1431 901 1431 q 860 1423 874 1431 q 831 1401 847 1415 l -39 685 q -55 669 -49 676 q -61 654 -61 663 q -56 648 -61 649 q -43 647 -50 647 l 181 647 l 181 -450 l 889 -168 l 1597 -449 m 1611 -467 l 889 -183 l 167 -471 l 167 633 l -43 633 q -69 639 -64 633 q -75 654 -75 644 q -68 674 -75 664 q -47 696 -61 683 l 822 1413 q 856 1436 840 1428 q 888 1444 872 1444 q 919 1436 903 1444 q 953 1413 935 1428 l 1833 694 q 1848 678 1843 688 q 1853 658 1853 668 q 1847 640 1853 646 q 1826 633 1840 633 l 1611 633 l 1611 -467 z "},"":{"ha":1778,"x_min":-75,"x_max":1853,"o":"m 167 1451 l 889 1168 l 1611 1456 l 1611 351 l 1821 351 q 1847 346 1842 351 q 1853 331 1853 340 q 1846 311 1853 321 q 1825 289 1839 301 l 956 -428 q 922 -451 938 -443 q 890 -460 906 -460 q 859 -451 875 -460 q 825 -428 843 -443 l -56 290 q -70 307 -65 297 q -75 326 -75 317 q -69 345 -75 339 q -49 351 -62 351 l 167 351 l 167 1451 m 181 1433 l 181 338 l -49 338 q -58 335 -54 338 q -61 326 -61 332 q -58 313 -61 319 q -47 301 -54 307 l 833 -417 q 863 -438 850 -431 q 890 -446 876 -446 q 917 -438 904 -446 q 947 -417 931 -431 l 1817 300 q 1833 315 1826 308 q 1839 331 1839 322 q 1833 337 1839 336 q 1821 338 1828 338 l 1597 338 l 1597 1435 l 889 1153 l 181 1433 z "},"":{"ha":1778,"x_min":40,"x_max":1757,"o":"m 1738 -222 l 346 -222 q 323 -215 332 -222 q 307 -190 314 -208 l 44 468 q 40 498 40 482 q 44 528 40 514 l 307 1190 q 323 1215 314 1208 q 346 1222 332 1222 l 1732 1222 q 1751 1218 1744 1222 q 1754 1204 1757 1214 l 1475 500 l 1754 -206 q 1753 -217 1757 -212 q 1738 -222 1750 -222 m 1460 500 l 1460 503 l 1740 1208 l 346 1208 q 330 1201 336 1208 q 321 1185 324 1194 l 58 522 q 54 498 54 511 q 58 474 54 485 l 321 -185 q 330 -201 324 -194 q 346 -208 336 -208 l 1739 -208 l 1460 500 z "},"":{"ha":1778,"x_min":26,"x_max":1743,"o":"m 46 -222 q 30 -217 33 -222 q 29 -206 26 -212 l 308 500 l 29 1204 q 33 1218 26 1214 q 51 1222 39 1222 l 1438 1222 q 1460 1215 1451 1222 q 1476 1190 1469 1208 l 1739 528 q 1743 498 1743 514 q 1739 468 1743 482 l 1476 -190 q 1460 -215 1469 -208 q 1438 -222 1451 -222 l 46 -222 m 324 500 l 44 -208 l 1438 -208 q 1453 -201 1447 -208 q 1463 -185 1460 -194 l 1725 474 q 1729 498 1729 485 q 1725 522 1729 511 l 1463 1185 q 1453 1201 1460 1194 q 1438 1208 1447 1208 l 43 1208 l 324 503 l 324 500 z "},"":{"ha":1778,"x_min":163,"x_max":1607,"o":"m 1607 -339 q 1602 -355 1607 -351 q 1590 -356 1597 -358 l 885 -76 l 181 -356 q 167 -352 171 -358 q 163 -333 163 -346 l 163 1053 q 169 1076 163 1067 q 194 1092 176 1085 l 857 1354 q 887 1358 871 1358 q 917 1354 903 1358 l 1575 1092 q 1600 1076 1593 1085 q 1607 1053 1607 1067 l 1607 -339 m 885 -61 l 1593 -340 l 1593 1053 q 1586 1069 1593 1063 q 1569 1078 1579 1075 l 911 1340 q 887 1344 900 1344 q 863 1340 874 1344 l 200 1078 q 183 1069 190 1075 q 176 1053 176 1063 l 176 -342 l 882 -61 l 885 -61 z "},"":{"ha":1778,"x_min":163,"x_max":1607,"o":"m 163 1353 q 167 1369 163 1365 q 179 1369 172 1372 l 885 1090 l 1589 1369 q 1603 1366 1599 1372 q 1607 1347 1607 1360 l 1607 -39 q 1600 -62 1607 -53 q 1575 -78 1593 -71 l 913 -340 q 883 -344 899 -344 q 853 -340 867 -344 l 194 -78 q 169 -62 176 -71 q 163 -39 163 -53 l 163 1353 m 885 1075 l 176 1354 l 176 -39 q 183 -55 176 -49 q 200 -64 190 -61 l 858 -326 q 883 -331 869 -331 q 907 -326 896 -331 l 1569 -64 q 1586 -55 1579 -61 q 1593 -39 1593 -49 l 1593 1356 l 888 1075 l 885 1075 z "},"":{"ha":1389,"x_min":0,"x_max":0,"o":""},"Ａ":{"ha":1389,"x_min":422,"x_max":963,"o":"m 436 421 l 436 378 l 949 378 l 949 421 q 942 490 949 458 q 926 550 936 522 l 831 776 q 799 837 815 813 q 743 861 782 861 l 636 861 q 578 837 594 861 q 547 778 561 813 l 458 550 q 442 490 449 522 q 436 421 436 458 m 949 125 l 949 364 l 436 364 l 436 125 l 422 125 l 422 421 q 428 492 422 460 q 446 556 435 525 l 535 783 q 569 849 550 822 q 636 875 589 875 l 743 875 q 808 849 789 875 q 843 782 826 822 l 939 556 q 956 492 950 525 q 963 421 963 460 l 963 125 l 949 125 z "},"":{"ha":1389,"x_min":422,"x_max":963,"o":"m 436 393 l 436 350 l 949 350 l 949 393 q 942 463 949 431 q 926 522 936 494 l 844 721 q 806 781 829 757 q 743 806 782 806 l 636 806 q 571 781 594 806 q 533 722 547 757 l 458 522 q 442 463 449 494 q 436 393 436 431 m 949 125 l 949 336 l 436 336 l 436 125 l 422 125 l 422 393 q 428 465 422 432 q 446 528 435 497 l 521 728 q 562 793 535 767 q 636 819 589 819 l 743 819 q 815 792 789 819 q 857 726 840 765 l 939 528 q 957 465 951 497 q 963 393 963 432 l 963 125 l 949 125 m 529 1149 l 529 1163 l 861 1121 l 861 1107 l 529 1149 z "},"":{"ha":1389,"x_min":422,"x_max":963,"o":"m 436 393 l 436 350 l 949 350 l 949 393 q 942 463 949 431 q 926 522 936 494 l 844 721 q 806 781 829 757 q 743 806 782 806 l 636 806 q 571 781 594 806 q 533 722 547 757 l 458 522 q 442 463 449 494 q 436 393 436 431 m 949 125 l 949 336 l 436 336 l 436 125 l 422 125 l 422 393 q 428 465 422 432 q 446 528 435 497 l 521 728 q 562 793 535 767 q 636 819 589 819 l 743 819 q 815 792 789 819 q 857 726 840 765 l 939 528 q 957 465 951 497 q 963 393 963 432 l 963 125 l 949 125 m 529 1121 l 861 1163 l 861 1149 l 529 1107 l 529 1121 z "},"":{"ha":1389,"x_min":422,"x_max":963,"o":"m 860 1125 l 739 1164 q 719 1169 729 1167 q 694 1172 708 1172 q 670 1169 681 1172 q 650 1164 660 1167 l 529 1125 l 529 1140 l 644 1178 q 668 1183 657 1181 q 694 1186 679 1186 q 721 1183 710 1186 q 744 1178 732 1181 l 860 1140 l 860 1125 m 436 393 l 436 350 l 949 350 l 949 393 q 942 463 949 431 q 926 522 936 494 l 844 721 q 806 781 829 757 q 743 806 782 806 l 636 806 q 571 781 594 806 q 533 722 547 757 l 458 522 q 442 463 449 494 q 436 393 436 431 m 949 125 l 949 336 l 436 336 l 436 125 l 422 125 l 422 393 q 428 465 422 432 q 446 528 435 497 l 521 728 q 562 793 535 767 q 636 819 589 819 l 743 819 q 815 792 789 819 q 857 726 840 765 l 939 528 q 957 465 951 497 q 963 393 963 432 l 963 125 l 949 125 z "},"":{"ha":1389,"x_min":422,"x_max":963,"o":"m 436 393 l 436 350 l 949 350 l 949 393 q 942 463 949 431 q 926 522 936 494 l 844 721 q 806 781 829 757 q 743 806 782 806 l 636 806 q 571 781 594 806 q 533 722 547 757 l 458 522 q 442 463 449 494 q 436 393 436 431 m 949 125 l 949 336 l 436 336 l 436 125 l 422 125 l 422 393 q 428 465 422 432 q 446 528 435 497 l 521 728 q 562 793 535 767 q 636 819 589 819 l 743 819 q 815 792 789 819 q 857 726 840 765 l 939 528 q 957 465 951 497 q 963 393 963 432 l 963 125 l 949 125 m 860 1113 l 860 1099 q 800 1099 832 1096 q 715 1110 768 1101 l 693 1113 l 654 1118 q 580 1126 608 1125 q 529 1124 551 1128 l 529 1139 q 581 1140 553 1142 q 657 1132 610 1138 l 696 1126 l 718 1124 q 801 1113 771 1115 q 860 1113 832 1110 z "},"":{"ha":1389,"x_min":422,"x_max":963,"o":"m 521 1097 l 507 1097 l 507 1163 l 521 1163 l 521 1097 m 879 1097 l 865 1097 l 865 1163 l 879 1163 l 879 1097 m 436 393 l 436 350 l 949 350 l 949 393 q 942 463 949 431 q 926 522 936 494 l 844 721 q 806 781 829 757 q 743 806 782 806 l 636 806 q 571 781 594 806 q 533 722 547 757 l 458 522 q 442 463 449 494 q 436 393 436 431 m 949 125 l 949 336 l 436 336 l 436 125 l 422 125 l 422 393 q 428 465 422 432 q 446 528 435 497 l 521 728 q 562 793 535 767 q 636 819 589 819 l 743 819 q 815 792 789 819 q 857 726 840 765 l 939 528 q 957 465 951 497 q 963 393 963 432 l 963 125 l 949 125 z "},"":{"ha":1389,"x_min":422,"x_max":963,"o":"m 497 1015 l 497 1069 q 505 1126 497 1100 q 533 1171 513 1153 q 593 1199 554 1189 q 693 1210 632 1210 q 854 1170 817 1210 q 892 1069 892 1131 l 892 1015 q 854 915 892 953 q 693 876 817 876 q 593 886 632 876 q 533 915 554 896 q 505 959 513 933 q 497 1015 497 985 m 693 1196 q 547 1162 582 1196 q 511 1069 511 1128 l 511 1015 q 547 924 511 957 q 693 890 582 890 q 841 924 804 890 q 878 1015 878 957 l 878 1069 q 841 1161 878 1126 q 693 1196 804 1196 m 436 421 l 436 378 l 949 378 l 949 421 q 942 490 949 458 q 926 550 936 522 l 831 749 q 799 809 815 785 q 743 833 782 833 l 636 833 q 578 809 594 833 q 547 750 561 785 l 458 550 q 442 490 449 522 q 436 421 436 458 m 949 125 l 949 364 l 436 364 l 436 125 l 422 125 l 422 421 q 428 492 422 460 q 446 556 435 525 l 535 756 q 570 820 551 793 q 636 847 589 847 l 743 847 q 807 820 789 847 q 843 754 825 793 l 939 556 q 958 493 953 526 q 963 421 963 460 l 963 125 l 949 125 z "},"":{"ha":1389,"x_min":422,"x_max":963,"o":"m 529 1121 l 861 1121 l 861 1107 l 529 1107 l 529 1121 m 436 393 l 436 350 l 949 350 l 949 393 q 942 463 949 431 q 926 522 936 494 l 844 721 q 806 781 829 757 q 743 806 782 806 l 636 806 q 571 781 594 806 q 533 722 547 757 l 458 522 q 442 463 449 494 q 436 393 436 431 m 949 125 l 949 336 l 436 336 l 436 125 l 422 125 l 422 393 q 428 465 422 432 q 446 528 435 497 l 521 728 q 562 793 535 767 q 636 819 589 819 l 743 819 q 815 792 789 819 q 857 726 840 765 l 939 528 q 957 465 951 497 q 963 393 963 432 l 963 125 l 949 125 z "},"":{"ha":1389,"x_min":422,"x_max":963,"o":"m 436 393 l 436 350 l 949 350 l 949 393 q 942 463 949 431 q 926 522 936 494 l 844 721 q 806 781 829 757 q 743 806 782 806 l 636 806 q 571 781 594 806 q 533 722 547 757 l 458 522 q 442 463 449 494 q 436 393 436 431 m 949 125 l 949 336 l 436 336 l 436 125 l 422 125 l 422 393 q 428 465 422 432 q 446 528 435 497 l 521 728 q 562 793 535 767 q 636 819 589 819 l 743 819 q 815 792 789 819 q 857 726 840 765 l 939 528 q 957 465 951 497 q 963 393 963 432 l 963 125 l 949 125 m 882 1204 l 896 1204 l 896 1192 q 888 1152 896 1172 q 860 1116 881 1132 q 799 1090 839 1100 q 694 1081 758 1081 q 592 1090 631 1081 q 533 1116 553 1100 q 506 1152 513 1132 q 500 1192 500 1172 l 500 1204 l 514 1204 l 514 1192 q 548 1124 514 1154 q 694 1094 582 1094 q 844 1124 807 1094 q 882 1192 882 1154 l 882 1204 z "},"":{"ha":1389,"x_min":422,"x_max":988,"o":"m 988 -92 l 988 -106 l 954 -106 q 889 -79 903 -106 q 883 -1 875 -53 l 900 114 q 914 161 906 147 q 949 190 922 175 l 949 392 l 436 392 l 436 181 l 422 181 l 422 449 q 428 520 422 488 q 446 583 435 553 l 521 783 q 562 849 535 822 q 636 875 589 875 l 743 875 q 815 848 789 875 q 857 782 840 821 l 939 583 q 957 520 951 553 q 963 449 963 488 l 963 181 l 960 181 q 926 156 933 167 q 914 114 918 144 l 897 -4 q 901 -69 892 -46 q 954 -92 911 -92 l 988 -92 m 436 449 l 436 406 l 949 406 l 949 449 q 942 518 949 486 q 926 578 936 550 l 844 776 q 806 837 829 813 q 743 861 782 861 l 636 861 q 571 837 594 861 q 533 778 547 813 l 458 578 q 442 518 449 550 q 436 449 436 486 z "},"Ｂ":{"ha":1389,"x_min":429,"x_max":972,"o":"m 790 125 l 429 125 l 429 875 l 699 875 q 792 863 756 875 q 847 831 828 851 q 874 785 867 811 q 881 728 881 758 l 881 639 q 866 563 881 597 q 792 513 851 528 q 885 501 849 513 q 940 467 921 489 q 966 417 960 446 q 972 353 972 388 l 972 264 q 965 208 972 233 q 940 164 958 182 q 885 135 921 146 q 790 125 849 125 m 699 861 l 443 861 l 443 513 l 699 513 q 789 523 756 513 q 840 551 822 533 q 862 591 857 568 q 867 639 867 614 l 867 728 q 835 822 867 783 q 699 861 803 861 m 792 499 l 443 499 l 443 139 l 790 139 q 926 173 894 139 q 958 264 958 207 l 958 353 q 927 457 958 415 q 792 499 896 499 z "},"Ｃ":{"ha":1389,"x_min":424,"x_max":974,"o":"m 974 139 l 974 125 l 646 125 q 467 167 511 125 q 424 304 424 208 l 424 693 q 468 833 424 792 q 646 875 513 875 l 974 875 l 974 861 l 646 861 q 481 823 524 861 q 438 693 438 785 l 438 304 q 479 176 438 214 q 646 139 521 139 l 974 139 z "},"":{"ha":1389,"x_min":424,"x_max":974,"o":"m 974 181 l 764 181 l 700 6 l 686 6 l 749 181 l 646 181 q 467 222 511 181 q 424 360 424 264 l 424 693 q 468 833 424 792 q 646 875 513 875 l 974 875 l 974 861 l 646 861 q 481 823 524 861 q 438 693 438 785 l 438 360 q 479 232 438 269 q 646 194 521 194 l 974 194 l 974 181 z "},"":{"ha":1389,"x_min":424,"x_max":974,"o":"m 974 139 l 974 125 l 646 125 q 467 167 511 125 q 424 304 424 208 l 424 638 q 468 778 424 736 q 646 819 513 819 l 974 819 l 974 806 l 646 806 q 481 767 524 806 q 438 638 438 729 l 438 304 q 479 176 438 214 q 646 139 521 139 l 974 139 m 542 1121 l 874 1163 l 874 1149 l 542 1107 l 542 1121 z "},"":{"ha":1389,"x_min":424,"x_max":974,"o":"m 872 1125 l 751 1164 q 731 1169 742 1167 q 707 1172 721 1172 q 683 1169 693 1172 q 663 1164 672 1167 l 542 1125 l 542 1140 l 657 1178 q 681 1183 669 1181 q 707 1186 692 1186 q 733 1183 722 1186 q 757 1178 744 1181 l 872 1140 l 872 1125 m 974 139 l 974 125 l 646 125 q 467 167 511 125 q 424 304 424 208 l 424 638 q 468 778 424 736 q 646 819 513 819 l 974 819 l 974 806 l 646 806 q 481 767 524 806 q 438 638 438 729 l 438 304 q 479 176 438 214 q 646 139 521 139 l 974 139 z "},"":{"ha":1389,"x_min":424,"x_max":974,"o":"m 717 1097 l 703 1097 l 703 1179 l 717 1179 l 717 1097 m 974 139 l 974 125 l 646 125 q 467 167 511 125 q 424 304 424 208 l 424 638 q 468 778 424 736 q 646 819 513 819 l 974 819 l 974 806 l 646 806 q 481 767 524 806 q 438 638 438 729 l 438 304 q 479 176 438 214 q 646 139 521 139 l 974 139 z "},"":{"ha":1389,"x_min":424,"x_max":974,"o":"m 542 1165 l 663 1126 q 683 1121 672 1124 q 707 1118 693 1118 q 731 1121 721 1118 q 751 1126 742 1124 l 872 1165 l 872 1150 l 757 1113 q 733 1107 744 1110 q 707 1104 722 1104 q 681 1107 692 1104 q 657 1113 669 1110 l 542 1150 l 542 1165 m 974 139 l 974 125 l 646 125 q 467 167 511 125 q 424 304 424 208 l 424 638 q 468 778 424 736 q 646 819 513 819 l 974 819 l 974 806 l 646 806 q 481 767 524 806 q 438 638 438 729 l 438 304 q 479 176 438 214 q 646 139 521 139 l 974 139 z "},"Ｄ":{"ha":1389,"x_min":429,"x_max":968,"o":"m 429 125 l 429 875 l 746 875 q 860 860 817 875 q 928 819 904 844 q 960 758 951 793 q 968 682 968 722 l 968 314 q 960 239 968 274 q 929 179 953 204 q 861 140 906 154 q 746 125 817 125 l 429 125 m 746 861 l 443 861 l 443 139 l 746 139 q 853 152 813 139 q 917 188 894 165 q 947 244 939 211 q 954 314 954 276 l 954 682 q 946 753 954 719 q 915 810 938 786 q 852 847 893 833 q 746 861 811 861 z "},"":{"ha":1389,"x_min":429,"x_max":968,"o":"m 429 125 l 429 819 l 746 819 q 860 804 817 819 q 928 763 904 789 q 960 702 951 738 q 968 626 968 667 l 968 314 q 960 239 968 274 q 929 179 953 204 q 861 140 906 154 q 746 125 817 125 l 429 125 m 746 806 l 443 806 l 443 139 l 746 139 q 853 152 813 139 q 917 188 894 165 q 947 244 939 211 q 954 314 954 276 l 954 626 q 946 697 954 664 q 915 754 938 731 q 852 792 893 778 q 746 806 811 806 m 528 1165 l 649 1126 q 669 1121 658 1124 q 693 1118 679 1118 q 717 1121 707 1118 q 738 1126 728 1124 l 858 1165 l 858 1150 l 743 1113 q 719 1107 731 1110 q 693 1104 708 1104 q 667 1107 678 1104 q 643 1113 656 1110 l 528 1150 l 528 1165 z "},"Ｅ":{"ha":1389,"x_min":428,"x_max":974,"o":"m 974 139 l 974 125 l 428 125 l 428 875 l 974 875 l 974 861 l 442 861 l 442 513 l 861 513 l 861 499 l 442 499 l 442 139 l 974 139 z "},"":{"ha":1389,"x_min":428,"x_max":974,"o":"m 974 139 l 974 125 l 428 125 l 428 819 l 974 819 l 974 806 l 442 806 l 442 485 l 861 485 l 861 471 l 442 471 l 442 139 l 974 139 m 528 1149 l 528 1163 l 860 1121 l 860 1107 l 528 1149 z "},"":{"ha":1389,"x_min":428,"x_max":974,"o":"m 528 1121 l 860 1163 l 860 1149 l 528 1107 l 528 1121 m 974 139 l 974 125 l 428 125 l 428 819 l 974 819 l 974 806 l 442 806 l 442 485 l 861 485 l 861 471 l 442 471 l 442 139 l 974 139 z "},"":{"ha":1389,"x_min":428,"x_max":974,"o":"m 858 1125 l 738 1164 q 717 1169 728 1167 q 693 1172 707 1172 q 669 1169 679 1172 q 649 1164 658 1167 l 528 1125 l 528 1140 l 643 1178 q 667 1183 656 1181 q 693 1186 678 1186 q 719 1183 708 1186 q 743 1178 731 1181 l 858 1140 l 858 1125 m 974 139 l 974 125 l 428 125 l 428 819 l 974 819 l 974 806 l 442 806 l 442 485 l 861 485 l 861 471 l 442 471 l 442 139 l 974 139 z "},"":{"ha":1389,"x_min":428,"x_max":974,"o":"m 974 139 l 974 125 l 428 125 l 428 819 l 974 819 l 974 806 l 442 806 l 442 485 l 861 485 l 861 471 l 442 471 l 442 139 l 974 139 m 519 1097 l 506 1097 l 506 1163 l 519 1163 l 519 1097 m 878 1097 l 864 1097 l 864 1163 l 878 1163 l 878 1097 z "},"":{"ha":1389,"x_min":428,"x_max":974,"o":"m 528 1121 l 860 1121 l 860 1107 l 528 1107 l 528 1121 m 974 139 l 974 125 l 428 125 l 428 819 l 974 819 l 974 806 l 442 806 l 442 485 l 861 485 l 861 471 l 442 471 l 442 139 l 974 139 z "},"":{"ha":1389,"x_min":428,"x_max":974,"o":"m 974 139 l 974 125 l 428 125 l 428 819 l 974 819 l 974 806 l 442 806 l 442 485 l 861 485 l 861 471 l 442 471 l 442 139 l 974 139 m 881 1204 l 894 1204 l 894 1192 q 887 1152 894 1172 q 858 1116 879 1132 q 797 1090 838 1100 q 693 1081 757 1081 q 590 1090 629 1081 q 531 1116 551 1100 q 505 1152 511 1132 q 499 1192 499 1172 l 499 1204 l 513 1204 l 513 1192 q 547 1124 513 1154 q 693 1094 581 1094 q 843 1124 806 1094 q 881 1192 881 1154 l 881 1204 z "},"":{"ha":1389,"x_min":428,"x_max":974,"o":"m 703 1097 l 689 1097 l 689 1179 l 703 1179 l 703 1097 m 974 139 l 974 125 l 428 125 l 428 819 l 974 819 l 974 806 l 442 806 l 442 485 l 861 485 l 861 471 l 442 471 l 442 139 l 974 139 z "},"":{"ha":1389,"x_min":428,"x_max":974,"o":"m 972 -92 l 972 -106 l 939 -106 q 874 -79 888 -106 q 868 -1 860 -53 l 885 114 q 895 154 889 140 q 918 181 901 168 l 428 181 l 428 875 l 974 875 l 974 861 l 442 861 l 442 540 l 861 540 l 861 526 l 442 526 l 442 194 l 974 194 l 974 181 l 944 181 q 910 156 918 167 q 899 114 903 144 l 882 -4 q 886 -69 876 -46 q 939 -92 896 -92 l 972 -92 z "},"":{"ha":1389,"x_min":428,"x_max":974,"o":"m 974 139 l 974 125 l 428 125 l 428 819 l 974 819 l 974 806 l 442 806 l 442 485 l 861 485 l 861 471 l 442 471 l 442 139 l 974 139 m 528 1165 l 649 1126 q 669 1121 658 1124 q 693 1118 679 1118 q 717 1121 707 1118 q 738 1126 728 1124 l 858 1165 l 858 1150 l 743 1113 q 719 1107 731 1110 q 693 1104 708 1104 q 667 1107 678 1104 q 643 1113 656 1110 l 528 1150 l 528 1165 z "},"Ｆ":{"ha":1389,"x_min":431,"x_max":974,"o":"m 431 125 l 431 875 l 974 875 l 974 861 l 444 861 l 444 464 l 861 464 l 861 450 l 444 450 l 444 125 l 431 125 z "},"Ｇ":{"ha":1389,"x_min":422,"x_max":961,"o":"m 672 125 q 547 135 596 125 q 471 166 499 144 q 433 222 443 188 q 422 304 422 256 l 422 693 q 467 833 422 792 q 644 875 511 875 l 896 875 l 896 861 l 644 861 q 479 823 522 861 q 436 693 436 785 l 436 304 q 484 176 436 214 q 672 139 532 139 l 947 139 l 947 404 l 961 404 l 961 125 l 672 125 z "},"":{"ha":1389,"x_min":422,"x_max":961,"o":"m 422 635 q 467 775 422 733 q 644 817 511 817 l 896 817 l 896 803 l 644 803 q 479 765 522 803 q 436 635 436 726 l 436 304 q 484 176 436 214 q 672 139 532 139 l 947 139 l 947 404 l 961 404 l 961 125 l 672 125 q 547 135 596 125 q 471 166 499 144 q 433 222 443 188 q 422 304 422 256 l 422 635 m 858 1125 l 738 1164 q 717 1169 728 1167 q 693 1172 707 1172 q 669 1169 679 1172 q 649 1164 658 1167 l 528 1125 l 528 1140 l 643 1178 q 667 1183 656 1181 q 693 1186 678 1186 q 719 1183 708 1186 q 743 1178 731 1181 l 858 1140 l 858 1125 z "},"":{"ha":1389,"x_min":422,"x_max":961,"o":"m 422 635 q 467 775 422 733 q 644 817 511 817 l 896 817 l 896 803 l 644 803 q 479 765 522 803 q 436 635 436 726 l 436 304 q 484 176 436 214 q 672 139 532 139 l 947 139 l 947 404 l 961 404 l 961 125 l 672 125 q 547 135 596 125 q 471 166 499 144 q 433 222 443 188 q 422 304 422 256 l 422 635 m 881 1204 l 894 1204 l 894 1192 q 887 1152 894 1172 q 858 1116 879 1132 q 797 1090 838 1100 q 693 1081 757 1081 q 590 1090 629 1081 q 531 1116 551 1100 q 505 1152 511 1132 q 499 1192 499 1172 l 499 1204 l 513 1204 l 513 1192 q 547 1124 513 1154 q 693 1094 581 1094 q 843 1124 806 1094 q 881 1192 881 1154 l 881 1204 z "},"":{"ha":1389,"x_min":422,"x_max":961,"o":"m 422 635 q 467 775 422 733 q 644 817 511 817 l 896 817 l 896 803 l 644 803 q 479 765 522 803 q 436 635 436 726 l 436 304 q 484 176 436 214 q 672 139 532 139 l 947 139 l 947 404 l 961 404 l 961 125 l 672 125 q 547 135 596 125 q 471 166 499 144 q 433 222 443 188 q 422 304 422 256 l 422 635 m 703 1097 l 689 1097 l 689 1179 l 703 1179 l 703 1097 z "},"":{"ha":1389,"x_min":422,"x_max":961,"o":"m 422 690 q 467 831 422 789 q 644 872 511 872 l 896 872 l 896 858 l 644 858 q 479 820 522 858 q 436 690 436 782 l 436 360 q 484 232 436 269 q 672 194 532 194 l 947 194 l 947 460 l 961 460 l 961 181 l 672 181 q 547 190 596 181 q 471 222 499 200 q 433 277 443 243 q 422 360 422 311 l 422 690 m 604 -117 l 788 -117 l 788 -237 q 758 -322 788 -293 q 679 -350 729 -350 l 604 -350 l 604 -336 l 679 -336 q 748 -311 722 -336 q 774 -237 774 -286 l 774 -131 l 604 -131 l 604 -117 z "},"Ｈ":{"ha":1389,"x_min":429,"x_max":960,"o":"m 429 125 l 429 875 l 443 875 l 443 507 l 946 507 l 946 875 l 960 875 l 960 125 l 946 125 l 946 493 l 443 493 l 443 125 l 429 125 z "},"":{"ha":1389,"x_min":429,"x_max":960,"o":"m 429 125 l 429 819 l 443 819 l 443 479 l 946 479 l 946 819 l 960 819 l 960 125 l 946 125 l 946 465 l 443 465 l 443 125 l 429 125 m 858 1125 l 738 1164 q 717 1169 728 1167 q 693 1172 707 1172 q 669 1169 679 1172 q 649 1164 658 1167 l 528 1125 l 528 1140 l 643 1178 q 667 1183 656 1181 q 693 1186 678 1186 q 719 1183 708 1186 q 743 1178 731 1181 l 858 1140 l 858 1125 z "},"Ｉ":{"ha":1389,"x_min":415,"x_max":974,"o":"m 974 125 l 415 125 l 415 139 l 688 139 l 688 861 l 415 861 l 415 875 l 974 875 l 974 861 l 701 861 l 701 139 l 974 139 l 974 125 z "},"":{"ha":1389,"x_min":415,"x_max":974,"o":"m 974 125 l 415 125 l 415 139 l 688 139 l 688 806 l 415 806 l 415 819 l 974 819 l 974 806 l 701 806 l 701 139 l 974 139 l 974 125 m 528 1149 l 528 1163 l 860 1121 l 860 1107 l 528 1149 z "},"":{"ha":1389,"x_min":415,"x_max":974,"o":"m 974 125 l 415 125 l 415 139 l 688 139 l 688 806 l 415 806 l 415 819 l 974 819 l 974 806 l 701 806 l 701 139 l 974 139 l 974 125 m 528 1121 l 860 1163 l 860 1149 l 528 1107 l 528 1121 z "},"":{"ha":1389,"x_min":415,"x_max":974,"o":"m 974 125 l 415 125 l 415 139 l 688 139 l 688 806 l 415 806 l 415 819 l 974 819 l 974 806 l 701 806 l 701 139 l 974 139 l 974 125 m 858 1125 l 738 1164 q 717 1169 728 1167 q 693 1172 707 1172 q 669 1169 679 1172 q 649 1164 658 1167 l 528 1125 l 528 1140 l 643 1178 q 667 1183 656 1181 q 693 1186 678 1186 q 719 1183 708 1186 q 743 1178 731 1181 l 858 1140 l 858 1125 z "},"":{"ha":1389,"x_min":415,"x_max":974,"o":"m 974 125 l 415 125 l 415 139 l 688 139 l 688 806 l 415 806 l 415 819 l 974 819 l 974 806 l 701 806 l 701 139 l 974 139 l 974 125 m 519 1097 l 506 1097 l 506 1163 l 519 1163 l 519 1097 m 878 1097 l 864 1097 l 864 1163 l 878 1163 l 878 1097 z "},"":{"ha":1389,"x_min":415,"x_max":974,"o":"m 974 125 l 415 125 l 415 139 l 688 139 l 688 806 l 415 806 l 415 819 l 974 819 l 974 806 l 701 806 l 701 139 l 974 139 l 974 125 m 858 1113 l 858 1099 q 799 1099 831 1096 q 714 1110 767 1101 l 692 1113 l 653 1118 q 578 1126 607 1125 q 528 1124 550 1128 l 528 1139 q 580 1140 551 1142 q 656 1132 608 1138 l 694 1126 l 717 1124 q 800 1113 769 1115 q 858 1113 831 1110 z "},"":{"ha":1389,"x_min":415,"x_max":974,"o":"m 974 125 l 415 125 l 415 139 l 688 139 l 688 806 l 415 806 l 415 819 l 974 819 l 974 806 l 701 806 l 701 139 l 974 139 l 974 125 m 528 1121 l 860 1121 l 860 1107 l 528 1107 l 528 1121 z "},"":{"ha":1389,"x_min":415,"x_max":974,"o":"m 974 125 l 415 125 l 415 139 l 688 139 l 688 806 l 415 806 l 415 819 l 974 819 l 974 806 l 701 806 l 701 139 l 974 139 l 974 125 m 881 1204 l 894 1204 l 894 1192 q 887 1152 894 1172 q 858 1116 879 1132 q 797 1090 838 1100 q 693 1081 757 1081 q 590 1090 629 1081 q 531 1116 551 1100 q 505 1152 511 1132 q 499 1192 499 1172 l 499 1204 l 513 1204 l 513 1192 q 547 1124 513 1154 q 693 1094 581 1094 q 843 1124 806 1094 q 881 1192 881 1154 l 881 1204 z "},"":{"ha":1389,"x_min":415,"x_max":974,"o":"m 974 -92 l 974 -106 l 940 -106 q 875 -79 889 -106 q 869 -1 861 -53 l 886 114 q 897 154 890 140 q 919 181 903 168 l 415 181 l 415 194 l 688 194 l 688 861 l 415 861 l 415 875 l 974 875 l 974 861 l 701 861 l 701 194 l 974 194 l 974 181 l 946 181 q 912 156 919 167 q 900 114 904 144 l 883 -4 q 888 -69 878 -46 q 940 -92 897 -92 l 974 -92 z "},"":{"ha":1389,"x_min":415,"x_max":974,"o":"m 974 125 l 415 125 l 415 139 l 688 139 l 688 806 l 415 806 l 415 819 l 974 819 l 974 806 l 701 806 l 701 139 l 974 139 l 974 125 m 703 1097 l 689 1097 l 689 1179 l 703 1179 l 703 1097 z "},"Ｊ":{"ha":1389,"x_min":422,"x_max":958,"o":"m 944 875 l 958 875 l 958 296 q 903 161 958 214 q 696 108 849 108 q 560 122 614 108 q 476 160 507 136 q 434 219 446 185 q 422 296 422 254 l 422 413 l 436 413 l 436 296 q 491 169 436 217 q 696 122 546 122 q 892 170 839 122 q 944 296 944 218 l 944 875 z "},"":{"ha":1389,"x_min":422,"x_max":983,"o":"m 944 819 l 958 819 l 958 296 q 903 161 958 214 q 696 108 849 108 q 560 122 614 108 q 476 160 507 136 q 434 219 446 185 q 422 296 422 254 l 422 413 l 436 413 l 436 296 q 491 169 436 217 q 696 122 546 122 q 892 170 839 122 q 944 296 944 218 l 944 819 m 983 1125 l 863 1164 q 842 1169 853 1167 q 818 1172 832 1172 q 794 1169 804 1172 q 774 1164 783 1167 l 653 1125 l 653 1140 l 768 1178 q 792 1183 781 1181 q 818 1186 803 1186 q 844 1183 833 1186 q 868 1178 856 1181 l 983 1140 l 983 1125 z "},"Ｋ":{"ha":1389,"x_min":431,"x_max":963,"o":"m 444 125 l 431 125 l 431 875 l 444 875 l 444 506 l 722 506 l 882 875 l 897 875 l 738 506 l 794 506 q 921 474 879 506 q 963 369 963 442 l 963 125 l 949 125 l 949 369 q 910 464 949 436 q 794 492 871 492 l 444 492 l 444 125 z "},"":{"ha":1389,"x_min":431,"x_max":963,"o":"m 444 181 l 431 181 l 431 875 l 444 875 l 444 533 l 722 533 l 882 875 l 897 875 l 738 533 l 794 533 q 921 501 879 533 q 963 397 963 469 l 963 181 l 949 181 l 949 397 q 910 492 949 464 q 794 519 871 519 l 444 519 l 444 181 m 604 -117 l 788 -117 l 788 -237 q 758 -322 788 -293 q 679 -350 729 -350 l 604 -350 l 604 -336 l 679 -336 q 748 -311 722 -336 q 774 -237 774 -286 l 774 -131 l 604 -131 l 604 -117 z "},"Ｌ":{"ha":1389,"x_min":431,"x_max":968,"o":"m 431 125 l 431 875 l 444 875 l 444 139 l 954 139 l 954 413 l 968 413 l 968 125 l 431 125 z "},"":{"ha":1389,"x_min":403,"x_max":968,"o":"m 431 125 l 431 819 l 444 819 l 444 139 l 954 139 l 954 399 l 968 399 l 968 125 l 431 125 m 403 1121 l 735 1163 l 735 1149 l 403 1107 l 403 1121 z "},"":{"ha":1389,"x_min":431,"x_max":968,"o":"m 431 181 l 431 875 l 444 875 l 444 194 l 954 194 l 954 454 l 968 454 l 968 181 l 431 181 m 604 -117 l 788 -117 l 788 -237 q 758 -322 788 -293 q 679 -350 729 -350 l 604 -350 l 604 -336 l 679 -336 q 748 -311 722 -336 q 774 -237 774 -286 l 774 -131 l 604 -131 l 604 -117 z "},"":{"ha":1389,"x_min":431,"x_max":982,"o":"m 431 125 l 431 875 l 444 875 l 444 139 l 954 139 l 954 413 l 968 413 l 968 125 l 431 125 m 957 746 l 942 746 l 967 875 l 982 875 l 957 746 z "},"Ｍ":{"ha":1389,"x_min":385,"x_max":993,"o":"m 689 507 q 718 517 708 507 q 746 565 728 526 l 875 851 q 895 871 882 867 q 921 875 908 875 l 950 875 q 981 865 971 875 q 990 832 990 854 l 993 125 l 979 125 l 976 832 q 972 852 976 843 q 950 861 967 861 l 924 861 q 903 858 914 861 q 886 842 892 856 l 757 558 q 726 506 739 519 q 689 493 714 493 q 651 506 664 493 q 621 558 639 519 l 492 842 q 475 858 486 856 q 454 861 464 861 l 433 861 q 408 852 414 861 q 401 832 401 843 l 399 125 l 385 125 l 388 832 q 399 865 388 854 q 433 875 410 875 l 457 875 q 483 870 469 875 q 503 851 497 865 l 632 565 q 659 517 649 528 q 689 507 669 507 z "},"Ｎ":{"ha":1389,"x_min":425,"x_max":965,"o":"m 442 876 q 451 874 447 876 q 463 864 456 871 l 951 289 l 951 875 l 965 875 l 965 125 l 951 125 l 951 268 l 449 857 q 445 860 447 858 q 442 861 443 861 q 440 860 440 861 q 439 857 439 858 l 439 125 l 425 125 l 425 860 q 431 872 425 868 q 442 876 436 876 z "},"":{"ha":1389,"x_min":425,"x_max":965,"o":"m 442 821 q 451 818 447 821 q 463 808 456 815 l 951 261 l 951 819 l 965 819 l 965 125 l 951 125 l 951 240 l 449 801 q 445 804 447 803 q 442 806 443 806 q 440 804 440 806 q 439 801 439 803 l 439 125 l 425 125 l 425 804 q 431 817 425 813 q 442 821 436 821 m 858 1113 l 858 1099 q 799 1099 831 1096 q 714 1110 767 1101 l 692 1113 l 653 1118 q 578 1126 607 1125 q 528 1124 550 1128 l 528 1139 q 580 1140 551 1142 q 656 1132 608 1138 l 694 1126 l 717 1124 q 800 1113 769 1115 q 858 1113 831 1110 z "},"":{"ha":1389,"x_min":425,"x_max":965,"o":"m 442 821 q 451 818 447 821 q 463 808 456 815 l 951 261 l 951 819 l 965 819 l 965 125 l 951 125 l 951 240 l 449 801 q 445 804 447 803 q 442 806 443 806 q 440 804 440 806 q 439 801 439 803 l 439 125 l 425 125 l 425 804 q 431 817 425 813 q 442 821 436 821 m 528 1121 l 860 1163 l 860 1149 l 528 1107 l 528 1121 z "},"":{"ha":1389,"x_min":425,"x_max":965,"o":"m 442 876 q 451 874 447 876 q 463 864 456 871 l 951 317 l 951 875 l 965 875 l 965 181 l 951 181 l 951 296 l 449 857 q 445 860 447 858 q 442 861 443 861 q 440 860 440 861 q 439 857 439 858 l 439 181 l 425 181 l 425 860 q 431 872 425 868 q 442 876 436 876 m 604 -117 l 788 -117 l 788 -237 q 758 -322 788 -293 q 679 -350 729 -350 l 604 -350 l 604 -336 l 679 -336 q 748 -311 722 -336 q 774 -237 774 -286 l 774 -131 l 604 -131 l 604 -117 z "},"":{"ha":1389,"x_min":425,"x_max":965,"o":"m 442 821 q 451 818 447 821 q 463 808 456 815 l 951 261 l 951 819 l 965 819 l 965 125 l 951 125 l 951 240 l 449 801 q 445 804 447 803 q 442 806 443 806 q 440 804 440 806 q 439 801 439 803 l 439 125 l 425 125 l 425 804 q 431 817 425 813 q 442 821 436 821 m 528 1165 l 649 1126 q 669 1121 658 1124 q 693 1118 679 1118 q 717 1121 707 1118 q 738 1126 728 1124 l 858 1165 l 858 1150 l 743 1113 q 719 1107 731 1110 q 693 1104 708 1104 q 667 1107 678 1104 q 643 1113 656 1110 l 528 1150 l 528 1165 z "},"Ｏ":{"ha":1389,"x_min":424,"x_max":967,"o":"m 967 294 q 908 159 967 211 q 693 107 850 107 q 480 159 536 107 q 424 294 424 211 l 424 704 q 480 840 424 788 q 693 892 536 892 q 908 840 850 892 q 967 704 967 788 l 967 294 m 438 294 q 491 169 438 217 q 693 121 544 121 q 897 169 842 121 q 953 294 953 217 l 953 704 q 897 830 953 782 q 693 878 842 878 q 491 830 544 878 q 438 704 438 782 l 438 294 z "},"":{"ha":1389,"x_min":424,"x_max":967,"o":"m 967 294 q 908 159 967 211 q 693 107 850 107 q 480 159 536 107 q 424 294 424 211 l 424 649 q 480 784 424 732 q 693 836 536 836 q 908 784 850 836 q 967 649 967 732 l 967 294 m 438 294 q 491 169 438 217 q 693 121 544 121 q 897 169 842 121 q 953 294 953 217 l 953 649 q 897 774 953 726 q 693 822 842 822 q 491 774 544 822 q 438 649 438 726 l 438 294 m 528 1149 l 528 1163 l 860 1121 l 860 1107 l 528 1149 z "},"":{"ha":1389,"x_min":424,"x_max":967,"o":"m 967 294 q 908 159 967 211 q 693 107 850 107 q 480 159 536 107 q 424 294 424 211 l 424 649 q 480 784 424 732 q 693 836 536 836 q 908 784 850 836 q 967 649 967 732 l 967 294 m 438 294 q 491 169 438 217 q 693 121 544 121 q 897 169 842 121 q 953 294 953 217 l 953 649 q 897 774 953 726 q 693 822 842 822 q 491 774 544 822 q 438 649 438 726 l 438 294 m 528 1121 l 860 1163 l 860 1149 l 528 1107 l 528 1121 z "},"":{"ha":1389,"x_min":424,"x_max":967,"o":"m 967 294 q 908 159 967 211 q 693 107 850 107 q 480 159 536 107 q 424 294 424 211 l 424 649 q 480 784 424 732 q 693 836 536 836 q 908 784 850 836 q 967 649 967 732 l 967 294 m 438 294 q 491 169 438 217 q 693 121 544 121 q 897 169 842 121 q 953 294 953 217 l 953 649 q 897 774 953 726 q 693 822 842 822 q 491 774 544 822 q 438 649 438 726 l 438 294 m 858 1125 l 738 1164 q 717 1169 728 1167 q 693 1172 707 1172 q 669 1169 679 1172 q 649 1164 658 1167 l 528 1125 l 528 1140 l 643 1178 q 667 1183 656 1181 q 693 1186 678 1186 q 719 1183 708 1186 q 743 1178 731 1181 l 858 1140 l 858 1125 z "},"":{"ha":1389,"x_min":424,"x_max":967,"o":"m 967 294 q 908 159 967 211 q 693 107 850 107 q 480 159 536 107 q 424 294 424 211 l 424 649 q 480 784 424 732 q 693 836 536 836 q 908 784 850 836 q 967 649 967 732 l 967 294 m 438 294 q 491 169 438 217 q 693 121 544 121 q 897 169 842 121 q 953 294 953 217 l 953 649 q 897 774 953 726 q 693 822 842 822 q 491 774 544 822 q 438 649 438 726 l 438 294 m 858 1113 l 858 1099 q 799 1099 831 1096 q 714 1110 767 1101 l 692 1113 l 653 1118 q 578 1126 607 1125 q 528 1124 550 1128 l 528 1139 q 580 1140 551 1142 q 656 1132 608 1138 l 694 1126 l 717 1124 q 800 1113 769 1115 q 858 1113 831 1110 z "},"":{"ha":1389,"x_min":424,"x_max":967,"o":"m 967 294 q 908 159 967 211 q 693 107 850 107 q 480 159 536 107 q 424 294 424 211 l 424 649 q 480 784 424 732 q 693 836 536 836 q 908 784 850 836 q 967 649 967 732 l 967 294 m 438 294 q 491 169 438 217 q 693 121 544 121 q 897 169 842 121 q 953 294 953 217 l 953 649 q 897 774 953 726 q 693 822 842 822 q 491 774 544 822 q 438 649 438 726 l 438 294 m 519 1097 l 506 1097 l 506 1163 l 519 1163 l 519 1097 m 878 1097 l 864 1097 l 864 1163 l 878 1163 l 878 1097 z "},"":{"ha":1389,"x_min":424,"x_max":967,"o":"m 967 294 q 908 159 967 211 q 693 107 850 107 q 480 159 536 107 q 424 294 424 211 l 424 649 q 480 784 424 732 q 693 836 536 836 q 908 784 850 836 q 967 649 967 732 l 967 294 m 438 294 q 491 169 438 217 q 693 121 544 121 q 897 169 842 121 q 953 294 953 217 l 953 649 q 897 774 953 726 q 693 822 842 822 q 491 774 544 822 q 438 649 438 726 l 438 294 m 528 1121 l 860 1121 l 860 1107 l 528 1107 l 528 1121 z "},"":{"ha":1389,"x_min":424,"x_max":967,"o":"m 967 294 q 908 159 967 211 q 693 107 850 107 q 480 159 536 107 q 424 294 424 211 l 424 649 q 480 784 424 732 q 693 836 536 836 q 908 784 850 836 q 967 649 967 732 l 967 294 m 438 294 q 491 169 438 217 q 693 121 544 121 q 897 169 842 121 q 953 294 953 217 l 953 649 q 897 774 953 726 q 693 822 842 822 q 491 774 544 822 q 438 649 438 726 l 438 294 m 881 1204 l 894 1204 l 894 1192 q 887 1152 894 1172 q 858 1116 879 1132 q 797 1090 838 1100 q 693 1081 757 1081 q 590 1090 629 1081 q 531 1116 551 1100 q 505 1152 511 1132 q 499 1192 499 1172 l 499 1204 l 513 1204 l 513 1192 q 547 1124 513 1154 q 693 1094 581 1094 q 843 1124 806 1094 q 881 1192 881 1154 l 881 1204 z "},"":{"ha":1389,"x_min":424,"x_max":967,"o":"m 967 294 q 908 159 967 211 q 693 107 850 107 q 480 159 536 107 q 424 294 424 211 l 424 649 q 480 784 424 732 q 693 836 536 836 q 908 784 850 836 q 967 649 967 732 l 967 294 m 438 294 q 491 169 438 217 q 693 121 544 121 q 897 169 842 121 q 953 294 953 217 l 953 649 q 897 774 953 726 q 693 822 842 822 q 491 774 544 822 q 438 649 438 726 l 438 294 m 903 1125 l 888 1125 l 922 1260 l 938 1260 l 903 1125 m 542 1125 l 526 1125 l 561 1260 l 576 1260 l 542 1125 z "},"Ｐ":{"ha":1389,"x_min":429,"x_max":974,"o":"m 765 399 l 443 399 l 443 125 l 429 125 l 429 875 l 765 875 q 872 860 831 875 q 935 821 913 846 q 965 761 957 796 q 974 686 974 726 l 974 583 q 965 509 974 543 q 935 451 957 475 q 872 413 913 426 q 765 399 831 399 m 443 413 l 765 413 q 865 425 826 413 q 924 460 903 438 q 952 515 944 483 q 960 583 960 546 l 960 686 q 952 756 960 724 q 924 811 944 788 q 865 848 903 835 q 765 861 826 861 l 443 861 l 443 413 z "},"Ｑ":{"ha":1389,"x_min":424,"x_max":967,"o":"m 686 0 l 686 107 q 478 160 533 108 q 424 294 424 211 l 424 704 q 480 840 424 788 q 693 892 536 892 q 908 840 850 892 q 967 704 967 788 l 967 294 q 910 160 967 211 q 700 107 853 108 l 700 0 l 686 0 m 438 294 q 491 169 438 217 q 693 121 544 121 q 897 169 842 121 q 953 294 953 217 l 953 704 q 897 830 953 782 q 693 878 842 878 q 491 830 544 878 q 438 704 438 782 l 438 294 z "},"Ｒ":{"ha":1389,"x_min":428,"x_max":974,"o":"m 744 861 l 442 861 l 442 460 l 744 460 q 860 501 831 460 q 889 619 889 543 l 889 717 q 853 821 889 781 q 744 861 818 861 m 442 125 l 428 125 l 428 875 l 744 875 q 864 830 825 875 q 903 717 903 785 l 903 621 q 886 516 903 557 q 819 460 869 475 l 835 460 q 947 422 919 460 q 974 311 974 383 l 974 125 l 960 125 l 960 311 q 937 413 960 379 q 835 447 914 447 l 442 447 l 442 125 z "},"":{"ha":1389,"x_min":428,"x_max":974,"o":"m 744 806 l 442 806 l 442 432 l 744 432 q 860 474 831 432 q 889 592 889 515 l 889 661 q 853 765 889 725 q 744 806 818 806 m 442 125 l 428 125 l 428 819 l 744 819 q 864 774 825 819 q 903 661 903 729 l 903 593 q 886 488 903 529 q 819 432 869 447 l 835 432 q 947 394 919 432 q 974 283 974 356 l 974 125 l 960 125 l 960 283 q 937 385 960 351 q 835 419 914 419 l 442 419 l 442 125 m 503 1121 l 835 1163 l 835 1149 l 503 1107 l 503 1121 z "},"":{"ha":1389,"x_min":428,"x_max":974,"o":"m 744 861 l 442 861 l 442 488 l 744 488 q 860 529 831 488 q 889 647 889 571 l 889 717 q 853 821 889 781 q 744 861 818 861 m 442 181 l 428 181 l 428 875 l 744 875 q 864 830 825 875 q 903 717 903 785 l 903 649 q 886 544 903 585 q 819 488 869 503 l 835 488 q 947 449 919 488 q 974 339 974 411 l 974 181 l 960 181 l 960 339 q 937 441 960 407 q 835 475 914 475 l 442 475 l 442 181 m 604 -117 l 788 -117 l 788 -237 q 758 -322 788 -293 q 679 -350 729 -350 l 604 -350 l 604 -336 l 679 -336 q 748 -311 722 -336 q 774 -237 774 -286 l 774 -131 l 604 -131 l 604 -117 z "},"":{"ha":1389,"x_min":428,"x_max":974,"o":"m 744 806 l 442 806 l 442 432 l 744 432 q 860 474 831 432 q 889 592 889 515 l 889 661 q 853 765 889 725 q 744 806 818 806 m 442 125 l 428 125 l 428 819 l 744 819 q 864 774 825 819 q 903 661 903 729 l 903 593 q 886 488 903 529 q 819 432 869 447 l 835 432 q 947 394 919 432 q 974 283 974 356 l 974 125 l 960 125 l 960 283 q 937 385 960 351 q 835 419 914 419 l 442 419 l 442 125 m 528 1165 l 649 1126 q 669 1121 658 1124 q 693 1118 679 1118 q 717 1121 707 1118 q 738 1126 728 1124 l 858 1165 l 858 1150 l 743 1113 q 719 1107 731 1110 q 693 1104 708 1104 q 667 1107 678 1104 q 643 1113 656 1110 l 528 1150 l 528 1165 z "},"Ｓ":{"ha":1389,"x_min":403,"x_max":961,"o":"m 951 875 l 951 861 l 571 861 q 477 831 511 861 q 443 749 443 800 l 443 621 q 469 553 443 579 q 542 522 496 526 l 838 493 q 931 455 900 488 q 961 367 961 422 l 961 251 q 919 159 961 193 q 807 125 878 125 l 403 125 l 403 139 l 807 139 q 909 169 871 139 q 947 251 947 200 l 947 367 q 919 445 947 417 q 835 479 892 474 l 539 508 q 458 544 488 514 q 429 621 429 574 l 429 749 q 467 841 429 807 q 571 875 506 875 l 951 875 z "},"":{"ha":1389,"x_min":403,"x_max":961,"o":"m 951 819 l 951 806 l 571 806 q 477 775 511 806 q 443 693 443 744 l 443 593 q 469 525 443 551 q 542 494 496 499 l 838 465 q 931 427 900 460 q 961 339 961 394 l 961 251 q 919 159 961 193 q 807 125 878 125 l 403 125 l 403 139 l 807 139 q 909 169 871 139 q 947 251 947 200 l 947 339 q 919 417 947 389 q 835 451 892 446 l 539 481 q 458 516 488 486 q 429 593 429 546 l 429 693 q 467 785 429 751 q 571 819 506 819 l 951 819 m 528 1121 l 860 1163 l 860 1149 l 528 1107 l 528 1121 z "},"":{"ha":1389,"x_min":403,"x_max":961,"o":"m 858 1125 l 738 1164 q 717 1169 728 1167 q 693 1172 707 1172 q 669 1169 679 1172 q 649 1164 658 1167 l 528 1125 l 528 1140 l 643 1178 q 667 1183 656 1181 q 693 1186 678 1186 q 719 1183 708 1186 q 743 1178 731 1181 l 858 1140 l 858 1125 m 951 819 l 951 806 l 571 806 q 477 775 511 806 q 443 693 443 744 l 443 593 q 469 525 443 551 q 542 494 496 499 l 838 465 q 931 427 900 460 q 961 339 961 394 l 961 251 q 919 159 961 193 q 807 125 878 125 l 403 125 l 403 139 l 807 139 q 909 169 871 139 q 947 251 947 200 l 947 339 q 919 417 947 389 q 835 451 892 446 l 539 481 q 458 516 488 486 q 429 593 429 546 l 429 693 q 467 785 429 751 q 571 819 506 819 l 951 819 z "},"":{"ha":1389,"x_min":403,"x_max":961,"o":"m 807 181 l 714 181 l 650 6 l 636 6 l 699 181 l 403 181 l 403 194 l 807 194 q 909 225 871 194 q 947 307 947 256 l 947 394 q 919 473 947 444 q 835 507 892 501 l 539 536 q 458 572 488 542 q 429 649 429 601 l 429 749 q 467 841 429 807 q 571 875 506 875 l 951 875 l 951 861 l 571 861 q 477 831 511 861 q 443 749 443 800 l 443 649 q 469 581 443 607 q 542 550 496 554 l 838 521 q 931 483 900 515 q 961 394 961 450 l 961 307 q 919 215 961 249 q 807 181 878 181 z "},"":{"ha":1389,"x_min":403,"x_max":961,"o":"m 951 819 l 951 806 l 571 806 q 477 775 511 806 q 443 693 443 744 l 443 593 q 469 525 443 551 q 542 494 496 499 l 838 465 q 931 427 900 460 q 961 339 961 394 l 961 251 q 919 159 961 193 q 807 125 878 125 l 403 125 l 403 139 l 807 139 q 909 169 871 139 q 947 251 947 200 l 947 339 q 919 417 947 389 q 835 451 892 446 l 539 481 q 458 516 488 486 q 429 593 429 546 l 429 693 q 467 785 429 751 q 571 819 506 819 l 951 819 m 528 1165 l 649 1126 q 669 1121 658 1124 q 693 1118 679 1118 q 717 1121 707 1118 q 738 1126 728 1124 l 858 1165 l 858 1150 l 743 1113 q 719 1107 731 1110 q 693 1104 708 1104 q 667 1107 678 1104 q 643 1113 656 1110 l 528 1150 l 528 1165 z "}}}
